<svg width="166" height="141" viewBox="0 0 166 141" fill="none" xmlns="http://www.w3.org/2000/svg">
<path d="M108.612 80.384L85.536 67.0427C84.772 66.6 83.5347 66.6 82.7747 67.0427L24.7307 100.789L22.1093 101.427V102.724L22.116 102.723C22.0867 103.033 22.2707 103.348 22.6827 103.587L46.2707 117.225C47.036 117.667 48.272 117.667 49.032 117.225L109.135 82.2813C109.499 82.0693 109.683 81.7946 109.696 81.5173L109.703 81.516V80.1186L108.612 80.384Z" fill="#BBC0D1"/>
<path d="M22.6827 102.247L46.2707 115.885C47.036 116.328 48.272 116.328 49.032 115.885L109.135 80.9413C109.895 80.5 109.891 79.7827 109.127 79.3413L85.536 65.7027C84.772 65.26 83.5347 65.26 82.7747 65.7027L22.6733 100.647C21.912 101.088 21.916 101.804 22.6827 102.247Z" fill="#D3D2E3"/>
<path d="M103.231 78.9626V78.652H102.975L100.36 77.1426C100.092 76.988 99.66 76.9893 99.396 77.1426L96.772 78.668H96.544V78.9626V78.964V78.9827H96.548C96.556 79.0773 96.6213 79.1706 96.7453 79.244L99.4133 80.7827C99.6827 80.9387 100.116 80.9386 100.381 80.7853L103.033 79.244C103.165 79.1666 103.232 79.064 103.231 78.9626Z" fill="#E2E2ED"/>
<path d="M86.392 69.2413V68.9307H86.136L83.5213 67.4213C83.2533 67.2666 82.8213 67.268 82.5573 67.4213L79.9347 68.9453L79.7067 68.9467V69.2413V69.2427V69.26H79.7093C79.7173 69.356 79.7827 69.4493 79.9067 69.5213L82.5747 71.0613C82.844 71.2173 83.2773 71.2173 83.5427 71.064L86.1947 69.5213C86.328 69.4453 86.3933 69.3427 86.392 69.2413Z" fill="#E2E2ED"/>
<path d="M82.2373 71.6559V71.3453H81.9813L79.3667 69.8359C79.0987 69.6813 78.6667 69.6813 78.4027 69.8359L75.78 71.3599L75.552 71.3613V71.6573V71.6759H75.5547C75.564 71.7706 75.628 71.8639 75.7533 71.9359L78.42 73.4759C78.688 73.6319 79.124 73.632 79.388 73.4773L82.04 71.9359C82.1733 71.8586 82.2387 71.7573 82.2373 71.6559Z" fill="#E2E2ED"/>
<path d="M78.0827 74.0707V73.76H77.8267L75.2133 72.2493C74.944 72.0947 74.5133 72.0973 74.2467 72.2493L71.6253 73.7747H71.3973V74.0707V74.072V74.0906H71.4C71.408 74.184 71.472 74.2786 71.5987 74.3506L74.2667 75.8906C74.5347 76.0453 74.968 76.0453 75.2333 75.892L77.8853 74.3506C78.0173 74.2733 78.084 74.172 78.0827 74.0707Z" fill="#E2E2ED"/>
<path d="M73.928 76.4853V76.1733L73.6733 76.1747L71.0587 74.6653C70.7907 74.5093 70.3573 74.512 70.092 74.6653L67.4693 76.1893H67.2413V76.4853V76.504H67.2453C67.2533 76.5987 67.3173 76.6933 67.444 76.7653L70.112 78.3053C70.38 78.46 70.8133 78.46 71.0773 78.3067L73.7307 76.7653C73.8627 76.688 73.9293 76.5866 73.928 76.4853Z" fill="#E2E2ED"/>
<path d="M99.0747 81.3773V81.0666H98.82L96.2053 79.5573C95.9373 79.4026 95.5053 79.404 95.24 79.5573L92.6187 81.0813L92.3907 81.0826V81.3773V81.3973H92.3933C92.4013 81.492 92.4653 81.5853 92.5907 81.6573L95.2587 83.1986C95.5267 83.3533 95.9613 83.3533 96.2267 83.2L98.8787 81.6573C99.012 81.5813 99.076 81.4786 99.0747 81.3773Z" fill="#E2E2ED"/>
<path d="M92.5467 80.3267V80.016L92.2906 80.0173L89.676 78.5067C89.4067 78.352 88.976 78.3534 88.7107 78.5067L86.088 80.032H85.86V80.328V80.3467H85.8627C85.872 80.4414 85.936 80.536 86.0627 80.608L88.7293 82.148C88.9987 82.3027 89.432 82.3027 89.696 82.1494L92.3493 80.608C92.4813 80.5307 92.548 80.4293 92.5467 80.3267Z" fill="#E2E2ED"/>
<path d="M88.392 82.7413V82.4306H88.136L85.5213 80.9213C85.2533 80.7666 84.8213 80.768 84.556 80.9213L81.9333 82.4467H81.7053V82.7427V82.7613H81.7093C81.7173 82.856 81.7813 82.9493 81.9067 83.0226L84.5747 84.5626C84.844 84.7173 85.2773 84.7173 85.5413 84.564L88.1933 83.0226C88.3266 82.9453 88.3933 82.8427 88.392 82.7413Z" fill="#E2E2ED"/>
<path d="M86.2333 79.088V78.7773L85.976 78.7787L83.3627 77.2693C83.0933 77.1146 82.6627 77.1146 82.3973 77.2693L79.7747 78.7933H79.5467V79.0893V79.108H79.5493C79.5587 79.2027 79.6227 79.296 79.748 79.3693L82.416 80.9093C82.684 81.064 83.1187 81.064 83.3827 80.9107L86.0347 79.3693C86.168 79.292 86.2347 79.1906 86.2333 79.088Z" fill="#E2E2ED"/>
<path d="M81.9946 76.6413V76.3306L81.74 76.332L79.1253 74.8213C78.856 74.6666 78.424 74.668 78.1586 74.8213L75.536 76.3453L75.308 76.3467V76.6426V76.6613H75.312C75.32 76.756 75.384 76.8493 75.5106 76.9213L78.1786 78.4626C78.4466 78.6173 78.88 78.6173 79.144 78.464L81.796 76.9213C81.9293 76.8453 81.996 76.744 81.9946 76.6413Z" fill="#E2E2ED"/>
<path d="M77.84 79.056V78.7454H77.584L74.9693 77.236C74.7013 77.0813 74.2693 77.0827 74.0053 77.236L71.3813 78.76L71.1533 78.7613V79.0573V79.076H71.1573C71.1653 79.1707 71.2307 79.264 71.3547 79.3373L74.0227 80.8774C74.292 81.032 74.7253 81.032 74.9907 80.8774L77.6413 79.3373C77.7747 79.26 77.8413 79.1573 77.84 79.056Z" fill="#E2E2ED"/>
<path d="M73.684 81.4707V81.16H73.4293L70.8147 79.6507C70.5467 79.496 70.1147 79.4973 69.8507 79.6507L67.2267 81.176H66.9987V81.4707V81.472V81.4907H67.0027C67.0107 81.5853 67.0747 81.6787 67.2 81.752L69.868 83.2907C70.136 83.4467 70.5707 83.4467 70.836 83.2933L73.488 81.752C73.6213 81.6733 73.6853 81.572 73.684 81.4707Z" fill="#E2E2ED"/>
<path d="M69.5293 83.8853V83.5746H69.2747L66.66 82.0653C66.392 81.9106 65.96 81.9119 65.6947 82.0653L63.0733 83.5893L62.8453 83.5906V83.8853V83.9053H62.848C62.8547 84 62.92 84.0933 63.0453 84.1653L65.7133 85.7053C65.9813 85.8613 66.416 85.8613 66.6813 85.7066L69.3333 84.1653C69.4653 84.0879 69.5307 83.9866 69.5293 83.8853Z" fill="#E2E2ED"/>
<path d="M65.3747 86.3V85.988L65.12 85.9893L62.5053 84.48C62.2373 84.3254 61.804 84.3267 61.54 84.48L58.9173 86.004L58.6893 86.0054V86.3V86.3187H58.692C58.7013 86.4147 58.7653 86.5067 58.892 86.58L61.5587 88.1213C61.8267 88.276 62.2613 88.276 62.5253 88.1213L65.1787 86.58C65.3107 86.5027 65.376 86.4014 65.3747 86.3Z" fill="#E2E2ED"/>
<path d="M61.2213 88.7147V88.4027L60.964 88.404L58.3507 86.8947C58.0813 86.7387 57.6507 86.74 57.3853 86.8947L54.7627 88.4186H54.5347V88.7147V88.7333H54.5373C54.5467 88.828 54.6107 88.9213 54.7373 88.9947L57.4053 90.5347C57.6733 90.6893 58.1067 90.6893 58.3707 90.536L61.0227 88.9947C61.156 88.9173 61.2227 88.816 61.2213 88.7147Z" fill="#E2E2ED"/>
<path d="M57.0667 91.128V90.8186H56.8107L54.196 89.3093C53.928 89.1547 53.496 89.1547 53.2307 89.3093L50.608 90.8333H50.38V91.1293V91.148H50.384C50.392 91.2427 50.456 91.3373 50.5813 91.4093L53.2493 92.9493C53.5173 93.104 53.952 93.104 54.216 92.9493L56.868 91.4093C57.0013 91.332 57.068 91.2307 57.0667 91.128Z" fill="#E2E2ED"/>
<path d="M52.9106 93.5427V93.232L52.656 93.2333L50.0413 91.724C49.7733 91.5693 49.3413 91.5693 49.076 91.724L46.4533 93.248H46.2253V93.544V93.5627H46.2293C46.2373 93.6573 46.3013 93.7507 46.4266 93.824L49.0946 95.364C49.3626 95.5187 49.796 95.5187 50.0626 95.3653L52.7133 93.824C52.8466 93.7467 52.912 93.6453 52.9106 93.5427Z" fill="#E2E2ED"/>
<path d="M42.072 95.96V96.2693H42.3266L44.9413 97.7786C45.2093 97.9333 45.6413 97.932 45.9066 97.7786L48.528 96.2546H48.756V95.9586V95.94H48.7533C48.744 95.8453 48.6813 95.7506 48.5546 95.6786L45.888 94.1386C45.6186 93.9826 45.184 93.9826 44.92 94.1373L42.268 95.6786C42.1346 95.7546 42.0706 95.8573 42.072 95.96Z" fill="#E2E2ED"/>
<path d="M44.3053 93.6987V93.388L44.0507 93.3893L41.436 91.8787C41.168 91.724 40.736 91.7253 40.4707 91.8787L37.8493 93.4027L37.6213 93.404V93.7V93.7186H37.624C37.6307 93.8133 37.696 93.9067 37.8213 93.98L40.4893 95.52C40.7573 95.6746 41.1907 95.6746 41.4573 95.5213L44.1093 93.98C44.2413 93.9027 44.3067 93.8013 44.3053 93.6987Z" fill="#E2E2ED"/>
<path d="M40.1507 96.1133V95.8027H39.896L37.2813 94.2933C37.0133 94.1386 36.58 94.14 36.316 94.2933L33.6933 95.8186H33.4653V96.1147V96.1333H33.468C33.4773 96.228 33.5413 96.3213 33.668 96.3946L36.3347 97.9347C36.6027 98.0893 37.0373 98.0893 37.3013 97.936L39.9547 96.3946C40.0867 96.316 40.152 96.2147 40.1507 96.1133Z" fill="#E2E2ED"/>
<path d="M31.74 101.003V100.691L31.484 100.692L28.8693 99.1827C28.6013 99.028 28.1693 99.028 27.904 99.1827L25.2813 100.707H25.0533V101.003V101.021H25.0573C25.0653 101.116 25.128 101.209 25.2547 101.283L27.9227 102.824C28.1907 102.979 28.6253 102.979 28.8907 102.824L31.5413 101.283C31.6747 101.205 31.74 101.104 31.74 101.003Z" fill="#E2E2ED"/>
<path d="M36.036 102.891L33.4227 101.381C33.1533 101.227 32.7227 101.228 32.4573 101.381L32.0853 101.597L29.8347 102.905H29.6067V103.037L29.4627 103.121H29.236V103.416V103.417V103.436H29.2387C29.2467 103.531 29.3107 103.624 29.4373 103.697L32.1053 105.237C32.3733 105.392 32.8067 105.392 33.072 105.239L36.0947 103.481C36.228 103.405 36.2946 103.303 36.2933 103.2V102.891H36.036Z" fill="#E2E2ED"/>
<path d="M44.6013 98.372V98.0613H44.3466L41.732 96.552C41.4627 96.3973 41.0307 96.3973 40.7667 96.552L38.144 98.076L37.916 98.0773V98.372V98.392H37.9187C37.9267 98.4866 37.992 98.58 38.1173 98.652L40.7853 100.193C41.0533 100.348 41.488 100.348 41.752 100.193L44.4053 98.652C44.5373 98.5746 44.6027 98.4733 44.6013 98.372Z" fill="#E2E2ED"/>
<path d="M40.4467 100.787V100.476H40.1907L37.576 98.9667C37.308 98.812 36.876 98.8133 36.612 98.9667L33.9893 100.491H33.7613V100.787V100.788V100.807H33.764C33.7733 100.9 33.8373 100.995 33.9627 101.067L36.6293 102.607C36.9 102.761 37.3333 102.761 37.5973 102.608L40.2493 101.067C40.3827 100.991 40.448 100.888 40.4467 100.787Z" fill="#E2E2ED"/>
<path d="M82.0773 81.5026V81.192L81.8226 81.1933L79.208 79.6827C78.94 79.528 78.508 79.5293 78.2413 79.6827L75.62 81.2066L75.392 81.208V81.504V81.5226H75.396C75.404 81.6173 75.4666 81.7107 75.5933 81.7827L78.2613 83.324C78.5293 83.4786 78.9626 83.4786 79.228 83.3253L81.88 81.7827C82.0133 81.7067 82.0786 81.6053 82.0773 81.5026Z" fill="#E2E2ED"/>
<path d="M77.9227 83.9173V83.6067H77.668L75.0533 82.0973C74.7853 81.9427 74.352 81.944 74.088 82.0973L71.464 83.6213L71.2373 83.6227V83.9187V83.9373H71.24C71.248 84.032 71.3133 84.1253 71.4387 84.1987L74.1067 85.7387C74.3747 85.8933 74.808 85.8933 75.0733 85.7387L77.7253 84.1987C77.8573 84.1213 77.924 84.0187 77.9227 83.9173Z" fill="#E2E2ED"/>
<path d="M73.768 86.332V86.0213H73.5133L70.8986 84.512C70.6293 84.3573 70.1973 84.3587 69.9333 84.512L67.3106 86.0373H67.0826V86.332V86.3333V86.352H67.0853C67.0933 86.4467 67.1586 86.54 67.284 86.6133L69.952 88.152C70.22 88.308 70.6533 88.308 70.9186 88.1547L73.572 86.6133C73.704 86.536 73.7693 86.4333 73.768 86.332Z" fill="#E2E2ED"/>
<path d="M69.6133 88.7467V88.436H69.3573L66.7426 86.9267C66.4746 86.772 66.0426 86.7733 65.7786 86.9267L63.156 88.4506L62.928 88.452V88.7467V88.7653H62.9306C62.9386 88.8613 63.004 88.9547 63.1293 89.0267L65.796 90.5667C66.0653 90.7227 66.5 90.7227 66.764 90.5693L69.416 89.0267C69.5493 88.9493 69.6146 88.848 69.6133 88.7467Z" fill="#E2E2ED"/>
<path d="M65.4586 91.1613V90.8493L65.2026 90.8506L62.588 89.3413C62.32 89.1866 61.888 89.1866 61.624 89.3413L59.0013 90.8653L58.7733 90.8666V91.1613V91.1813H58.776C58.7853 91.276 58.8493 91.3693 58.9747 91.4413L61.6413 92.9813C61.9107 93.1373 62.3453 93.1373 62.6093 92.9827L65.2613 91.4413C65.3946 91.364 65.46 91.2626 65.4586 91.1613Z" fill="#E2E2ED"/>
<path d="M61.304 93.5747V93.264L61.048 93.2653L58.4347 91.7546C58.1653 91.6 57.7347 91.6026 57.468 91.7546L54.8466 93.28H54.6187V93.576V93.5947H54.6213C54.6293 93.6893 54.6933 93.7826 54.82 93.856L57.488 95.396C57.756 95.5507 58.1893 95.5507 58.4547 95.3973L61.1067 93.856C61.24 93.7786 61.3053 93.6773 61.304 93.5747Z" fill="#E2E2ED"/>
<path d="M57.1493 95.9906V95.6787L56.8946 95.68L54.28 94.1707C54.012 94.0147 53.5786 94.016 53.3133 94.1707L50.6907 95.6946H50.4626V95.9906V96.0093H50.4667C50.4747 96.104 50.5386 96.1987 50.6653 96.2707L53.3333 97.8107C53.6013 97.9653 54.0346 97.9653 54.2986 97.812L56.952 96.2707C57.084 96.1933 57.1507 96.092 57.1493 95.9906Z" fill="#E2E2ED"/>
<path d="M52.9946 98.4053V98.0933H52.74L50.1253 96.5853C49.856 96.4307 49.424 96.4307 49.16 96.5853L46.536 98.1093H46.308V98.4053V98.424H46.312C46.32 98.5187 46.3853 98.612 46.5106 98.6853L49.1786 100.225C49.4466 100.38 49.88 100.38 50.1453 100.227L52.796 98.6853C52.9293 98.608 52.996 98.5067 52.9946 98.4053Z" fill="#E2E2ED"/>
<path d="M48.84 100.819V100.508L48.584 100.509L45.9693 98.9987C45.7013 98.844 45.2693 98.8453 45.0053 98.9987L42.3827 100.523L42.1547 100.524V100.819V100.82V100.839H42.1573C42.1653 100.933 42.2307 101.027 42.3547 101.099L45.0227 102.64C45.292 102.795 45.7253 102.795 45.9907 102.641L48.6427 101.099C48.776 101.023 48.8413 100.921 48.84 100.819Z" fill="#E2E2ED"/>
<path d="M84.2373 85.156V84.8453H83.9813L81.3667 83.336C81.0987 83.1813 80.6667 83.1827 80.4013 83.336L77.7787 84.86L77.5507 84.8613V85.1573V85.176H77.5547C77.5627 85.2707 77.6267 85.364 77.752 85.436L80.42 86.976C80.688 87.132 81.1227 87.132 81.388 86.9787L84.0387 85.436C84.172 85.36 84.2387 85.2586 84.2373 85.156Z" fill="#E2E2ED"/>
<path d="M80.0813 87.5707V87.26H79.8267L77.212 85.7507C76.944 85.596 76.512 85.5973 76.2467 85.7507L73.624 87.2747L73.396 87.276V87.572V87.5907H73.4C73.4067 87.6853 73.472 87.7787 73.5973 87.8507L76.2653 89.392C76.5333 89.5467 76.9667 89.5467 77.2333 89.392L79.8853 87.8507C80.0173 87.7747 80.0827 87.672 80.0813 87.5707Z" fill="#E2E2ED"/>
<path d="M75.9267 89.9853V89.6733L75.672 89.6747L73.0573 88.1653C72.7893 88.0106 72.356 88.012 72.092 88.1653L69.4693 89.6893H69.2413V89.9853V90.0053H69.244C69.252 90.0987 69.3173 90.1933 69.4427 90.2653L72.1107 91.8053C72.3787 91.96 72.812 91.96 73.0773 91.8067L75.7307 90.2653C75.8627 90.188 75.928 90.0866 75.9267 89.9853Z" fill="#E2E2ED"/>
<path d="M71.772 92.4V92.0879L71.5173 92.0893L68.9027 90.58C68.6333 90.4253 68.2013 90.4266 67.9373 90.58L65.3147 92.104H65.0867V92.4V92.4199L65.0893 92.4186C65.0973 92.5146 65.1627 92.608 65.2893 92.68L67.956 94.2199C68.224 94.3759 68.6587 94.3759 68.9227 94.2213L71.5747 92.68C71.708 92.6026 71.7733 92.5013 71.772 92.4Z" fill="#E2E2ED"/>
<path d="M67.6187 94.8147V94.5026L67.3613 94.504L64.7467 92.9946C64.4787 92.84 64.048 92.84 63.7827 92.9946L61.16 94.5186H60.932V94.8147V94.8333H60.9347C60.944 94.928 61.008 95.0213 61.1333 95.0946L63.8 96.6346C64.0707 96.7906 64.504 96.7906 64.768 96.636L67.42 95.0946C67.5533 95.0173 67.62 94.916 67.6187 94.8147Z" fill="#E2E2ED"/>
<path d="M63.4626 97.228V96.9173L63.208 96.9186L60.5933 95.408C60.3253 95.2533 59.8933 95.2546 59.628 95.408L57.0053 96.932L56.7773 96.9333V97.228V97.2293V97.248H56.7813C56.7893 97.3427 56.852 97.436 56.9786 97.5093L59.6466 99.0493C59.9146 99.204 60.3493 99.204 60.6133 99.0506L63.2653 97.5093C63.3987 97.432 63.464 97.3306 63.4626 97.228Z" fill="#E2E2ED"/>
<path d="M59.308 99.6427V99.332L59.0533 99.3333L56.4387 97.824C56.1707 97.668 55.7387 97.6693 55.472 97.824L52.8507 99.348H52.6227V99.6427V99.6626H52.6267C52.6333 99.7573 52.6973 99.8506 52.824 99.924L55.492 101.464C55.76 101.619 56.1933 101.619 56.46 101.465L59.1107 99.924C59.2427 99.8466 59.3093 99.744 59.308 99.6427Z" fill="#E2E2ED"/>
<path d="M55.1533 102.057V101.747H54.8987L52.284 100.239C52.016 100.083 51.5827 100.083 51.3187 100.239L48.6947 101.761L48.4667 101.763V102.059V102.077H48.4707C48.4787 102.172 48.544 102.265 48.6693 102.339L51.3373 103.879C51.6053 104.033 52.0387 104.033 52.304 103.879L54.9573 102.339C55.0893 102.26 55.1547 102.16 55.1533 102.057Z" fill="#E2E2ED"/>
<path d="M50.9987 104.472V104.161H50.7427L48.128 102.652C47.86 102.497 47.428 102.499 47.164 102.652L44.5413 104.176H44.3133V104.472V104.473V104.492H44.316C44.324 104.587 44.3893 104.68 44.5147 104.752L47.1827 106.293C47.4507 106.448 47.884 106.448 48.1493 106.293L50.8013 104.752C50.9347 104.676 51 104.573 50.9987 104.472Z" fill="#E2E2ED"/>
<path d="M94.92 83.792V83.4813H94.6653L92.0506 81.972C91.7826 81.8173 91.3506 81.8187 91.0853 81.972L88.4627 83.496L88.236 83.4973V83.7933V83.812H88.2387C88.2467 83.9067 88.3107 84 88.4373 84.072L91.104 85.6133C91.372 85.768 91.8067 85.768 92.072 85.6133L94.724 84.072C94.856 83.9947 94.9213 83.8933 94.92 83.792Z" fill="#E2E2ED"/>
<path d="M90.7667 86.2053V85.8946L90.5107 85.896L87.896 84.3866C87.628 84.2306 87.196 84.2333 86.9307 84.3866L84.308 85.9106H84.08V86.2066V86.2266H84.0827C84.092 86.3213 84.156 86.4146 84.2827 86.4866L86.9507 88.0266C87.2187 88.1813 87.652 88.1813 87.916 88.028L90.5693 86.4866C90.7013 86.4093 90.768 86.308 90.7667 86.2053Z" fill="#E2E2ED"/>
<path d="M86.612 88.6213V88.3093H86.356L83.7413 86.8013C83.4733 86.6466 83.0413 86.6479 82.776 86.8013L80.1533 88.3253L79.9253 88.3266V88.6213V88.6399H79.9293C79.9373 88.7359 80.0013 88.8293 80.128 88.9013L82.7947 90.4413C83.064 90.5973 83.4973 90.5973 83.7613 90.4426L86.4133 88.9013C86.5467 88.8239 86.6133 88.7226 86.612 88.6213Z" fill="#E2E2ED"/>
<path d="M82.4573 91.036V90.724L82.2013 90.7253L79.5867 89.216C79.3187 89.06 78.8867 89.0613 78.6227 89.216L75.9987 90.74H75.7707V91.036V91.0546H75.7747C75.7827 91.1493 75.848 91.2427 75.972 91.316L78.64 92.856C78.908 93.0106 79.3427 93.0106 79.608 92.8573L82.2586 91.316C82.392 91.2387 82.4587 91.1373 82.4573 91.036Z" fill="#E2E2ED"/>
<path d="M78.3013 93.4493V93.1387L78.0466 93.14L75.432 91.6293C75.164 91.4746 74.732 91.476 74.4666 91.6293L71.8453 93.1546H71.6173V93.4493V93.4693H71.62C71.628 93.564 71.692 93.6573 71.8173 93.7306L74.4853 95.2707C74.7533 95.4253 75.1866 95.4253 75.4533 95.272L78.1053 93.7306C78.2386 93.6533 78.3026 93.5507 78.3013 93.4493Z" fill="#E2E2ED"/>
<path d="M74.1466 95.864V95.5533H73.892L71.2773 94.044C71.0093 93.8893 70.576 93.8907 70.312 94.044L67.6893 95.5693H67.4613V95.8653V95.884H67.464C67.472 95.9786 67.5373 96.072 67.664 96.1453L70.3306 97.6853C70.5986 97.84 71.0333 97.84 71.2973 97.6853L73.9506 96.1453C74.0826 96.0667 74.148 95.9653 74.1466 95.864Z" fill="#E2E2ED"/>
<path d="M69.9933 98.2786V97.968H69.7373L67.1227 96.4586C66.8533 96.304 66.4227 96.3053 66.1573 96.4586L63.5347 97.9826H63.3067V98.2786V98.28V98.2986H63.3093C63.3187 98.3933 63.3827 98.4866 63.5093 98.5586L66.176 100.099C66.4453 100.255 66.8787 100.255 67.1427 100.1L69.7947 98.5586C69.928 98.4813 69.9933 98.3813 69.9933 98.2786Z" fill="#E2E2ED"/>
<path d="M65.8386 100.693V100.383H65.5826L62.968 98.8733C62.7 98.7187 62.268 98.72 62.0026 98.8733L59.38 100.397H59.152V100.693V100.712H59.156C59.164 100.808 59.228 100.901 59.3533 100.973L62.0213 102.515C62.2906 102.669 62.724 102.669 62.988 102.515L65.64 100.973C65.7733 100.896 65.84 100.795 65.8386 100.693Z" fill="#E2E2ED"/>
<path d="M61.684 103.108V102.796L61.428 102.797L58.8133 101.288C58.5453 101.132 58.1133 101.133 57.848 101.288L55.2253 102.812H54.9973V103.108V103.127H55.0013C55.0093 103.221 55.0733 103.315 55.1986 103.388L57.8667 104.928C58.1347 105.083 58.5693 105.083 58.8347 104.929L61.4853 103.388C61.6187 103.311 61.684 103.209 61.684 103.108Z" fill="#E2E2ED"/>
<path d="M57.528 105.521V105.211L57.2733 105.212L54.6587 103.703C54.3907 103.548 53.9587 103.548 53.6933 103.703L51.0707 105.227H50.8427V105.523V105.541H50.8467C50.8533 105.636 50.9187 105.731 51.044 105.803L53.712 107.343C53.98 107.497 54.4133 107.497 54.68 107.344L57.332 105.803C57.464 105.725 57.5293 105.624 57.528 105.521Z" fill="#E2E2ED"/>
<path d="M53.3733 107.936V107.625L53.1187 107.627L50.504 106.116C50.236 105.961 49.8027 105.963 49.5387 106.116L46.916 107.641H46.688V107.937V107.956H46.6907C46.6987 108.051 46.764 108.144 46.8893 108.217L49.5573 109.757C49.8253 109.912 50.26 109.912 50.524 109.759L53.1773 108.217C53.3093 108.14 53.3747 108.039 53.3733 107.936Z" fill="#E2E2ED"/>
<path d="M49.22 110.023L48.9586 110.036L46.3506 108.531C46.0813 108.376 45.6493 108.376 45.3826 108.531L42.1546 110.407L41.892 110.421L41.8946 110.705V110.744V110.76H41.8973L42.092 111.004L44.76 112.544C45.028 112.7 45.4613 112.7 45.7293 112.544L49.02 110.632C49.16 110.551 49.224 110.444 49.2173 110.337H49.22V110.023Z" fill="#E2E2ED"/>
<path d="M69.7733 78.8893V78.588L69.52 78.5893L66.9053 77.0787C66.704 76.9627 66.4093 76.9346 66.1626 76.9933L65.9373 77.08L63.3146 78.604H63.0867V78.736L44.6266 89.4653H44.6253L42.0027 90.9893L41.7747 90.9906V91.2853V91.3053L41.7786 91.304L41.7813 91.3147L41.7946 91.372L41.8013 91.388L41.832 91.4413L41.8573 91.4706L41.892 91.5067L41.9747 91.564L41.976 91.5653L44.644 93.1053L44.8707 93.1933L45.128 93.2226C45.304 93.2226 45.4786 93.184 45.612 93.1067L48.2626 91.5653L69.5747 79.18C69.7133 79.1 69.7787 78.9946 69.7733 78.8893Z" fill="#E2E2ED"/>
<path d="M100.667 83.0453V82.7426L100.495 82.7827L100.463 82.76L99.7453 82.3466C99.4773 82.192 99.0453 82.1906 98.7787 82.3453L96.3253 83.7706L95.9307 83.8653L95.9333 84.1813C95.94 84.2773 96.0067 84.372 96.1333 84.4453L96.8507 84.86C97.12 85.0146 97.552 85.016 97.8187 84.8613L100.468 83.3213C100.599 83.2453 100.664 83.148 100.667 83.048V83.0453Z" fill="#E2E2ED"/>
<path d="M96.512 85.4599V85.1573L96.34 85.1973L96.3093 85.176L95.5906 84.7599C95.3226 84.6053 94.8906 84.6053 94.624 84.7599L92.172 86.1853L91.776 86.2786L91.7787 86.5946C91.7853 86.6906 91.8507 86.7866 91.9787 86.8599L92.696 87.2746C92.964 87.4306 93.3973 87.4306 93.664 87.276L96.3133 85.736C96.444 85.66 96.5093 85.5613 96.512 85.4626V85.4599Z" fill="#E2E2ED"/>
<path d="M92.356 87.8747V87.572L92.1853 87.612L92.1546 87.5906L91.436 87.176C91.168 87.02 90.736 87.0187 90.4693 87.1733L88.0173 88.6L87.6213 88.6933L87.624 89.0093C87.6306 89.1053 87.696 89.2 87.824 89.2747L88.5427 89.6893C88.8107 89.844 89.2413 89.8453 89.5093 89.6906L92.16 88.1493C92.2906 88.0747 92.3533 87.976 92.356 87.8773V87.8747Z" fill="#E2E2ED"/>
<path d="M88.2013 90.2893V89.9853L88.0307 90.0267L88 90.004L87.2813 89.5893C87.0133 89.4346 86.5813 89.4333 86.3147 89.588L83.8613 91.0147L83.4653 91.108L83.468 91.424C83.476 91.52 83.5413 91.616 83.6693 91.6893L84.388 92.104C84.656 92.2587 85.088 92.26 85.3533 92.104L88.0053 90.564C88.1347 90.4893 88.1987 90.3907 88.2013 90.292V90.2907V90.2893Z" fill="#E2E2ED"/>
<path d="M84.048 92.704V92.4L83.876 92.44L83.8454 92.4186L83.128 92.004C82.8587 91.8493 82.4267 91.848 82.16 92.0027L79.7067 93.428L79.3107 93.5226L79.3133 93.8387C79.3213 93.9347 79.3867 94.0293 79.5147 94.104L80.2333 94.5173C80.5013 94.6733 80.9333 94.6733 81.2 94.5186L83.8507 92.9787C83.98 92.9027 84.0454 92.8053 84.0467 92.7053H84.048V92.704Z" fill="#E2E2ED"/>
<path d="M79.8933 95.1186V94.8147L79.7213 94.8546L79.6893 94.8333L78.972 94.4186C78.704 94.264 78.272 94.2626 78.0053 94.4173L75.552 95.8427L75.156 95.9373L75.16 96.2533C75.1667 96.3493 75.2333 96.444 75.36 96.5173L76.0773 96.932C76.3467 97.088 76.7787 97.088 77.0453 96.9333L79.6947 95.3933C79.8253 95.3186 79.8907 95.22 79.892 95.1213L79.8933 95.12V95.1186Z" fill="#E2E2ED"/>
<path d="M75.7387 97.532V97.228L75.5667 97.2693L75.536 97.248L74.8173 96.8333C74.5493 96.6787 74.1173 96.6773 73.8507 96.832L71.3973 98.2573L71.0027 98.3507L71.0053 98.668C71.012 98.764 71.0773 98.8587 71.2053 98.932L71.9227 99.348C72.1907 99.5027 72.624 99.5027 72.8907 99.348L75.54 97.808C75.6707 97.732 75.736 97.6333 75.7387 97.5347V97.532Z" fill="#E2E2ED"/>
<path d="M71.5827 99.9467V99.6426L71.4107 99.684L71.3813 99.6626L70.6627 99.248C70.3947 99.0933 69.9613 99.092 69.6947 99.2467L67.2427 100.672L66.848 100.765L66.8507 101.081C66.8573 101.179 66.9227 101.273 67.0507 101.347L67.768 101.761C68.0373 101.916 68.468 101.917 68.736 101.763L71.3867 100.223C71.516 100.147 71.58 100.048 71.5827 99.9493V99.9467Z" fill="#E2E2ED"/>
<path d="M67.428 102.361V102.057L67.2573 102.099L67.2267 102.076L66.508 101.661C66.24 101.507 65.8067 101.507 65.5413 101.661L63.088 103.087L62.692 103.18L62.6947 103.496C62.7027 103.593 62.768 103.688 62.896 103.761L63.6147 104.176C63.8827 104.331 64.3147 104.332 64.58 104.176L67.232 102.637C67.3613 102.561 67.4253 102.463 67.428 102.364V102.361Z" fill="#E2E2ED"/>
<path d="M63.2747 104.776V104.472L63.1027 104.512L63.072 104.491L62.3533 104.076C62.084 103.921 61.6533 103.92 61.3867 104.075L58.9333 105.501L58.5373 105.595L58.54 105.911C58.548 106.007 58.6133 106.103 58.74 106.176L59.46 106.591C59.728 106.745 60.16 106.747 60.4253 106.592L63.076 105.051C63.2066 104.976 63.272 104.877 63.2733 104.779H63.2747V104.776Z" fill="#E2E2ED"/>
<path d="M59.12 107.191V106.887L58.948 106.927L58.916 106.905L58.1987 106.491C57.9307 106.336 57.4987 106.335 57.232 106.491L54.7787 107.916L54.3827 108.009L54.3853 108.325C54.3933 108.421 54.46 108.516 54.5853 108.591L55.304 109.005C55.5733 109.16 56.0053 109.161 56.272 109.007L58.9213 107.465C59.052 107.391 59.1173 107.292 59.1187 107.193L59.12 107.192V107.191Z" fill="#E2E2ED"/>
<path d="M54.964 109.604V109.301L54.7933 109.343L54.7613 109.32L54.044 108.905C53.776 108.749 53.344 108.749 53.076 108.905L50.624 110.329L50.2293 110.424L50.232 110.74C50.2386 110.836 50.304 110.931 50.432 111.005L51.1493 111.42C51.4173 111.575 51.8506 111.575 52.1173 111.42L54.7666 109.881C54.8973 109.804 54.9613 109.705 54.964 109.607V109.604Z" fill="#E2E2ED"/>
<path d="M50.8093 112.019V111.716L50.6373 111.756L50.608 111.735L49.8893 111.32C49.6213 111.165 49.188 111.164 48.9213 111.319L46.4693 112.744L46.0733 112.839L46.076 113.155C46.0827 113.249 46.1493 113.345 46.2773 113.419L46.9947 113.833C47.2627 113.988 47.6947 113.991 47.9613 113.835L50.612 112.295C50.7413 112.219 50.8067 112.121 50.8093 112.021V112.019Z" fill="#E2E2ED"/>
<path d="M99.0186 76.2333L98.832 76.2627L98.8186 76.2533L96.1493 74.712C95.8827 74.5587 95.4493 74.5587 95.184 74.712L90.256 77.576L89.988 77.6173V77.8933L89.9866 77.8987L89.988 77.9107H89.9893C89.9946 78.008 90.06 78.104 90.1866 78.1773L92.856 79.7187C93.124 79.872 93.5573 79.872 93.8226 79.7187L98.8213 76.8134C98.956 76.736 99.02 76.6333 99.0186 76.532V76.2333Z" fill="#E2E2ED"/>
<path d="M94.8107 73.7933L94.628 73.836L94.6093 73.824L91.9427 72.2827C91.6733 72.128 91.24 72.128 90.9747 72.2827L84.0546 76.304L83.7 76.3866V76.6813L83.7013 76.68C83.704 76.78 83.7707 76.8786 83.904 76.9546L86.5707 78.4946C86.8387 78.6493 87.2707 78.648 87.536 78.4946L94.6133 74.3827C94.7453 74.3053 94.812 74.2027 94.8107 74.1V73.7933Z" fill="#E2E2ED"/>
<path d="M90.5733 71.3467L90.3906 71.3893L90.3706 71.376L87.704 69.836C87.436 69.6813 87.0013 69.6813 86.7373 69.8347L79.816 73.8573L79.4613 73.94V74.2333H79.4626C79.4653 74.3333 79.5333 74.432 79.6653 74.508L82.332 76.048C82.6 76.2027 83.032 76.2027 83.2973 76.048L90.3747 71.936C90.508 71.8573 90.5733 71.756 90.5733 71.6547V71.3467Z" fill="#E2E2ED"/>
<path d="M46.816 106.565L46.6227 106.596L46.616 106.591L43.9466 105.049C43.68 104.896 43.2453 104.896 42.9786 105.051L37.9653 107.964L37.6826 108.009V108.291V108.296V108.309H37.684C37.692 108.405 37.7573 108.5 37.884 108.573L40.5533 110.115C40.82 110.269 41.2506 110.269 41.5173 110.115L46.6173 107.152C46.7506 107.073 46.8173 106.971 46.816 106.869V106.868V106.565Z" fill="#E2E2ED"/>
<path d="M44.484 102.953L41.816 101.413C41.548 101.259 41.1133 101.259 40.848 101.413L33.6707 105.583C33.4053 105.739 33.4066 105.988 33.676 106.143L36.344 107.684C36.612 107.839 37.0413 107.839 37.308 107.684L44.4853 103.513C44.7507 103.359 44.752 103.108 44.484 102.953Z" fill="#E2E2ED"/>
<path d="M35.996 98.5347V98.2307L35.8253 98.272L35.7946 98.2494L35.0747 97.836C34.8067 97.6813 34.3746 97.6787 34.1093 97.8347L31.656 99.26L31.26 99.3533L31.2626 99.6693C31.2706 99.7653 31.336 99.8613 31.4626 99.9347L32.1827 100.349C32.4507 100.504 32.8827 100.505 33.148 100.351L35.7987 98.8094C35.9293 98.7347 35.9933 98.636 35.996 98.5373V98.5347Z" fill="#E2E2ED"/>
<path d="M34.0467 97.4093V97.1053L33.8747 97.1467L33.8453 97.124L33.1267 96.7093C32.8573 96.5547 32.4253 96.5533 32.1587 96.7093L29.7067 98.1347L29.3107 98.228L29.3133 98.544C29.3213 98.64 29.3867 98.736 29.5147 98.8093L30.232 99.224C30.5013 99.3786 30.932 99.38 31.1987 99.2253L33.8507 97.684C33.9787 97.6093 34.044 97.5107 34.0467 97.412V97.4093Z" fill="#E2E2ED"/>
<path d="M105.461 80.2413H105.463V79.924L105.271 79.98L105.261 79.9733L104.543 79.5587C104.275 79.4027 103.843 79.4027 103.576 79.5573L100.52 81.3333L100.085 81.4573V81.784L100.091 81.7827L100.288 82.032L101.005 82.4467C101.275 82.6013 101.708 82.6013 101.972 82.448L105.267 80.5333C105.405 80.452 105.468 80.3467 105.461 80.2413Z" fill="#E2E2ED"/>
<path d="M96.7467 78.9906L99.4147 80.5307C99.684 80.6853 100.115 80.684 100.38 80.5307L103.032 78.9893C103.296 78.8346 103.296 78.5853 103.028 78.4307L100.36 76.8893C100.092 76.7346 99.6587 76.7346 99.3947 76.888L96.7413 78.4307C96.4773 78.5827 96.4787 78.8346 96.7467 78.9906Z" fill="#F1F2F8"/>
<path d="M92.592 81.4053L95.26 82.944C95.528 83.0987 95.9613 83.0987 96.2253 82.944L98.8773 81.4027C99.1413 81.2493 99.1427 80.9987 98.8733 80.844L96.2067 79.304C95.9387 79.1493 95.504 79.1493 95.24 79.3027L92.5866 80.844C92.3226 80.9987 92.324 81.2493 92.592 81.4053Z" fill="#F1F2F8"/>
<path d="M88.4373 83.8186L91.1053 85.3586C91.3733 85.5146 91.8053 85.5133 92.0706 85.3586L94.7226 83.8186C94.9866 83.664 94.988 83.4133 94.72 83.2586L92.052 81.7186C91.784 81.564 91.3493 81.564 91.084 81.7173L88.432 83.2586C88.168 83.412 88.1693 83.664 88.4373 83.8186Z" fill="#F1F2F8"/>
<path d="M84.2827 86.2333L86.9506 87.7733C87.2186 87.928 87.6506 87.9266 87.9173 87.772L90.568 86.232C90.8333 86.0786 90.8333 85.828 90.5653 85.6733L87.8973 84.1333C87.628 83.9786 87.1947 83.9786 86.9293 84.132L84.28 85.672C84.0133 85.8266 84.0147 86.0786 84.2827 86.2333Z" fill="#F1F2F8"/>
<path d="M80.128 88.648L82.7947 90.1879C83.064 90.3426 83.496 90.3426 83.7627 90.1866L86.412 88.6466C86.6787 88.4933 86.6787 88.2426 86.4094 88.0879L83.7414 86.548C83.4734 86.392 83.04 86.392 82.7747 86.5466L80.1253 88.0866C79.8573 88.2413 79.8587 88.4933 80.128 88.648Z" fill="#F1F2F8"/>
<path d="M75.9733 91.0613L78.64 92.6026C78.9093 92.7573 79.3413 92.756 79.608 92.6013L82.2587 91.0613C82.524 90.9066 82.5227 90.6573 82.2547 90.5026L79.5867 88.9613C79.3187 88.8066 78.8867 88.8053 78.6213 88.96L75.9693 90.5013C75.7027 90.656 75.704 90.9066 75.9733 91.0613Z" fill="#F1F2F8"/>
<path d="M71.8186 93.476L74.4866 95.0173C74.7546 95.172 75.1853 95.1707 75.4533 95.016L78.104 93.476C78.3693 93.3213 78.368 93.072 78.1 92.916L75.4333 91.376C75.164 91.2213 74.7333 91.22 74.4653 91.376L71.8146 92.916C71.5493 93.0707 71.5506 93.3213 71.8186 93.476Z" fill="#F1F2F8"/>
<path d="M67.6653 95.8907L70.3333 97.4307C70.6013 97.5853 71.032 97.5853 71.2973 97.4307L73.9493 95.8907C74.216 95.736 74.2147 95.4853 73.9453 95.3307L71.2787 93.7907C71.0107 93.636 70.5773 93.6347 70.3107 93.7907L67.6613 95.3293C67.3947 95.4853 67.3973 95.736 67.6653 95.8907Z" fill="#F1F2F8"/>
<path d="M63.512 98.304L66.1786 99.8453C66.4466 100 66.8773 100 67.144 99.8453L69.7946 98.304C70.0613 98.1493 70.06 97.9 69.792 97.7453L67.124 96.2053C66.8546 96.0507 66.4226 96.0493 66.156 96.204L63.5066 97.744C63.24 97.9 63.2413 98.1493 63.512 98.304Z" fill="#F1F2F8"/>
<path d="M59.356 100.719L62.0227 102.26C62.2933 102.415 62.7227 102.415 62.9893 102.26L65.6387 100.719C65.9067 100.564 65.9053 100.315 65.636 100.16L62.968 98.62C62.7 98.4653 62.268 98.464 62.0013 98.6187L59.3506 100.16C59.084 100.315 59.088 100.564 59.356 100.719Z" fill="#F1F2F8"/>
<path d="M55.2013 103.133L57.8693 104.673C58.1373 104.828 58.568 104.828 58.8347 104.673L61.484 103.133C61.7507 102.979 61.7493 102.729 61.4813 102.575L58.8133 101.033C58.5453 100.879 58.1133 100.879 57.8467 101.033L55.196 102.573C54.9293 102.728 54.9333 102.979 55.2013 103.133Z" fill="#F1F2F8"/>
<path d="M81.9067 82.7693L84.5747 84.3093C84.844 84.464 85.276 84.4627 85.54 84.3093L88.192 82.768C88.4587 82.6133 88.4587 82.364 88.1893 82.2093L85.5213 80.668C85.2533 80.5133 84.82 80.5133 84.5547 80.668L81.904 82.2093C81.6373 82.3627 81.6387 82.6133 81.9067 82.7693Z" fill="#F1F2F8"/>
<path d="M77.7533 85.1826L80.42 86.724C80.688 86.8786 81.1213 86.8773 81.3867 86.724L84.0373 85.1813C84.3027 85.028 84.3027 84.7786 84.0347 84.624L81.3667 83.0826C81.0987 82.928 80.6653 82.928 80.4013 83.0813L77.748 84.624C77.4827 84.7773 77.484 85.028 77.7533 85.1826Z" fill="#F1F2F8"/>
<path d="M73.5987 87.5973L76.2653 89.1373C76.5347 89.2933 76.9653 89.292 77.2333 89.1373L79.884 87.5973C80.148 87.4426 80.148 87.192 79.88 87.0373L77.2133 85.4973C76.944 85.3426 76.5107 85.3426 76.2453 85.496L73.5947 87.0373C73.3293 87.192 73.3307 87.4426 73.5987 87.5973Z" fill="#F1F2F8"/>
<path d="M69.444 90.012L72.112 91.552C72.38 91.7066 72.812 91.7053 73.0773 91.5506L75.7293 90.012C75.9933 89.8573 75.9947 89.6066 75.7253 89.452L73.0587 87.912C72.7907 87.7573 72.3547 87.7573 72.0907 87.9107L69.4413 89.4506C69.1747 89.6053 69.176 89.8573 69.444 90.012Z" fill="#F1F2F8"/>
<path d="M65.2893 92.4266L67.9573 93.9666C68.2253 94.1213 68.6573 94.1213 68.924 93.9653L71.5733 92.4253C71.8413 92.2706 71.84 92.0213 71.572 91.8666L68.904 90.3266C68.6347 90.172 68.2027 90.1706 67.936 90.3253L65.2867 91.8653C65.0187 92.02 65.02 92.272 65.2893 92.4266Z" fill="#F1F2F8"/>
<path d="M61.1333 94.84L63.8013 96.3814C64.0707 96.536 64.5027 96.536 64.7693 96.3814L67.4187 94.84C67.6853 94.6853 67.684 94.436 67.416 94.2814L64.748 92.74C64.48 92.5853 64.048 92.5853 63.7813 92.74L61.1307 94.28C60.864 94.4347 60.8653 94.6853 61.1333 94.84Z" fill="#F1F2F8"/>
<path d="M56.9813 97.2547L59.6493 98.7947C59.9173 98.9493 60.348 98.9493 60.6147 98.7947L63.264 97.2547C63.5307 97.0987 63.5293 96.8507 63.2613 96.696L60.5933 95.1547C60.3253 95 59.8933 94.9987 59.6267 95.1547L56.976 96.6947C56.7093 96.8493 56.7133 97.0987 56.9813 97.2547Z" fill="#F1F2F8"/>
<path d="M52.8267 99.6693L55.4947 101.209C55.7627 101.364 56.192 101.364 56.46 101.209L59.1107 99.6693C59.376 99.5147 59.3747 99.264 59.1067 99.1094L56.4387 97.5693C56.1707 97.4147 55.7387 97.4133 55.472 97.5693L52.8213 99.1094C52.5547 99.264 52.5587 99.5147 52.8267 99.6693Z" fill="#F1F2F8"/>
<path d="M48.672 102.083L51.34 103.624C51.608 103.779 52.0373 103.779 52.304 103.624L54.956 102.083C55.2213 101.928 55.22 101.679 54.952 101.524L52.2853 99.984C52.016 99.8293 51.584 99.828 51.3173 99.9827L48.6666 101.523C48.4013 101.679 48.404 101.928 48.672 102.083Z" fill="#F1F2F8"/>
<path d="M44.5173 104.497L47.184 106.039C47.4533 106.193 47.884 106.193 48.1493 106.039L50.8 104.497C51.068 104.343 51.0667 104.093 50.796 103.939L48.1293 102.399C47.8613 102.244 47.4293 102.243 47.1627 102.397L44.5133 103.937C44.2453 104.093 44.248 104.343 44.5173 104.497Z" fill="#F1F2F8"/>
<path d="M51.0467 105.548L53.7147 107.088C53.9827 107.243 54.412 107.243 54.68 107.088L57.3307 105.548C57.596 105.393 57.5973 105.143 57.3293 104.988L54.6613 103.448C54.3933 103.293 53.9586 103.293 53.692 103.448L51.0413 104.988C50.7747 105.143 50.7787 105.393 51.0467 105.548Z" fill="#F1F2F8"/>
<path d="M46.892 107.963L49.56 109.503C49.828 109.657 50.26 109.657 50.524 109.503L53.176 107.963C53.4427 107.808 53.4427 107.557 53.1747 107.403L50.5067 105.863C50.2387 105.707 49.804 105.707 49.5373 105.863L46.8867 107.403C46.6227 107.556 46.624 107.808 46.892 107.963Z" fill="#F1F2F8"/>
<path d="M79.908 69.2693L82.576 70.8094C82.8427 70.9627 83.2773 70.9627 83.5413 70.8094L86.1933 69.2667C86.4587 69.1133 86.4573 68.8627 86.1893 68.708L83.5226 67.168C83.2546 67.0133 82.82 67.0133 82.556 67.1667L79.904 68.708C79.6387 68.8627 79.64 69.1133 79.908 69.2693Z" fill="#F1F2F8"/>
<path d="M75.7533 71.6827L78.4213 73.2227C78.688 73.3773 79.1227 73.3773 79.3867 73.2227L82.0387 71.6814C82.3027 71.528 82.3013 71.276 82.036 71.1227L79.368 69.5827C79.1 69.4267 78.6667 69.4267 78.4013 69.5814L75.748 71.1227C75.484 71.276 75.4853 71.528 75.7533 71.6827Z" fill="#F1F2F8"/>
<path d="M71.5987 74.0973L74.2667 75.6373C74.5333 75.7906 74.9667 75.7906 75.232 75.6373L77.884 74.096C78.1493 73.9426 78.148 73.6906 77.8813 73.5373L75.2133 71.9973C74.9453 71.8426 74.512 71.8426 74.2453 71.996L71.5947 73.5373C71.3293 73.6906 71.3307 73.9426 71.5987 74.0973Z" fill="#F1F2F8"/>
<path d="M67.4453 76.512L70.112 78.052C70.3786 78.2053 70.812 78.2053 71.0786 78.0506L73.7293 76.5107C73.9946 76.3573 73.9933 76.1053 73.7266 75.952L71.0586 74.412C70.7906 74.2573 70.356 74.2573 70.092 74.4107L67.4413 75.9506C67.1747 76.1053 67.176 76.3573 67.4453 76.512Z" fill="#F1F2F8"/>
<path d="M86.0627 80.3546L88.7307 81.8946C88.9987 82.0493 89.4306 82.0479 89.6946 81.8946L92.348 80.3533C92.6133 80.1999 92.6133 79.9493 92.3453 79.7933L89.6773 78.2546C89.408 78.0986 88.9747 78.0986 88.7093 78.2533L86.0573 79.7933C85.7933 79.9479 85.7947 80.1999 86.0627 80.3546Z" fill="#F1F2F8"/>
<path d="M42.0933 110.751L44.7613 112.291C45.0293 112.445 45.4613 112.445 45.7293 112.291L49.02 110.376C49.288 110.221 49.288 109.972 49.0186 109.816L46.3506 108.276C46.0826 108.121 45.6493 108.121 45.3826 108.276L42.0907 110.189C41.824 110.345 41.8253 110.596 42.0933 110.751Z" fill="#F1F2F8"/>
<path d="M41.9747 91.3133L44.6426 92.8533C44.9093 93.0066 45.344 93.0066 45.6107 92.8519L69.5747 78.9253C69.84 78.7706 69.8387 78.52 69.572 78.3666L66.904 76.8266C66.6347 76.6706 66.2013 76.6706 65.9373 76.8253L41.972 90.7519C41.7053 90.9066 41.7067 91.1573 41.9747 91.3133Z" fill="#F1F2F8"/>
<path d="M96.132 84.192L96.8506 84.6067C97.12 84.7614 97.5506 84.7614 97.8173 84.6067L100.468 83.0667C100.735 82.912 100.732 82.6614 100.463 82.5067L99.744 82.092C99.476 81.9373 99.044 81.936 98.7786 82.092L96.128 83.6307C95.86 83.7854 95.864 84.0373 96.132 84.192Z" fill="#F1F2F8"/>
<path d="M91.9773 86.6053L92.696 87.02C92.964 87.176 93.3973 87.176 93.6627 87.0213L96.3133 85.4813C96.58 85.3266 96.576 85.076 96.308 84.9213L95.5907 84.5066C95.3213 84.352 94.8907 84.3506 94.624 84.5053L91.972 86.0453C91.7067 86.2 91.7093 86.4506 91.9773 86.6053Z" fill="#F1F2F8"/>
<path d="M87.8227 89.02L88.5413 89.436C88.8093 89.5906 89.2413 89.592 89.5093 89.436L92.1587 87.896C92.4253 87.7413 92.424 87.4906 92.156 87.3346L91.4373 86.92C91.1693 86.7653 90.736 86.7653 90.468 86.92L87.8187 88.46C87.552 88.616 87.5547 88.8653 87.8227 89.02Z" fill="#F1F2F8"/>
<path d="M83.6693 91.436L84.3866 91.8493C84.6546 92.0053 85.0866 92.0053 85.3533 91.8506L88.004 90.3093C88.2707 90.1547 88.2693 89.904 88.0013 89.7493L87.2827 89.3347C87.0147 89.18 86.58 89.18 86.3133 89.3347L83.664 90.8747C83.3973 91.0293 83.4 91.28 83.6693 91.436Z" fill="#F1F2F8"/>
<path d="M79.5146 93.8493L80.232 94.264C80.5 94.4187 80.9346 94.4187 81.1986 94.2653L83.8493 92.7253C84.116 92.5693 84.1147 92.3187 83.8467 92.164L83.128 91.7493C82.8586 91.5933 82.4253 91.5933 82.1586 91.7493L79.5093 93.2893C79.244 93.4427 79.2453 93.6947 79.5146 93.8493Z" fill="#F1F2F8"/>
<path d="M75.3587 96.264L76.076 96.6787C76.3467 96.8333 76.78 96.8333 77.044 96.6787L79.6947 95.14C79.9613 94.9853 79.96 94.7333 79.6907 94.5787L78.9733 94.164C78.704 94.0093 78.2707 94.0093 78.0053 94.164L75.3533 95.704C75.0893 95.8573 75.0907 96.1093 75.3587 96.264Z" fill="#F1F2F8"/>
<path d="M71.204 98.6787L71.9227 99.0933C72.1907 99.248 72.6253 99.248 72.8893 99.0933L75.54 97.5533C75.8067 97.3987 75.804 97.148 75.536 96.9933L74.8187 96.5773C74.5507 96.4227 74.116 96.4227 73.8507 96.5773L71.1987 98.1187C70.9347 98.272 70.936 98.524 71.204 98.6787Z" fill="#F1F2F8"/>
<path d="M67.0493 101.093L67.768 101.507C68.036 101.663 68.4693 101.663 68.7346 101.509L71.3867 99.9667C71.652 99.8133 71.6506 99.5613 71.3813 99.4067L70.664 98.9933C70.396 98.8373 69.9613 98.8373 69.696 98.9906L67.044 100.533C66.78 100.687 66.7813 100.937 67.0493 101.093Z" fill="#F1F2F8"/>
<path d="M62.8947 103.507L63.6133 103.921C63.8813 104.077 64.3147 104.077 64.58 103.923L67.232 102.381C67.4973 102.228 67.496 101.976 67.228 101.821L66.5093 101.407C66.24 101.252 65.8067 101.252 65.5413 101.405L62.8907 102.947C62.6253 103.101 62.6267 103.352 62.8947 103.507Z" fill="#F1F2F8"/>
<path d="M58.74 105.921L59.4586 106.336C59.7266 106.491 60.16 106.491 60.4253 106.337L63.0773 104.796C63.3426 104.643 63.3413 104.391 63.0733 104.236L62.3533 103.821C62.0853 103.667 61.652 103.667 61.388 103.821L58.736 105.361C58.4693 105.515 58.4707 105.767 58.74 105.921Z" fill="#F1F2F8"/>
<path d="M54.5853 108.336L55.3027 108.751C55.572 108.905 56.0067 108.905 56.2707 108.752L58.9227 107.211C59.1867 107.057 59.1853 106.805 58.9173 106.651L58.1987 106.236C57.9307 106.081 57.4973 106.081 57.2333 106.235L54.58 107.776C54.316 107.931 54.3173 108.181 54.5853 108.336Z" fill="#F1F2F8"/>
<path d="M50.4306 110.751L51.148 111.165C51.4173 111.32 51.8506 111.32 52.116 111.167L54.768 109.625C55.032 109.471 55.0306 109.22 54.7626 109.064L54.0453 108.649C53.776 108.495 53.3426 108.495 53.0773 108.649L50.4253 110.191C50.1613 110.345 50.1626 110.596 50.4306 110.751Z" fill="#F1F2F8"/>
<path d="M46.276 113.165L46.9947 113.58C47.2627 113.735 47.696 113.735 47.9627 113.58L50.6133 112.039C50.8787 111.885 50.876 111.635 50.608 111.48L49.8907 111.064C49.6227 110.909 49.188 110.909 48.9227 111.064L46.2733 112.604C46.0067 112.759 46.008 113.009 46.276 113.165Z" fill="#F1F2F8"/>
<path d="M100.288 81.7773L101.005 82.192C101.275 82.3466 101.705 82.348 101.972 82.1933L105.267 80.2786C105.531 80.124 105.529 79.8733 105.261 79.7186L104.543 79.304C104.275 79.1493 103.841 79.1493 103.575 79.3026L100.283 81.2173C100.016 81.372 100.019 81.6213 100.288 81.7773Z" fill="#F1F2F8"/>
<path d="M90.188 77.9227L92.8573 79.464C93.1253 79.6187 93.5586 79.6187 93.8226 79.464L98.8226 76.5587C99.0866 76.4053 99.0853 76.1533 98.82 76L96.1493 74.4587C95.884 74.304 95.4506 74.304 95.184 74.4587L90.184 77.364C89.92 77.5173 89.9213 77.7693 90.188 77.9227Z" fill="#F1F2F8"/>
<path d="M83.9026 76.7L86.5706 78.24C86.8386 78.3946 87.272 78.3946 87.536 78.2413L94.6133 74.128C94.8786 73.9746 94.8773 73.724 94.6093 73.5693L91.9413 72.028C91.6733 71.8733 91.24 71.8746 90.976 72.028L83.8986 76.1413C83.6333 76.2946 83.6333 76.5453 83.9026 76.7Z" fill="#F1F2F8"/>
<path d="M79.664 74.2533L82.3333 75.7946C82.6 75.948 83.0333 75.948 83.2973 75.7946L90.376 71.6813C90.64 71.528 90.6387 71.276 90.372 71.1226L87.7027 69.5813C87.436 69.4267 87.0027 69.4267 86.7387 69.5813L79.6613 73.6946C79.396 73.848 79.3973 74.0986 79.664 74.2533Z" fill="#F1F2F8"/>
<path d="M37.8827 108.319L40.5533 109.861C40.8187 110.015 41.252 110.015 41.5187 109.86L46.6187 106.897C46.8853 106.741 46.8813 106.491 46.616 106.337L43.9466 104.796C43.68 104.643 43.2466 104.641 42.98 104.796L37.8813 107.76C37.616 107.915 37.6173 108.165 37.8827 108.319Z" fill="#F1F2F8"/>
<path d="M33.6747 105.889L36.3427 107.429C36.6107 107.584 37.044 107.584 37.3107 107.429L44.4867 103.26C44.7533 103.104 44.7493 102.853 44.4813 102.699L41.8133 101.16C41.5453 101.004 41.116 101.004 40.8493 101.16L33.6733 105.329C33.4067 105.484 33.4067 105.735 33.6747 105.889Z" fill="#F1F2F8"/>
<path d="M31.4613 99.6787L32.1813 100.095C32.448 100.249 32.88 100.249 33.1453 100.095L35.796 98.5546C36.064 98.4 36.06 98.1493 35.7933 97.996L35.0733 97.58C34.804 97.4253 34.3747 97.4253 34.108 97.58L31.4587 99.12C31.1907 99.276 31.192 99.524 31.4613 99.6787Z" fill="#F1F2F8"/>
<path d="M29.5133 98.5546L30.232 98.9693C30.5 99.124 30.932 99.1267 31.1987 98.9707L33.8493 97.4307C34.116 97.276 34.112 97.0253 33.844 96.8707L33.1267 96.456C32.8573 96.3013 32.4253 96.3 32.1587 96.4546L29.5093 97.9946C29.2413 98.1493 29.244 98.4 29.5133 98.5546Z" fill="#F1F2F8"/>
<path d="M46.512 98.4293L49.1787 99.9693C49.448 100.124 49.8787 100.125 50.1453 99.9706L52.796 98.4306C53.0627 98.276 53.06 98.0253 52.792 97.8706L50.124 96.3293C49.8547 96.1746 49.4253 96.1746 49.1587 96.3293L46.508 97.8706C46.2413 98.0253 46.2427 98.2746 46.512 98.4293Z" fill="#F1F2F8"/>
<path d="M42.356 100.844L45.024 102.384C45.2933 102.539 45.7253 102.54 45.9907 102.385L48.6413 100.845C48.908 100.689 48.9053 100.44 48.636 100.285L45.968 98.744C45.7 98.5893 45.2707 98.5893 45.004 98.744L42.352 100.285C42.0867 100.44 42.088 100.689 42.356 100.844Z" fill="#F1F2F8"/>
<path d="M42.2733 95.9827L44.9426 97.524C45.2093 97.6773 45.6413 97.6786 45.9067 97.524L48.5586 95.9827C48.8253 95.828 48.8213 95.5786 48.5546 95.424L45.8853 93.8827C45.6186 93.7293 45.1866 93.728 44.92 93.8827L42.2693 95.424C42.004 95.5786 42.0067 95.828 42.2733 95.9827Z" fill="#F1F2F8"/>
<path d="M38.1186 98.3973L40.788 99.9373C41.0546 100.092 41.4866 100.093 41.752 99.9373L44.404 98.3973C44.6706 98.2426 44.6666 97.9933 44.4 97.8386L41.7306 96.2973C41.464 96.1426 41.032 96.1426 40.7653 96.2973L38.116 97.8373C37.8493 97.9933 37.8506 98.2426 38.1186 98.3973Z" fill="#F1F2F8"/>
<path d="M33.9626 100.812L36.632 102.352C36.9 102.507 37.332 102.507 37.5986 102.352L40.248 100.812C40.516 100.657 40.512 100.407 40.2453 100.253L37.576 98.712C37.3093 98.5587 36.8773 98.5573 36.6106 98.712L33.9613 100.252C33.6933 100.407 33.696 100.657 33.9626 100.812Z" fill="#F1F2F8"/>
<path d="M29.436 103.443L32.1053 104.984C32.372 105.137 32.8053 105.137 33.0733 104.983L36.0933 103.227C36.36 103.072 36.3573 102.821 36.0907 102.668L33.4213 101.127C33.1547 100.972 32.7227 100.972 32.456 101.127L29.4347 102.883C29.168 103.037 29.1693 103.288 29.436 103.443Z" fill="#F1F2F8"/>
<path d="M54.82 93.6L57.488 95.14C57.756 95.2947 58.188 95.296 58.456 95.1413L61.1053 93.6013C61.372 93.4467 61.3693 93.196 61.1 93.0413L58.4333 91.5013C58.1653 91.3453 57.7347 91.3453 57.4667 91.5013L54.8173 93.0413C54.5507 93.196 54.552 93.4453 54.82 93.6Z" fill="#F1F2F8"/>
<path d="M50.6667 96.0147L53.3333 97.5546C53.6013 97.7093 54.0333 97.7106 54.3 97.556L56.9507 96.016C57.2173 95.8613 57.2147 95.6106 56.9467 95.4546L54.2787 93.916C54.0107 93.76 53.5787 93.76 53.3133 93.916L50.6627 95.456C50.396 95.6106 50.3973 95.86 50.6667 96.0147Z" fill="#F1F2F8"/>
<path d="M50.5813 91.1533L53.252 92.6946C53.5173 92.848 53.9507 92.8493 54.2173 92.6946L56.8667 91.1546C57.1333 91 57.1307 90.7493 56.864 90.5946L54.1947 89.0546C53.928 88.9 53.496 88.9 53.2307 89.0546L50.5787 90.5946C50.312 90.7493 50.316 91 50.5813 91.1533Z" fill="#F1F2F8"/>
<path d="M46.428 93.568L49.0973 95.1093C49.364 95.264 49.7947 95.264 50.0627 95.1093L52.7133 93.5693C52.9787 93.4133 52.976 93.164 52.7093 93.0093L50.04 91.468C49.7733 91.3146 49.3413 91.3133 49.0747 91.468L46.424 93.0093C46.1573 93.164 46.1613 93.4146 46.428 93.568Z" fill="#F1F2F8"/>
<path d="M63.128 88.772L65.7947 90.3134C66.0653 90.468 66.4987 90.468 66.764 90.3134L69.4147 88.772C69.6827 88.6174 69.6787 88.3667 69.4093 88.212L66.7413 86.672C66.4733 86.5174 66.044 86.5174 65.7773 86.672L63.128 88.212C62.86 88.3667 62.86 88.6174 63.128 88.772Z" fill="#F1F2F8"/>
<path d="M58.9733 91.1866L61.6413 92.7266C61.9093 92.8813 62.344 92.8813 62.6106 92.7266L65.26 91.1866C65.5266 91.032 65.5227 90.7813 65.2547 90.6266L62.588 89.0866C62.3187 88.932 61.8893 88.932 61.6227 89.0866L58.972 90.6266C58.7053 90.7813 58.7053 91.032 58.9733 91.1866Z" fill="#F1F2F8"/>
<path d="M58.8907 86.3266L61.56 87.8667C61.8267 88.02 62.26 88.02 62.5267 87.8653L65.1773 86.3266C65.444 86.1706 65.44 85.92 65.1747 85.7667L62.504 84.2253C62.2387 84.072 61.8053 84.0706 61.5387 84.2253L58.8893 85.7653C58.6227 85.92 58.624 86.172 58.8907 86.3266Z" fill="#F1F2F8"/>
<path d="M54.736 88.74L57.4053 90.2813C57.672 90.436 58.1053 90.436 58.372 90.28L61.0213 88.74C61.2893 88.5853 61.2866 88.3347 61.0186 88.1813L58.3506 86.64C58.0826 86.4853 57.6506 86.4853 57.384 86.64L54.7346 88.18C54.4666 88.3347 54.468 88.5867 54.736 88.74Z" fill="#F1F2F8"/>
<path d="M71.4373 83.944L74.1053 85.484C74.3733 85.6386 74.8067 85.6386 75.0733 85.484L77.7253 83.944C77.9907 83.788 77.988 83.5387 77.72 83.3827L75.052 81.8426C74.784 81.688 74.3533 81.688 74.0867 81.8426L71.436 83.3827C71.1707 83.5387 71.1693 83.788 71.4373 83.944Z" fill="#F1F2F8"/>
<path d="M67.2826 86.3573L69.9506 87.8973C70.2186 88.0533 70.6533 88.0533 70.9186 87.8973L73.5706 86.3573C73.8373 86.2026 73.8333 85.952 73.5653 85.7973L70.8973 84.2573C70.628 84.1026 70.1986 84.1026 69.932 84.2573L67.2813 85.7973C67.016 85.952 67.0146 86.204 67.2826 86.3573Z" fill="#F1F2F8"/>
<path d="M67.1986 81.496L69.8693 83.0387C70.1346 83.192 70.5693 83.192 70.836 83.0373L73.4866 81.496C73.7533 81.3413 73.7493 81.092 73.4826 80.9373L70.8133 79.396C70.5466 79.2427 70.116 79.2413 69.8493 79.396L67.1973 80.936C66.932 81.092 66.9333 81.3427 67.1986 81.496Z" fill="#F1F2F8"/>
<path d="M63.0453 83.9107L65.7147 85.452C65.98 85.6066 66.4147 85.6066 66.6813 85.452L69.332 83.9107C69.5987 83.756 69.5947 83.5066 69.328 83.352L66.6587 81.8107C66.3933 81.6573 65.9613 81.656 65.6933 81.8107L63.044 83.3506C62.7773 83.5066 62.7787 83.7573 63.0453 83.9107Z" fill="#F1F2F8"/>
<path d="M79.7466 79.1147L82.4146 80.6547C82.684 80.8093 83.1173 80.8093 83.384 80.6547L86.0333 79.1147C86.2986 78.96 86.2973 78.7093 86.028 78.5547L83.3613 77.0147C83.0933 76.86 82.6613 76.86 82.396 77.0147L79.7453 78.5547C79.4786 78.7093 79.4786 78.96 79.7466 79.1147Z" fill="#F1F2F8"/>
<path d="M75.592 81.5293L78.26 83.0693C78.528 83.224 78.9613 83.224 79.2293 83.0693L81.8786 81.5293C82.1453 81.3733 82.1426 81.124 81.8746 80.9693L79.2066 79.428C78.9386 79.2733 78.508 79.2733 78.2413 79.428L75.5906 80.9693C75.324 81.124 75.324 81.3733 75.592 81.5293Z" fill="#F1F2F8"/>
<path d="M75.5093 76.668L78.1786 78.2093C78.4453 78.3627 78.8786 78.3627 79.1453 78.208L81.7946 76.668C82.0613 76.5147 82.06 76.2627 81.7933 76.108L79.124 74.5667C78.856 74.4133 78.4226 74.4133 78.1586 74.5667L75.508 76.108C75.24 76.2627 75.2413 76.5147 75.5093 76.668Z" fill="#F1F2F8"/>
<path d="M71.3533 79.0827L74.0227 80.624C74.2907 80.7773 74.724 80.7773 74.9907 80.6226L77.6413 79.0827C77.9067 78.9267 77.9053 78.676 77.6373 78.5226L74.968 76.9813C74.7013 76.828 74.2693 76.8267 74.004 76.9813L71.352 78.5213C71.0853 78.6773 71.088 78.928 71.3533 79.0827Z" fill="#F1F2F8"/>
<path d="M37.8213 93.7267L40.488 95.2667C40.7547 95.4213 41.188 95.4213 41.456 95.2667L44.1053 93.7267C44.372 93.572 44.3693 93.3213 44.1027 93.1667L41.4347 91.6267C41.1667 91.472 40.7347 91.4707 40.468 91.6267L37.8173 93.1653C37.5507 93.3213 37.552 93.572 37.8213 93.7267Z" fill="#F1F2F8"/>
<path d="M33.668 96.14L36.336 97.6813C36.6027 97.8347 37.0333 97.836 37.3 97.6813L39.952 96.14C40.2173 95.9853 40.2146 95.736 39.948 95.5813L37.28 94.0413C37.012 93.8866 36.58 93.8853 36.3133 94.04L33.6626 95.58C33.3973 95.736 33.4 95.9853 33.668 96.14Z" fill="#F1F2F8"/>
<path d="M25.256 101.029L27.9227 102.569C28.1893 102.723 28.624 102.723 28.8907 102.568L31.54 101.028C31.8053 100.873 31.804 100.623 31.5373 100.469L28.8693 98.928C28.6013 98.7733 28.168 98.7733 27.904 98.928L25.252 100.468C24.9853 100.623 24.988 100.873 25.256 101.029Z" fill="#F1F2F8"/>
<path d="M30.6973 139.908L48.624 129.559C49.8854 128.829 49.728 127.557 48.2707 126.716L23.9773 112.691C22.52 111.849 20.3174 111.759 19.056 112.488L1.12934 122.837C-0.131994 123.565 0.0253424 124.837 1.48268 125.679L25.776 139.704C27.2333 140.545 29.436 140.636 30.6973 139.908Z" fill="#494B55"/>
<path d="M25.5347 131.327C25.5347 131.327 17.328 126.501 16.616 125.957C14.94 124.676 15.3093 124.007 16.0053 123.092C16.7013 122.176 20.5906 119.44 25.2426 120.285C29.896 121.132 33.8973 126.152 34.2227 127.279C34.548 128.405 34.22 129.247 32.5053 130.167C30.7893 131.087 28.1867 132.561 25.5347 131.327Z" fill="#BBC0D1"/>
<path d="M25.5347 129.84C25.5347 129.84 17.328 125.013 16.616 124.469C14.94 123.188 15.3093 122.519 16.0053 121.604C16.7013 120.688 20.5906 117.952 25.2426 118.799C29.896 119.644 33.8973 124.665 34.2227 125.791C34.548 126.917 34.22 127.76 32.5053 128.679C30.7893 129.599 28.1867 131.072 25.5347 129.84Z" fill="#E0E3F4"/>
<path d="M149.589 108.464L136.433 69.76L125.515 76.072V76.132L125.435 99.436C125.191 99.3866 124.943 99.3506 124.692 99.3266C122.839 99.1186 120.929 99.496 119.264 100.463L101.905 109.947C101.456 110.207 101.108 110.553 100.851 110.945L100.341 110.793L100.328 112.683C100.328 113.747 100.853 114.809 101.905 115.419L119.945 125.828L120.079 125.907C120.856 126.356 121.679 126.697 122.517 126.928L122.62 126.959C122.82 127.013 123.02 127.056 123.216 127.092C123.679 127.196 124.14 127.256 124.608 127.287C126.377 127.421 128.177 127.092 129.819 126.315L130.133 126.163C130.293 126.083 130.451 125.999 130.609 125.907L138.08 121.596L146.476 116.751C147.023 116.435 147.517 116.052 147.948 115.608C148.483 115.067 148.927 114.44 149.255 113.765C149.389 113.499 149.505 113.219 149.596 112.932C149.692 112.647 149.772 112.355 149.827 112.064C150.057 110.896 149.997 109.656 149.589 108.464Z" fill="#BBC0D1"/>
<mask id="mask0_5_2247" style="mask-type:luminance" maskUnits="userSpaceOnUse" x="72" y="0" width="94" height="117">
<path d="M165.372 2.69464L162.323 0.593339C161.824 0.296006 161.084 0.3573 160.228 0.8533L81.2706 46.4386C79.5813 47.4133 78.08 49.688 77.9146 51.5186L72.4453 112.045C72.332 113.3 72.6853 114.173 73.3506 114.587L73.348 114.591L76.244 116.593L79.5306 112.395L152.768 70.1107C155.156 68.732 157.279 65.52 157.512 62.932L162.64 6.18663L165.372 2.69464Z" fill="white"/>
</mask>
<g mask="url(#mask0_5_2247)">
<path d="M165.372 2.69464L162.323 0.593339C161.824 0.296006 161.084 0.3573 160.228 0.8533L81.2706 46.4386C79.5813 47.4133 78.08 49.688 77.9146 51.5186L72.4453 112.045C72.332 113.3 72.6853 114.173 73.3506 114.587L73.348 114.591L76.244 116.593L79.5306 112.395L152.768 70.1107C155.156 68.732 157.279 65.52 157.512 62.932L162.64 6.18663L165.372 2.69464Z" fill="url(#paint0_linear_5_2247)"/>
</g>
<path d="M165.944 4.45201L160.477 64.976C160.24 67.5667 158.12 70.776 155.731 72.1573L79.308 116.283C76.9187 117.663 75.1747 116.679 75.4107 114.093L80.8773 53.564C80.956 52.7067 81.32 51.7586 81.868 50.8893C82.488 49.892 83.3333 49.0053 84.2333 48.488L163.189 2.89602C164.096 2.37336 164.873 2.33066 165.372 2.69466C165.797 2.99999 166.023 3.60801 165.944 4.45201Z" fill="#BBC0D1"/>
<path d="M147.764 106.677L136.688 70.0906L126.072 76.22L124.288 97.8973C122.26 97.5013 120.125 97.8333 118.283 98.8973L101.863 108.377C99.816 109.559 99.816 112.513 101.863 113.695L119.075 123.633C122.244 125.463 126.148 125.463 129.316 123.633L144.736 114.731C147.537 113.113 148.805 109.741 147.764 106.677Z" fill="#E2E2ED"/>
<path d="M128.475 67.4626C107.481 81.428 91.9 67.3039 81.868 50.8893C82.488 49.8919 83.3333 49.0053 84.2333 48.4879L163.189 2.89599C164.096 2.37333 164.873 2.33063 165.372 2.69463C165.372 2.69463 168.193 41.0333 128.475 67.4626Z" fill="#CBCADE"/>
<path d="M150.384 112.064C150.329 112.361 150.249 112.647 150.153 112.932C150.063 113.219 149.947 113.499 149.812 113.765C149.484 114.447 149.047 115.072 148.505 115.608C148.073 116.052 147.58 116.435 147.033 116.751L138.637 121.596L131.167 125.907C131.008 125.999 130.851 126.083 130.691 126.163L130.376 126.315C129.073 126.897 127.244 127.391 125.184 127.269C124.721 127.244 124.253 127.189 123.773 127.092C123.577 127.056 123.377 127.013 123.177 126.959L123.073 126.935V125.5C124.619 125.712 125.925 125.019 125.925 122.064V122.047L126.072 76.132V76.072L136.991 69.7599L150.147 108.464C150.555 109.656 150.615 110.896 150.384 112.064Z" fill="#EBECF2"/>
<path d="M125.925 122.064L125.931 125.555C125.931 126.241 125.081 126.849 124.627 127.269L124.608 127.287C124.14 127.256 123.679 127.196 123.216 127.092C123.02 127.056 122.82 127.013 122.62 126.959L122.517 126.935V126.928C121.679 126.697 120.856 126.356 120.079 125.907L119.945 125.828C119.549 125.049 118.965 123.579 120.268 124.223C123.684 125.907 124.225 123.123 124.225 123.123L124.287 98.6147V90.312L126.072 76.22L125.925 122.064Z" fill="#BBC0D1"/>
<defs>
<linearGradient id="paint0_linear_5_2247" x1="81.7266" y1="119.759" x2="153.476" y2="-4.51483" gradientUnits="userSpaceOnUse">
<stop stop-color="#939ABA"/>
<stop offset="0.0138473" stop-color="#939ABA"/>
<stop offset="0.40198" stop-color="#939ABA"/>
<stop offset="0.417893" stop-color="#BFC3D6"/>
<stop offset="0.434841" stop-color="#E2E2ED"/>
<stop offset="1" stop-color="#E2E2ED"/>
</linearGradient>
</defs>
</svg>
