<svg width="142" height="90" viewBox="0 0 142 90" fill="none" xmlns="http://www.w3.org/2000/svg">
<path d="M54.4013 78.8413V78.496L54.2053 78.5426L54.1707 78.5173L53.3533 78.0467C53.0493 77.8707 52.5573 77.8693 52.2547 78.0453L49.4653 79.6666L49.016 79.7733L49.0173 80.132C49.0267 80.2413 49.1013 80.3493 49.2467 80.4333L50.064 80.9053C50.368 81.0813 50.8587 81.0826 51.1627 80.9053L54.1773 79.1546C54.324 79.068 54.3987 78.9573 54.4013 78.8453V78.8413Z" fill="#2D2F3A"/>
<path d="M49.6773 81.5866V81.2413L49.4813 81.288L49.4467 81.2626L48.6293 80.792C48.3253 80.616 47.8333 80.6146 47.5293 80.7906L44.74 82.412L44.292 82.5173L44.2947 82.8773C44.3027 82.9867 44.3773 83.096 44.5213 83.1787L45.3387 83.6506C45.644 83.8266 46.1347 83.828 46.4387 83.652L49.452 81.9C49.6 81.8146 49.6747 81.7026 49.676 81.5906L49.6773 81.5893V81.5866Z" fill="#2D2F3A"/>
<path d="M49.2453 80.1453L50.0626 80.616C50.3666 80.792 50.86 80.792 51.1613 80.6173L54.1773 78.8653C54.4786 78.6893 54.476 78.404 54.172 78.228L53.3546 77.756C53.0506 77.58 52.5573 77.58 52.2546 77.756L49.24 79.508C48.9386 79.6826 48.94 79.968 49.2453 80.1453Z" fill="#494B55"/>
<path d="M44.5213 82.8906L45.3387 83.3613C45.6427 83.5386 46.136 83.5386 46.44 83.3613L49.4533 81.6106C49.7533 81.4346 49.752 81.1493 49.448 80.9733L48.6307 80.5013C48.3253 80.3253 47.8333 80.3253 47.5307 80.5013L44.5173 82.252C44.2147 82.428 44.216 82.7133 44.5213 82.8906Z" fill="#494B55"/>
<mask id="mask0_5_2245" style="mask-type:luminance" maskUnits="userSpaceOnUse" x="0" y="21" width="117" height="68">
<path d="M116.688 48.0293V45.4653L114.605 45.7133L73.2866 21.8573C71.968 21.0973 69.8413 21.0987 68.5347 21.8573L5.056 58.748L0.70932 59.264V62.0107L0.714659 62.012C0.685325 62.5333 1.01333 63.06 1.70133 63.4573L43.7467 87.7333C45.5493 88.7733 48.4613 88.7747 50.2547 87.7333L115.352 49.9013C116.221 49.3973 116.661 48.7413 116.684 48.08H116.688V48.0293Z" fill="white"/>
</mask>
<g mask="url(#mask0_5_2245)">
<path d="M116.688 48.0293V45.4653L114.605 45.7133L73.2866 21.8573C71.968 21.0973 69.8413 21.0987 68.5347 21.8573L5.056 58.748L0.70932 59.264V62.0107L0.714659 62.012C0.685325 62.5333 1.01333 63.06 1.70133 63.4573L43.7467 87.7333C45.5493 88.7733 48.4613 88.7747 50.2547 87.7333L115.352 49.9013C116.221 49.3973 116.661 48.7413 116.684 48.08H116.688V48.0293Z" fill="url(#paint0_linear_5_2245)"/>
</g>
<path d="M115.696 43.804L73.652 19.5306C71.8506 18.4893 68.936 18.4893 67.1426 19.5306L2.04665 57.3613C0.254647 58.4013 0.265319 60.0906 2.06799 61.1306L44.112 85.4053C45.4293 86.1653 47.5586 86.1653 48.868 85.4053L115.712 46.56C117.021 45.7986 117.015 44.5653 115.696 43.804Z" fill="#EBECF2"/>
<path d="M19.4933 69.3946L44.2947 83.7146C45.1653 84.2173 46.572 84.2173 47.436 83.7146L112.789 45.736C113.653 45.2333 113.648 44.4186 112.779 43.9173L87.9747 29.5973C87.1053 29.0946 85.6987 29.0946 84.8347 29.5973L19.4827 67.576C18.6187 68.0773 18.624 68.892 19.4933 69.3946Z" fill="#DADDE6"/>
<path d="M109.283 44V43.6467H108.992L106.019 41.9306C105.713 41.7546 105.223 41.756 104.921 41.9306L101.939 43.664H101.68V44V44.0013V44.0226H101.684C101.692 44.1293 101.767 44.236 101.909 44.3186L104.943 46.0693C105.247 46.2466 105.74 46.2467 106.043 46.0707L109.059 44.3186C109.209 44.232 109.284 44.116 109.283 44Z" fill="#2D2F3A"/>
<path d="M90.136 32.9453V32.592L89.8467 32.5933L86.872 30.876C86.568 30.7 86.076 30.7013 85.7747 30.876L82.7933 32.6093L82.5333 32.6106V32.9466V32.968H82.5373C82.5467 33.076 82.62 33.1826 82.7627 33.264L85.796 35.016C86.1013 35.192 86.5947 35.1919 86.896 35.0173L89.9107 33.264C90.0627 33.1773 90.1373 33.0613 90.136 32.9453Z" fill="#2D2F3A"/>
<path d="M85.4107 35.6906V35.3373L85.1213 35.3386L82.148 33.6226C81.844 33.4453 81.352 33.4466 81.0506 33.6226L78.0693 35.3546L77.8093 35.356V35.692V35.7133H77.8133C77.8227 35.8213 77.896 35.928 78.0387 36.0106L81.0733 37.7613C81.3773 37.9373 81.8707 37.9373 82.172 37.7626L85.1866 36.0106C85.3386 35.9226 85.4133 35.8066 85.4107 35.6906Z" fill="#2D2F3A"/>
<path d="M80.6867 38.436V38.0827L80.3973 38.084L77.424 36.368C77.12 36.1907 76.628 36.192 76.3267 36.368L73.3454 38.1L73.0853 38.1013V38.4373V38.4586H73.0893C73.0987 38.5666 73.172 38.6733 73.3147 38.756L76.348 40.5067C76.6534 40.6827 77.1467 40.6827 77.448 40.508L80.4627 38.756C80.6147 38.668 80.688 38.552 80.6867 38.436Z" fill="#2D2F3A"/>
<path d="M75.9627 41.1813V40.8279L75.6733 40.8293L72.7 39.1133C72.396 38.936 71.904 38.9373 71.6027 39.1133L68.6213 40.8453L68.3613 40.8466V41.1826V41.204H68.364C68.3747 41.312 68.448 41.4186 68.5907 41.5013L71.624 43.2519C71.9293 43.4293 72.4213 43.4293 72.724 43.2533L75.74 41.5013C75.8907 41.4133 75.964 41.2973 75.9627 41.1813Z" fill="#2D2F3A"/>
<path d="M104.559 46.7453V46.392H104.268L101.295 44.676C100.989 44.5 100.499 44.5013 100.197 44.676L97.2147 46.4093H96.956V46.7453V46.7467V46.768H96.96C96.968 46.8747 97.0427 46.9826 97.184 47.064L100.219 48.816C100.523 48.992 101.017 48.992 101.317 48.8173L104.333 47.064C104.484 46.9773 104.56 46.8613 104.559 46.7453Z" fill="#2D2F3A"/>
<path d="M97.1333 45.5506V45.1973L96.844 45.1986L93.8706 43.4826C93.5653 43.3053 93.0733 43.3066 92.7733 43.4826L89.7906 45.2146L89.5306 45.216V45.5519V45.5733H89.5346C89.544 45.6813 89.6186 45.788 89.76 45.8706L92.7946 47.6213C93.0986 47.7973 93.592 47.7973 93.8933 47.6226L96.908 45.8706C97.06 45.7826 97.1346 45.6666 97.1333 45.5506Z" fill="#2D2F3A"/>
<path d="M92.4093 48.296V47.9427L92.1186 47.944L89.1453 46.228C88.8413 46.0506 88.3507 46.052 88.048 46.228L85.0667 47.96L84.8067 47.9613V48.2973V48.3186H84.8107C84.82 48.4266 84.8933 48.5333 85.036 48.616L88.0707 50.3666C88.3747 50.5426 88.868 50.5426 89.1693 50.368L92.184 48.616C92.336 48.528 92.4107 48.412 92.4093 48.296Z" fill="#2D2F3A"/>
<path d="M89.9547 44.1427V43.7893L89.664 43.7906L86.6907 42.0733C86.3867 41.8973 85.8947 41.8986 85.5933 42.0733L82.612 43.8066L82.352 43.808V44.144V44.1653H82.356C82.3653 44.2733 82.4387 44.3786 82.5814 44.4613L85.6147 46.2133C85.92 46.3893 86.4134 46.3893 86.7147 46.2147L89.7307 44.4613C89.8813 44.3733 89.956 44.2587 89.9547 44.1427Z" fill="#2D2F3A"/>
<path d="M85.1347 41.36V41.0066L84.8453 41.008L81.872 39.2906C81.568 39.116 81.0747 39.116 80.7747 39.2906L77.7933 41.024L77.5333 41.0253V41.3613V41.3827H77.5373C77.5467 41.4907 77.62 41.5973 77.7627 41.68L80.7947 43.4306C81.1013 43.6066 81.5947 43.6066 81.896 43.432L84.9107 41.6787C85.0627 41.592 85.136 41.476 85.1347 41.36Z" fill="#2D2F3A"/>
<path d="M80.4107 44.1053V43.7519L80.1213 43.7533L77.148 42.0373C76.8427 41.86 76.3506 41.8613 76.0506 42.0373L73.0693 43.7693L72.8093 43.7706V44.1066V44.128H72.812C72.8227 44.236 72.896 44.3426 73.0387 44.4253L76.072 46.176C76.3773 46.352 76.8693 46.352 77.172 46.1773L80.1866 44.4253C80.3386 44.3373 80.412 44.2213 80.4107 44.1053Z" fill="#2D2F3A"/>
<path d="M75.6866 46.8506V46.4973L75.3973 46.4986L72.424 44.7826C72.1186 44.6053 71.628 44.6066 71.3266 44.7826L68.344 46.5146L68.084 46.516V46.8519V46.8733H68.088C68.0973 46.9813 68.172 47.088 68.3133 47.1706L71.348 48.9213C71.652 49.0973 72.1453 49.0973 72.448 48.9226L75.4626 47.1706C75.6146 47.0826 75.688 46.9666 75.6866 46.8506Z" fill="#2D2F3A"/>
<path d="M70.9627 49.596V49.2426L70.6733 49.244L67.6987 47.528C67.3947 47.3506 66.904 47.352 66.6013 47.528L63.62 49.2613H63.36V49.5973V49.62H63.364C63.3733 49.7266 63.4467 49.8333 63.5893 49.916L66.624 51.6666C66.928 51.844 67.4213 51.844 67.7227 51.668L70.7387 49.916C70.8893 49.828 70.964 49.712 70.9627 49.596Z" fill="#2D2F3A"/>
<path d="M66.2387 52.3426V51.9879L65.948 51.9893L62.9747 50.2733C62.6707 50.096 62.18 50.0973 61.8773 50.2733L58.896 52.0066H58.636V52.3426V52.3653H58.64C58.6493 52.472 58.7226 52.5786 58.8653 52.6613L61.9 54.412C62.204 54.5893 62.6973 54.5893 62.9986 54.4133L66.0146 52.6613C66.1653 52.5733 66.24 52.4573 66.2387 52.3426Z" fill="#2D2F3A"/>
<path d="M61.5147 55.088V54.7346H61.224L58.2507 53.0186C57.9467 52.8426 57.4547 52.844 57.1533 53.0186L54.172 54.752H53.912V55.088V55.0893V55.1093H53.916C53.9253 55.2173 53.9987 55.324 54.1413 55.4066L57.1747 57.1573C57.48 57.3346 57.9733 57.3346 58.2747 57.1586L61.2907 55.4066C61.4413 55.3186 61.516 55.204 61.5147 55.088Z" fill="#2D2F3A"/>
<path d="M56.7907 57.8333V57.48H56.5L53.5266 55.764C53.2226 55.588 52.7306 55.5893 52.4293 55.764L49.448 57.4973H49.188V57.8333V57.8546H49.1907C49.2013 57.9626 49.2747 58.0693 49.4173 58.1519L52.4507 59.9026C52.756 60.08 53.248 60.08 53.5507 59.904L56.5666 58.1519C56.7173 58.0639 56.792 57.9493 56.7907 57.8333Z" fill="#2D2F3A"/>
<path d="M52.0666 60.5786V60.2253H51.776L48.8027 58.5093C48.4973 58.3333 48.0067 58.3346 47.7053 58.5093L44.7227 60.2426H44.4626V60.5786V60.6H44.4667C44.476 60.708 44.5506 60.8146 44.6933 60.8973L47.7266 62.6493C48.0306 62.8253 48.524 62.8253 48.8266 62.6506L51.8426 60.8973C51.9933 60.8093 52.068 60.6946 52.0666 60.5786Z" fill="#2D2F3A"/>
<path d="M47.3426 63.324V62.9706H47.052L44.0773 61.2546C43.7733 61.0786 43.2826 61.08 42.9813 61.2546L39.9986 62.988H39.74V63.324V63.3453H39.7426C39.752 63.4546 39.8253 63.56 39.968 63.6426L43.0027 65.3946C43.3067 65.5706 43.8 65.5706 44.1013 65.396L47.1173 63.6426C47.268 63.5546 47.344 63.44 47.3426 63.324Z" fill="#2D2F3A"/>
<path d="M42.2813 60.756V60.4027H41.9907L39.0173 58.6866C38.7133 58.5106 38.2227 58.512 37.92 58.6866L34.9387 60.42H34.68V60.7573V60.7787H34.684C34.692 60.8853 34.7653 60.992 34.908 61.0747L37.9427 62.8266C38.2467 63.0026 38.74 63.0026 39.0413 62.8266L42.0573 61.0747C42.208 60.9867 42.2827 60.872 42.2813 60.756Z" fill="#2D2F3A"/>
<path d="M37.5573 63.5013V63.148L37.2667 63.1493L34.2946 61.432C33.9893 61.256 33.4973 61.2573 33.196 61.432L30.2147 63.1653H29.956V63.5013V63.5026V63.524H29.96C29.968 63.6306 30.0413 63.7373 30.184 63.82L33.2173 65.572C33.5227 65.748 34.0173 65.748 34.3173 65.572L37.3333 63.82C37.484 63.7333 37.5587 63.6173 37.5573 63.5013Z" fill="#2D2F3A"/>
<path d="M27.992 69.06V68.7066H27.7013L24.7293 66.9906C24.424 66.8146 23.932 66.816 23.6306 66.9906L20.6493 68.724H20.3907V69.0613V69.0827H20.3933C20.404 69.1893 20.476 69.296 20.62 69.3786L23.652 71.1306C23.9587 71.3066 24.452 71.3066 24.752 71.1306L27.768 69.3786C27.9186 69.2906 27.9933 69.176 27.992 69.06Z" fill="#2D2F3A"/>
<path d="M32.8787 71.2066L29.9067 69.4906C29.6013 69.3146 29.1093 69.3159 28.808 69.4906L28.3867 69.736L25.8267 71.2239H25.568V71.3746L25.4053 71.4693H25.1453V71.8053V71.8066V71.828H25.148C25.1587 71.9346 25.232 72.0413 25.3747 72.1239L28.4067 73.876C28.7133 74.052 29.2053 74.052 29.508 73.876L32.9453 71.8786C33.096 71.7906 33.1707 71.6759 33.1693 71.5599V71.2066H32.8787Z" fill="#2D2F3A"/>
<path d="M42.6187 66.0693V65.716H42.3267L39.3533 64C39.0493 63.824 38.5587 63.8253 38.256 64L35.2747 65.7333L35.016 65.7346V66.0693V66.0919H35.0187C35.028 66.1999 35.1013 66.3053 35.244 66.3879L38.2787 68.14C38.5827 68.316 39.076 68.316 39.3773 68.1413L42.3933 66.3879C42.544 66.2999 42.62 66.1853 42.6187 66.0693Z" fill="#2D2F3A"/>
<path d="M37.8933 68.8147V68.4613H37.6027L34.6293 66.7453C34.3253 66.5693 33.8333 66.5706 33.532 66.7453L30.5507 68.4786L30.292 68.48V68.816V68.8373H30.2947C30.304 68.9453 30.3773 69.0506 30.52 69.1333L33.5533 70.8853C33.8587 71.0613 34.352 71.0613 34.6533 70.8866L37.6693 69.1333C37.82 69.0453 37.8947 68.9307 37.8933 68.8147Z" fill="#2D2F3A"/>
<path d="M85.2307 46.888V46.5346L84.94 46.536L81.9667 44.8186C81.6613 44.6426 81.1707 44.6439 80.8693 44.8186L77.888 46.5519L77.628 46.5533V46.8893V46.9106H77.6307C77.6413 47.0186 77.7147 47.124 77.8573 47.2066L80.8907 48.9586C81.196 49.1346 81.688 49.1346 81.9907 48.96L85.0067 47.2066C85.1573 47.12 85.232 47.004 85.2307 46.888Z" fill="#2D2F3A"/>
<path d="M80.5067 49.6333V49.28L80.216 49.2813L77.2427 47.5653C76.9373 47.388 76.4467 47.3893 76.1453 47.5653L73.1627 49.2973H72.904V49.6346V49.656H72.9067C72.916 49.764 72.9907 49.8706 73.132 49.9533L76.1667 51.704C76.4707 51.88 76.964 51.88 77.2667 51.7053L80.2827 49.9533C80.4333 49.8653 80.508 49.7493 80.5067 49.6333Z" fill="#2D2F3A"/>
<path d="M75.7827 52.3787V52.0253L75.492 52.0266L72.5173 50.3107C72.2133 50.1333 71.7226 50.1347 71.42 50.3107L68.4387 52.0427H68.18V52.38V52.4013H68.184C68.192 52.5093 68.2653 52.616 68.408 52.6986L71.4427 54.4493C71.7467 54.6253 72.24 54.6253 72.5413 54.4506L75.5573 52.6986C75.708 52.6106 75.784 52.4947 75.7827 52.3787Z" fill="#2D2F3A"/>
<path d="M71.0573 55.124V54.7707L70.7667 54.772L67.7946 53.056C67.4893 52.8786 66.9987 52.88 66.696 53.056L63.7147 54.788L63.456 54.7893V55.1253V55.1467H63.46C63.468 55.2547 63.5413 55.3613 63.684 55.444L66.7187 57.1946C67.0227 57.3706 67.5173 57.3706 67.8173 57.196L70.8333 55.444C70.984 55.356 71.06 55.24 71.0573 55.124Z" fill="#2D2F3A"/>
<path d="M66.3333 57.8706V57.516L66.0427 57.5173L63.0707 55.8C62.7653 55.624 62.2733 55.6253 61.972 55.8L58.9907 57.5333L58.732 57.5346V57.8706V57.892H58.736C58.744 58 58.8173 58.1066 58.9613 58.1893L61.9933 59.94C62.2987 60.116 62.7933 60.116 63.0933 59.9413L66.1093 58.1893C66.26 58.1013 66.3347 57.9853 66.3333 57.8706Z" fill="#2D2F3A"/>
<path d="M61.6093 60.616V60.2626H61.3187L58.3467 58.5453C58.0413 58.3706 57.5493 58.372 57.248 58.5453L54.2667 60.2786L54.008 60.28V60.616V60.6373H54.0106C54.02 60.7453 54.0933 60.852 54.2373 60.9346L57.2693 62.6853C57.5747 62.8613 58.068 62.8613 58.3693 62.6866L61.3853 60.9346C61.536 60.8466 61.6106 60.7306 61.6093 60.616Z" fill="#2D2F3A"/>
<path d="M56.8853 63.3613V63.008H56.5946L53.6227 61.2906C53.316 61.116 52.8253 61.1173 52.524 61.2906L49.5413 63.024L49.2827 63.0253V63.3613V63.3827H49.2867C49.2947 63.4907 49.3693 63.5973 49.5133 63.68L52.5453 65.4306C52.8506 65.6066 53.344 65.6066 53.6453 65.432L56.6613 63.68C56.812 63.592 56.8867 63.476 56.8853 63.3613Z" fill="#2D2F3A"/>
<path d="M52.1613 66.1066V65.7533H51.8707L48.8973 64.0373C48.592 63.8613 48.1013 63.8626 47.8 64.0373L44.8173 65.7693L44.5587 65.7706V66.1066V66.128H44.5627C44.572 66.236 44.644 66.3426 44.788 66.4253L47.8213 68.1773C48.1267 68.352 48.62 68.352 48.92 68.1773L51.936 66.4253C52.0867 66.3373 52.1627 66.2213 52.1613 66.1066Z" fill="#2D2F3A"/>
<path d="M47.4373 68.8519V68.4986H47.1453L44.1733 66.7826C43.868 66.6066 43.3773 66.6066 43.0747 66.7826L40.0933 68.5146L39.8347 68.516V68.8519V68.8733H39.8387C39.848 68.9813 39.92 69.088 40.064 69.1706L43.0973 70.9226C43.4027 71.0973 43.896 71.0973 44.196 70.9226L47.212 69.1706C47.3626 69.0826 47.4387 68.9666 47.4373 68.8519Z" fill="#2D2F3A"/>
<path d="M87.684 51.0413V50.688L87.3947 50.6893L84.4213 48.9733C84.1173 48.796 83.6266 48.7973 83.324 48.9733L80.3427 50.7066H80.0827V51.0426V51.064H80.0866C80.096 51.172 80.1693 51.2786 80.312 51.3613L83.3467 53.112C83.6507 53.2893 84.144 53.2893 84.4453 53.1133L87.4613 51.3613C87.612 51.2733 87.6853 51.1573 87.684 51.0413Z" fill="#2D2F3A"/>
<path d="M82.9613 53.7879V53.4333L82.6707 53.4346L79.6973 51.7186C79.3933 51.5413 78.9013 51.5426 78.6 51.7186L75.6186 53.4519H75.3586V53.7879V53.8093H75.3626C75.372 53.9173 75.4453 54.024 75.588 54.1066L78.6213 55.8573C78.9266 56.0346 79.42 56.0346 79.7213 55.8586L82.7373 54.1066C82.888 54.0186 82.9613 53.9026 82.9613 53.7879Z" fill="#2D2F3A"/>
<path d="M78.2373 56.5333V56.1787L77.9467 56.18L74.9733 54.464C74.668 54.288 74.1773 54.2893 73.876 54.464L70.8946 56.1973H70.6346V56.5333V56.5546H70.6373C70.6466 56.6626 70.7213 56.7693 70.864 56.852L73.8973 58.6026C74.2026 58.78 74.6946 58.78 74.9973 58.604L78.0133 56.852C78.164 56.764 78.2386 56.6493 78.2373 56.5333Z" fill="#2D2F3A"/>
<path d="M73.5133 59.2787V58.9253H73.2226L70.2493 57.2093C69.944 57.0333 69.4533 57.0347 69.152 57.2093L66.1693 58.9427H65.9093V59.2787V59.3H65.9133C65.9226 59.408 65.9973 59.5147 66.1386 59.5973L69.1733 61.348C69.4773 61.5253 69.9706 61.5253 70.2733 61.3493L73.2893 59.5973C73.4386 59.5093 73.5147 59.3947 73.5133 59.2787Z" fill="#2D2F3A"/>
<path d="M68.7893 62.0239V61.6706H68.4987L65.524 59.9546C65.22 59.7786 64.7293 59.7799 64.4267 59.9546L61.4453 61.6879H61.1853V62.0239V62.0453H61.1893C61.1987 62.1533 61.272 62.26 61.4147 62.3426L64.4493 64.0946C64.7533 64.2706 65.2467 64.2706 65.548 64.0959L68.564 62.3426C68.7147 62.2546 68.7907 62.1399 68.7893 62.0239Z" fill="#2D2F3A"/>
<path d="M64.064 64.7693V64.416H63.7733L60.8 62.7C60.496 62.524 60.0053 62.5253 59.7026 62.7L56.7213 64.4333H56.4613V64.7693V64.7906H56.4653C56.4746 64.9 56.548 65.0053 56.6906 65.088L59.7253 66.84C60.0293 67.016 60.5226 67.016 60.824 66.8413L63.84 65.088C63.9906 65 64.0653 64.8853 64.064 64.7693Z" fill="#2D2F3A"/>
<path d="M59.34 67.5146V67.1613H59.0493L56.076 65.4453C55.772 65.2693 55.28 65.2706 54.9786 65.4453L51.9973 67.1786H51.7386V67.5146V67.5373H51.7413C51.7507 67.6453 51.824 67.7506 51.9666 67.8333L55 69.5853C55.3053 69.7613 55.7986 69.7613 56.1 69.5866L59.116 67.8333C59.2666 67.7453 59.3413 67.6293 59.34 67.5146Z" fill="#2D2F3A"/>
<path d="M54.616 70.26V69.9066H54.3253L51.352 68.1906C51.0467 68.0146 50.556 68.016 50.2547 68.1906L47.2733 69.924H47.0146V70.2613V70.2826H47.0173C47.0267 70.3906 47.1 70.496 47.2426 70.5786L50.276 72.3306C50.5813 72.5066 51.0733 72.5066 51.376 72.332L54.392 70.5786C54.5426 70.4906 54.6173 70.3746 54.616 70.26Z" fill="#2D2F3A"/>
<path d="M49.892 73.0053V72.652H49.6013L46.628 70.936C46.3227 70.76 45.832 70.7613 45.5307 70.936L42.548 72.6693H42.2893V73.0067V73.028H42.2933C42.3013 73.1346 42.376 73.2413 42.5173 73.324L45.552 75.076C45.856 75.252 46.3507 75.252 46.652 75.0773L49.668 73.324C49.8187 73.236 49.8933 73.1213 49.892 73.0053Z" fill="#2D2F3A"/>
<path d="M99.8347 49.4906V49.1373H99.5427L96.5707 47.4213C96.2653 47.2453 95.7747 47.2466 95.472 47.4213L92.4907 49.1546H92.232V49.4906V49.4919V49.5133H92.236C92.244 49.6213 92.3173 49.728 92.4613 49.8093L95.4947 51.5613C95.7987 51.7373 96.2933 51.7373 96.5933 51.5626L99.6093 49.8093C99.76 49.7226 99.836 49.6066 99.8347 49.4906Z" fill="#2D2F3A"/>
<path d="M95.1093 52.236V51.8827H94.8186L91.8467 50.1666C91.5413 49.9906 91.0507 49.992 90.748 50.1666L87.7667 51.9L87.508 51.9013V52.236V52.2373V52.2586H87.512C87.52 52.3666 87.5933 52.472 87.7373 52.5546L90.7707 54.3066C91.0747 54.4826 91.5693 54.4826 91.8693 54.308L94.8853 52.5546C95.036 52.4666 95.112 52.352 95.1093 52.236Z" fill="#2D2F3A"/>
<path d="M90.3853 54.9813V54.628H90.0946L87.1226 52.912C86.8173 52.736 86.3253 52.7373 86.024 52.912L83.0427 54.6453L82.784 54.6466V54.9826V55.004H82.788C82.796 55.112 82.8693 55.2173 83.0133 55.3L86.0453 57.0519C86.3507 57.2279 86.8453 57.2279 87.1453 57.0533L90.1613 55.3C90.312 55.212 90.3866 55.0973 90.3853 54.9813Z" fill="#2D2F3A"/>
<path d="M85.6613 57.7266V57.3733H85.3707L82.3987 55.6573C82.0933 55.4813 81.6013 55.4826 81.3 55.6573L78.3187 57.3906L78.06 57.392V57.728V57.7493H78.0627C78.0733 57.8573 78.1453 57.9627 78.2893 58.0453L81.3213 59.7973C81.628 59.9733 82.12 59.9733 82.4213 59.7986L85.4373 58.0453C85.588 57.9573 85.6627 57.8426 85.6613 57.7266Z" fill="#2D2F3A"/>
<path d="M80.9373 60.472V60.1186L80.6467 60.1199L77.6747 58.4026C77.368 58.2266 76.8773 58.228 76.576 58.4026L73.5933 60.136L73.3347 60.1373V60.4733V60.4946H73.3387C73.348 60.6026 73.4213 60.708 73.5653 60.7906L76.5973 62.5426C76.9027 62.7186 77.396 62.7186 77.6973 62.544L80.7133 60.7906C80.864 60.704 80.9387 60.588 80.9373 60.472Z" fill="#2D2F3A"/>
<path d="M76.2133 63.2173V62.864L75.9227 62.8653L72.9506 61.1493C72.644 60.972 72.1533 60.9733 71.852 61.1493L68.8693 62.8813H68.6107V63.2186V63.24H68.6147C68.624 63.348 68.6973 63.4547 68.84 63.5373L71.8733 65.288C72.1787 65.464 72.672 65.464 72.972 65.2893L75.988 63.5373C76.1387 63.4493 76.2147 63.3333 76.2133 63.2173Z" fill="#2D2F3A"/>
<path d="M71.4893 65.9626V65.6093L71.1973 65.6106L68.2253 63.8946C67.92 63.7173 67.4293 63.7186 67.128 63.8946L64.1453 65.6266H63.8867V65.964V65.9853H63.8907C63.9 66.0933 63.972 66.2 64.116 66.2826L67.1493 68.0333C67.4547 68.2093 67.948 68.2093 68.248 68.0346L71.264 66.2826C71.4147 66.1946 71.4906 66.0786 71.4893 65.9626Z" fill="#2D2F3A"/>
<path d="M66.764 68.708V68.3546L66.4733 68.3559L63.5013 66.6386C63.196 66.4626 62.7053 66.464 62.404 66.6386L59.4213 68.372L59.1627 68.3733V68.7093V68.7306H59.1667C59.176 68.8386 59.248 68.9453 59.392 69.0279L62.4253 70.7786C62.7307 70.9546 63.224 70.9546 63.524 70.78L66.54 69.0279C66.6907 68.9399 66.7667 68.824 66.764 68.708Z" fill="#2D2F3A"/>
<path d="M62.04 71.4546V71.1L61.7493 71.1013L58.7773 69.384C58.472 69.208 57.98 69.2093 57.68 69.384L54.6973 71.1173L54.4387 71.1186V71.4546V71.476H54.4426C54.452 71.584 54.524 71.6906 54.668 71.7733L57.7 73.524C58.0067 73.7 58.5 73.7 58.8 73.5253L61.816 71.7733C61.9667 71.6853 62.0413 71.5693 62.04 71.4546Z" fill="#2D2F3A"/>
<path d="M57.316 74.2V73.8453L57.0253 73.8466L54.0533 72.1293C53.748 71.9546 53.256 71.956 52.956 72.1293L49.9733 73.8626L49.7147 73.864V74.2V74.2213H49.7173C49.728 74.3293 49.8 74.4359 49.944 74.5186L52.976 76.2693C53.2827 76.4453 53.7747 76.4453 54.076 76.2706L57.092 74.5186C57.2427 74.4306 57.3173 74.3146 57.316 74.2Z" fill="#2D2F3A"/>
<path d="M52.592 76.9453V76.592H52.3013L49.3293 74.8746C49.0227 74.7 48.532 74.7 48.232 74.8746L45.248 76.608L44.9907 76.6093V76.9453V76.9666H44.9933C45.0026 77.0746 45.076 77.1813 45.22 77.264L48.252 79.0147C48.5573 79.1907 49.0507 79.1907 49.352 79.016L52.368 77.264C52.5187 77.176 52.5933 77.06 52.592 76.9453Z" fill="#2D2F3A"/>
<path d="M47.868 79.316L47.572 79.332L44.6053 77.62C44.3 77.444 43.808 77.4453 43.5067 77.6213L39.836 79.7546L39.536 79.7706L39.5387 80.0933V80.1373V80.1546H39.5427C39.5587 80.256 39.6293 80.3546 39.764 80.4333L42.7973 82.1839C43.1027 82.3599 43.596 82.3599 43.9 82.1839L47.6413 80.0093C47.8 79.9173 47.8733 79.7946 47.8653 79.6746H47.868V79.316Z" fill="#2D2F3A"/>
<path d="M71.24 43.916V43.5746H70.9533L67.9773 41.8573C67.7493 41.7266 67.4147 41.6933 67.1333 41.76L66.8773 41.8586L63.896 43.592H63.636V43.7426L42.644 55.9413L39.6627 57.6746L39.404 57.676V58.012V58.0333H39.4067L39.4093 58.0453L39.4253 58.1106L39.4347 58.128L39.468 58.188L39.4987 58.2213L39.536 58.2626L39.6293 58.328L39.632 58.3293L42.6653 60.0813L42.924 60.18L43.2173 60.2133C43.416 60.2133 43.6147 60.1707 43.7653 60.0827L46.7813 58.3293L71.0147 44.2467C71.172 44.156 71.244 44.036 71.24 43.916Z" fill="#2D2F3A"/>
<path d="M106.367 48.6427V48.2973L106.172 48.344L106.136 48.3186L105.32 47.8467C105.016 47.6707 104.523 47.6693 104.22 47.8453L101.431 49.4666L100.981 49.5733L100.984 49.932C100.993 50.0413 101.068 50.1506 101.212 50.2346L102.029 50.7053C102.335 50.8813 102.825 50.8826 103.128 50.7066L106.141 48.956C106.291 48.8693 106.364 48.7573 106.365 48.6453H106.367V48.6427Z" fill="#2D2F3A"/>
<path d="M101.643 51.388V51.0427L101.448 51.0893L101.412 51.064L100.596 50.5933C100.291 50.416 99.7987 50.4147 99.496 50.592L96.7067 52.212L96.2573 52.3186L96.26 52.6787C96.2693 52.788 96.344 52.896 96.488 52.98L97.304 53.4506C97.6107 53.6266 98.1013 53.628 98.4053 53.452L101.417 51.7013C101.567 51.6147 101.639 51.5027 101.641 51.3907H101.643V51.388Z" fill="#2D2F3A"/>
<path d="M96.9186 54.1333V53.788L96.724 53.8346L96.688 53.8093L95.872 53.3386C95.5667 53.1613 95.0747 53.16 94.772 53.3373L91.9827 54.9573L91.5333 55.064L91.536 55.424C91.544 55.5333 91.62 55.6413 91.764 55.7253L92.58 56.196C92.8867 56.3733 93.3773 56.3733 93.6813 56.1973L96.6933 54.4466C96.8427 54.36 96.9146 54.248 96.9173 54.136H96.9186V54.1333Z" fill="#2D2F3A"/>
<path d="M92.1933 56.8786V56.5333L92 56.58L91.964 56.5546L91.148 56.084C90.8427 55.9066 90.3507 55.9053 90.048 56.0827L87.2586 57.7026L86.808 57.8093L86.812 58.1693C86.82 58.2786 86.896 58.3866 87.04 58.4706L87.856 58.9413C88.1613 59.1186 88.6533 59.12 88.9573 58.9426L91.9693 57.192C92.1186 57.1053 92.1906 56.9933 92.1933 56.8813V56.8786Z" fill="#2D2F3A"/>
<path d="M87.4693 59.624V59.2786L87.2747 59.3253L87.24 59.3L86.4227 58.828C86.1187 58.652 85.628 58.652 85.324 58.828L82.5347 60.448L82.084 60.5546L82.088 60.9146C82.096 61.024 82.1707 61.132 82.316 61.216L83.132 61.6866C83.4373 61.8639 83.928 61.8653 84.232 61.6879L87.2453 59.9373C87.3933 59.8506 87.4667 59.7386 87.4693 59.6266V59.624Z" fill="#2D2F3A"/>
<path d="M82.7453 62.3693V62.024L82.5506 62.0707L82.516 62.0453L81.6987 61.5733C81.3947 61.3987 80.9027 61.3973 80.6 61.5733L77.8107 63.1933L77.36 63.3L77.3627 63.66C77.372 63.7693 77.4467 63.8773 77.592 63.9613L78.408 64.432C78.7133 64.6093 79.204 64.6093 79.508 64.4333L82.5213 62.6827C82.6693 62.596 82.7427 62.4853 82.7453 62.372V62.3693Z" fill="#2D2F3A"/>
<path d="M78.0213 65.1146V64.7693L77.8266 64.816L77.792 64.7906L76.9747 64.3186C76.6707 64.1439 76.1787 64.1426 75.8747 64.3186L73.0853 65.9386L72.636 66.0453L72.6387 66.4053C72.648 66.5146 72.7227 66.6226 72.8667 66.7066L73.684 67.1786C73.9893 67.3546 74.48 67.3546 74.784 67.1786L77.796 65.428C77.9453 65.3426 78.0186 65.2306 78.02 65.1173H78.0213V65.1146Z" fill="#2D2F3A"/>
<path d="M73.2973 67.86V67.5146L73.1027 67.5613L73.068 67.536L72.2506 67.0653C71.9453 66.8893 71.4546 66.888 71.1506 67.064L68.3613 68.6839L67.912 68.7906L67.9147 69.1506C67.924 69.2599 67.9987 69.3679 68.1427 69.4519L68.96 69.924C69.2653 70.1 69.756 70.1 70.06 69.9253L73.0733 68.1733C73.2213 68.088 73.2947 67.976 73.296 67.8626H73.2973V67.86Z" fill="#2D2F3A"/>
<path d="M68.5733 70.6053V70.26L68.3786 70.3067L68.344 70.2813L67.5266 69.8107C67.2213 69.6347 66.7306 69.6333 66.4266 69.8093L63.6373 71.4293L63.188 71.5373L63.1907 71.896C63.1987 72.0053 63.2747 72.1133 63.4187 72.1973L64.236 72.6693C64.5413 72.8453 65.032 72.8453 65.336 72.6706L68.3493 70.9186C68.4973 70.8333 68.5707 70.7213 68.5733 70.608V70.6053Z" fill="#2D2F3A"/>
<path d="M63.8493 73.3506V73.0053L63.6547 73.052L63.62 73.0266L62.8013 72.556C62.4973 72.3786 62.0067 72.3786 61.7027 72.5546L58.9133 74.176L58.4626 74.2827L58.4667 74.6413C58.4747 74.7507 58.5506 74.8587 58.6946 74.9427L59.512 75.4147C59.816 75.5907 60.308 75.592 60.6106 75.416L63.6253 73.664C63.7733 73.5773 63.8466 73.4666 63.8493 73.3533V73.3506Z" fill="#2D2F3A"/>
<path d="M59.1253 76.096V75.7506L58.9293 75.7973L58.8946 75.772L58.0773 75.3013C57.7733 75.124 57.2826 75.124 56.9786 75.3L54.1893 76.9213L53.74 77.028L53.7426 77.3866C53.7506 77.4959 53.8253 77.6039 53.9707 77.6879L54.788 78.1599C55.092 78.3359 55.5827 78.3373 55.8867 78.1599L58.9013 76.4093C59.048 76.3226 59.1226 76.212 59.1253 76.0986V76.096Z" fill="#2D2F3A"/>
<path d="M104.495 40.8973L104.281 40.9293L104.267 40.92L101.231 39.1666C100.928 38.992 100.435 38.992 100.133 39.1666L94.5307 42.4226L94.224 42.4693V42.784V42.7933V42.804H94.2267C94.2333 42.9133 94.3067 43.0226 94.452 43.1066L97.4867 44.8586C97.7907 45.0346 98.284 45.0346 98.584 44.8586L104.269 41.5546C104.42 41.4666 104.496 41.352 104.495 41.236V40.8973Z" fill="#2D2F3A"/>
<path d="M99.7093 38.1213L99.5013 38.1707L99.48 38.156L96.4467 36.404C96.1413 36.228 95.648 36.228 95.348 36.4027L87.4773 40.976L87.0746 41.0693V41.404H87.076C87.08 41.5173 87.156 41.6293 87.3053 41.716L90.3386 43.468C90.644 43.644 91.1346 43.6427 91.436 43.468L99.4827 38.7906C99.6347 38.704 99.7106 38.588 99.708 38.4707H99.7093V38.1213Z" fill="#2D2F3A"/>
<path d="M94.8906 35.34L94.6827 35.388L94.6613 35.3733L91.628 33.6226C91.3227 33.4453 90.8293 33.4453 90.528 33.6213L82.6587 38.1946L82.256 38.288V38.6226H82.2573C82.2613 38.7346 82.3373 38.848 82.4866 38.9347L85.5186 40.6853C85.8253 40.8613 86.316 40.86 86.6173 40.6853L94.664 36.0093C94.816 35.9213 94.892 35.8053 94.8893 35.6893H94.8906V35.34Z" fill="#2D2F3A"/>
<path d="M45.1347 75.3853L44.9147 75.4213L44.9067 75.4147L41.872 73.6626C41.5693 73.4866 41.0747 73.4866 40.7733 73.664L35.072 76.9773L34.7493 77.028V77.348V77.3546V77.3693H34.752C34.76 77.4786 34.8347 77.5853 34.9787 77.6693L38.0147 79.4213C38.3173 79.596 38.808 79.5973 39.112 79.4213L44.908 76.052C45.0627 75.9626 45.136 75.8466 45.1347 75.7306V75.3853Z" fill="#2D2F3A"/>
<path d="M42.4826 71.2786L39.4506 69.5266C39.144 69.3506 38.652 69.3506 38.3493 69.5266L30.188 74.2693C29.8853 74.4453 29.8893 74.7306 30.1933 74.9053L33.228 76.6573C33.532 76.8333 34.0213 76.8333 34.3253 76.6573L42.484 71.916C42.788 71.7386 42.7893 71.4546 42.4826 71.2786Z" fill="#2D2F3A"/>
<path d="M32.8333 66.2546V65.9093L32.6373 65.956L32.6027 65.9307L31.7867 65.4587C31.48 65.2827 30.9893 65.2813 30.6853 65.4573L27.8973 67.0787L27.448 67.1853L27.4507 67.544C27.46 67.6533 27.5333 67.7627 27.6787 67.8453L28.4947 68.3173C28.8 68.4933 29.292 68.4946 29.5947 68.3186L32.608 66.568C32.756 66.4813 32.8293 66.3693 32.832 66.2573H32.8333V66.2546Z" fill="#2D2F3A"/>
<path d="M30.616 64.9746V64.6293L30.4213 64.676L30.3867 64.6506L29.5693 64.1786C29.264 64.0026 28.7733 64.0013 28.4693 64.1786L25.6813 65.7986L25.2307 65.9053L25.2347 66.2653C25.2413 66.3746 25.316 66.4826 25.4613 66.5666L26.2786 67.0386C26.5826 67.2133 27.0746 67.2146 27.3773 67.0386L30.392 65.288C30.5386 65.2013 30.6133 65.0906 30.616 64.9773V64.9746Z" fill="#2D2F3A"/>
<path d="M111.82 45.4546L111.821 45.4533V45.0933L111.601 45.156L111.592 45.1493L110.775 44.6773C110.469 44.5013 109.979 44.5 109.676 44.676L106.2 46.6946L105.705 46.836V47.208L105.712 47.2067C105.728 47.3093 105.799 47.4106 105.936 47.4893L106.752 47.96C107.059 48.1373 107.551 48.1373 107.852 47.9613L111.597 45.7853C111.755 45.6946 111.828 45.5733 111.82 45.4546Z" fill="#2D2F3A"/>
<path d="M101.909 44.0306L104.944 45.7826C105.248 45.9573 105.74 45.9573 106.041 45.7826L109.057 44.0293C109.357 43.8546 109.357 43.5693 109.053 43.3933L106.019 41.6426C105.715 41.4666 105.221 41.4666 104.92 41.6413L101.905 43.3933C101.604 43.5679 101.605 43.8546 101.909 44.0306Z" fill="#2D2F3A"/>
<path d="M97.1853 46.776L100.22 48.5267C100.524 48.704 101.016 48.7027 101.316 48.528L104.332 46.7747C104.633 46.6 104.633 46.316 104.329 46.1387L101.295 44.388C100.991 44.212 100.497 44.212 100.196 44.3867L97.1813 46.1387C96.8787 46.3147 96.8813 46.6 97.1853 46.776Z" fill="#2D2F3A"/>
<path d="M92.4613 49.5213L95.4946 51.2719C95.8 51.4493 96.292 51.4479 96.592 51.2719L99.608 49.5199C99.9093 49.3453 99.9093 49.0613 99.6053 48.8839L96.572 47.1333C96.2667 46.9573 95.7733 46.9573 95.4707 47.1319L92.456 48.8839C92.1546 49.0599 92.156 49.3453 92.4613 49.5213Z" fill="#2D2F3A"/>
<path d="M87.7386 52.2666L90.7706 54.0173C91.076 54.1946 91.568 54.1933 91.8706 54.0173L94.8839 52.2653C95.1839 52.0906 95.1853 51.8066 94.88 51.6293L91.848 49.8786C91.5413 49.7026 91.0493 49.7026 90.7466 49.8773L87.7346 51.628C87.4306 51.8053 87.432 52.0906 87.7386 52.2666Z" fill="#2D2F3A"/>
<path d="M83.0133 55.012L86.0466 56.7626C86.3506 56.9399 86.844 56.9386 87.1466 56.7626L90.16 55.012C90.4613 54.836 90.4613 54.552 90.156 54.3746L87.124 52.6239C86.8173 52.4479 86.324 52.4479 86.0226 52.6226L83.0106 54.3733C82.7066 54.5506 82.708 54.836 83.0133 55.012Z" fill="#2D2F3A"/>
<path d="M78.2893 57.7573L81.3226 59.5093C81.628 59.6853 82.1186 59.684 82.4213 59.508L85.436 57.756C85.74 57.58 85.7373 57.2973 85.432 57.1213L82.3986 55.3693C82.0933 55.1933 81.6026 55.192 81.2986 55.368L78.2853 57.12C77.9826 57.296 77.984 57.5813 78.2893 57.7573Z" fill="#2D2F3A"/>
<path d="M73.5653 60.5026L76.5987 62.2546C76.904 62.4306 77.3947 62.4293 77.6973 62.2533L80.712 60.5013C81.0147 60.3253 81.0134 60.0426 80.708 59.8666L77.6747 58.1146C77.3694 57.9386 76.8787 57.9373 76.5747 58.1133L73.5613 59.8653C73.2573 60.0413 73.26 60.3266 73.5653 60.5026Z" fill="#2D2F3A"/>
<path d="M68.8427 63.2467L71.876 64.9986C72.1813 65.1746 72.6707 65.1746 72.9733 64.9986L75.9866 63.2467C76.2906 63.0707 76.2893 62.788 75.984 62.612L72.9506 60.86C72.6453 60.684 72.1533 60.6826 71.8506 60.8586L68.8373 62.6107C68.5333 62.7867 68.5373 63.0707 68.8427 63.2467Z" fill="#2D2F3A"/>
<path d="M64.1187 65.992L67.152 67.744C67.4573 67.92 67.9467 67.92 68.2493 67.744L71.2627 65.992C71.5667 65.8173 71.5653 65.5333 71.2587 65.3573L68.2267 63.6053C67.92 63.4293 67.4293 63.428 67.1267 63.604L64.1133 65.356C63.8093 65.532 63.8133 65.8173 64.1187 65.992Z" fill="#2D2F3A"/>
<path d="M59.3947 68.7373L62.428 70.4893C62.7333 70.6653 63.2227 70.6653 63.5253 70.4893L66.5387 68.7373C66.8427 68.5627 66.8413 68.2787 66.5347 68.1027L63.5027 66.3506C63.196 66.1746 62.7053 66.1733 62.4027 66.3493L59.3893 68.1013C59.0853 68.2773 59.0893 68.5627 59.3947 68.7373Z" fill="#2D2F3A"/>
<path d="M54.6707 71.484L57.7027 73.2346C58.0093 73.4106 58.4987 73.4106 58.8 73.2346L61.8147 71.484C62.1187 71.308 62.116 71.024 61.8107 70.848L58.7773 69.096C58.472 68.92 57.9813 68.9186 57.6787 69.096L54.6653 70.8467C54.3613 71.0227 54.364 71.308 54.6707 71.484Z" fill="#494B55"/>
<path d="M85.0374 48.3267L88.0707 50.0787C88.376 50.2547 88.8667 50.2533 89.168 50.0787L92.184 48.3253C92.4853 48.152 92.4854 47.8667 92.18 47.6907L89.1467 45.9387C88.8427 45.7627 88.3494 45.7627 88.0467 45.9373L85.0307 47.6907C84.7307 47.8653 84.732 48.152 85.0374 48.3267Z" fill="#2D2F3A"/>
<path d="M80.3134 51.072L83.3467 52.824C83.652 53 84.1427 52.9986 84.444 52.824L87.46 51.0707C87.76 50.8973 87.7613 50.612 87.456 50.436L84.4227 48.684C84.1173 48.508 83.6253 48.508 83.3227 48.6827L80.3067 50.436C80.0067 50.6107 80.008 50.8973 80.3134 51.072Z" fill="#2D2F3A"/>
<path d="M75.588 53.8186L78.6226 55.5693C78.9266 55.7453 79.4186 55.744 79.7213 55.568L82.736 53.8173C83.036 53.6426 83.0373 53.3573 82.732 53.1813L79.6986 51.4293C79.3933 51.2533 78.9 51.2533 78.5986 51.4293L75.5853 53.18C75.2826 53.356 75.284 53.6426 75.588 53.8186Z" fill="#2D2F3A"/>
<path d="M70.864 56.564L73.8987 58.3147C74.2027 58.4907 74.6933 58.4893 74.9973 58.3133L78.012 56.5627C78.312 56.388 78.312 56.1027 78.008 55.9267L74.9733 54.176C74.6693 53.9987 74.176 53.9987 73.8747 54.1747L70.86 55.9253C70.5586 56.1013 70.56 56.388 70.864 56.564Z" fill="#2D2F3A"/>
<path d="M66.14 59.3093L69.1747 61.06C69.4787 61.236 69.9693 61.2346 70.2733 61.0586L73.288 59.308C73.5893 59.132 73.588 58.848 73.284 58.672L70.2493 56.9213C69.9453 56.744 69.4547 56.7426 69.1507 56.92L66.136 58.6707C65.8333 58.8467 65.836 59.1333 66.14 59.3093Z" fill="#2D2F3A"/>
<path d="M61.416 62.0546L64.4493 63.8053C64.7546 63.9827 65.2453 63.9813 65.5493 63.804L68.5626 62.0533C68.8653 61.8773 68.864 61.5933 68.56 61.4173L65.5253 59.6666C65.2213 59.4893 64.7293 59.488 64.4266 59.6653L61.412 61.416C61.1093 61.5933 61.1106 61.8773 61.416 62.0546Z" fill="#2D2F3A"/>
<path d="M56.6933 64.7987L59.728 66.5493C60.032 66.7267 60.5213 66.7267 60.8253 66.5493L63.8387 64.7987C64.1413 64.6227 64.14 64.3387 63.8347 64.1627L60.8013 62.412C60.496 62.2347 60.0053 62.2347 59.7013 62.4107L56.688 64.1613C56.3853 64.3387 56.3893 64.6227 56.6933 64.7987Z" fill="#494B55"/>
<path d="M51.9693 67.544L55.004 69.2946C55.308 69.472 55.7973 69.472 56.1013 69.2946L59.1146 67.544C59.4173 67.368 59.416 67.084 59.1106 66.908L56.0773 65.1573C55.772 64.9813 55.2813 64.98 54.9773 65.156L51.964 66.9067C51.6613 67.0827 51.6653 67.368 51.9693 67.544Z" fill="#494B55"/>
<path d="M47.2453 70.2893L50.2787 72.04C50.584 72.2173 51.0733 72.2173 51.376 72.04L54.3907 70.2893C54.6933 70.1133 54.6907 69.8293 54.3867 69.6533L51.352 67.9027C51.048 67.7267 50.5573 67.7253 50.2533 67.9013L47.24 69.652C46.9373 69.828 46.94 70.1133 47.2453 70.2893Z" fill="#494B55"/>
<path d="M42.5213 73.0346L45.5547 74.7866C45.86 74.9626 46.3493 74.9626 46.652 74.7866L49.6667 73.0346C49.968 72.8586 49.9667 72.5746 49.6627 72.3986L46.628 70.648C46.324 70.472 45.8333 70.4706 45.5293 70.6466L42.516 72.3986C42.212 72.5733 42.216 72.8586 42.5213 73.0346Z" fill="#494B55"/>
<path d="M49.9466 74.2293L52.9786 75.98C53.2853 76.156 53.7733 76.156 54.076 75.98L57.0907 74.2293C57.3933 74.052 57.3946 73.7679 57.088 73.5919L54.056 71.8413C53.7493 71.664 53.2573 71.664 52.9546 71.8413L49.94 73.5919C49.636 73.7679 49.64 74.052 49.9466 74.2293Z" fill="#494B55"/>
<path d="M45.2227 76.9746L48.2547 78.7253C48.56 78.9013 49.052 78.9013 49.352 78.7253L52.3653 76.9746C52.6693 76.7973 52.6707 76.5133 52.364 76.3373L49.332 74.5866C49.0253 74.4093 48.532 74.4093 48.2307 74.5866L45.216 76.3373C44.9147 76.512 44.916 76.7973 45.2227 76.9746Z" fill="#494B55"/>
<path d="M82.764 32.9773L85.796 34.7279C86.1 34.9026 86.5933 34.9026 86.8947 34.7279L89.9093 32.976C90.212 32.8 90.2093 32.5146 89.9067 32.34L86.8733 30.5879C86.5693 30.4119 86.0747 30.4119 85.7747 30.5866L82.7587 32.34C82.4573 32.5146 82.4587 32.8 82.764 32.9773Z" fill="#494B55"/>
<path d="M78.04 35.7226L81.0733 37.4733C81.376 37.648 81.8693 37.648 82.1707 37.4733L85.1853 35.7213C85.4867 35.5453 85.4854 35.26 85.1827 35.0853L82.1494 33.3333C81.844 33.1573 81.3507 33.1573 81.0494 33.332L78.0333 35.0853C77.7333 35.26 77.7347 35.5453 78.04 35.7226Z" fill="#494B55"/>
<path d="M73.316 38.4667L76.3493 40.2186C76.652 40.3933 77.1453 40.3933 77.4467 40.2186L80.4613 38.4667C80.7627 38.2907 80.7613 38.0053 80.4587 37.8307L77.4253 36.0787C77.12 35.9027 76.6267 35.9027 76.3253 36.0773L73.3093 37.8307C73.0093 38.0053 73.0107 38.2907 73.316 38.4667Z" fill="#494B55"/>
<path d="M68.5907 41.212L71.6253 42.964C71.928 43.1386 72.4213 43.1386 72.724 42.9626L75.7387 41.2106C76.0387 41.0373 76.0373 40.7506 75.7346 40.576L72.7013 38.8239C72.396 38.6479 71.9026 38.6479 71.6013 38.8226L68.588 40.5746C68.2853 40.7506 68.2867 41.0373 68.5907 41.212Z" fill="#494B55"/>
<path d="M89.7613 45.5813L92.7946 47.3333C93.1 47.5093 93.5906 47.508 93.892 47.3333L96.9066 45.5813C97.2093 45.4053 97.2093 45.1213 96.9053 44.9453L93.8706 43.1933C93.5666 43.0173 93.0733 43.0173 92.772 43.192L89.756 44.9453C89.4546 45.12 89.4573 45.4053 89.7613 45.5813Z" fill="#2D2F3A"/>
<path d="M39.7667 80.1453L42.7987 81.896C43.1053 82.072 43.596 82.0706 43.9 81.8946L47.6413 79.72C47.9453 79.5426 47.9453 79.2587 47.64 79.0827L44.6067 77.332C44.3013 77.1546 43.808 77.1546 43.5053 77.332L39.7627 79.5067C39.46 79.6827 39.4613 79.968 39.7667 80.1453Z" fill="#494B55"/>
<path d="M39.6306 58.0426L42.6653 59.7933C42.968 59.968 43.4613 59.968 43.764 59.792L71.0146 43.9573C71.3146 43.7826 71.3133 43.496 71.0106 43.3213L67.976 41.5693C67.672 41.3933 67.1786 41.3933 66.8773 41.568L39.628 57.404C39.3253 57.58 39.3266 57.8666 39.6306 58.0426Z" fill="#494B55"/>
<path d="M101.212 49.9453L102.028 50.4173C102.333 50.5933 102.825 50.5946 103.128 50.4173L106.141 48.6666C106.445 48.4906 106.441 48.2066 106.135 48.0293L105.319 47.5586C105.015 47.3813 104.523 47.3799 104.22 47.5573L101.205 49.308C100.904 49.4853 100.907 49.7693 101.212 49.9453Z" fill="#2D2F3A"/>
<path d="M96.488 52.6906L97.304 53.1613C97.6093 53.3386 98.1 53.34 98.404 53.1626L101.417 51.412C101.721 51.236 101.717 50.952 101.411 50.7746L100.595 50.304C100.291 50.1266 99.7986 50.1253 99.496 50.3026L96.4813 52.0533C96.1787 52.2306 96.1826 52.5146 96.488 52.6906Z" fill="#2D2F3A"/>
<path d="M91.7627 55.436L92.58 55.9066C92.8853 56.084 93.376 56.0853 93.68 55.908L96.692 54.1573C96.996 53.9813 96.9946 53.696 96.6893 53.5186L95.8733 53.048C95.568 52.872 95.0733 52.872 94.772 53.048L91.7573 54.7986C91.4546 54.976 91.4587 55.26 91.7627 55.436Z" fill="#2D2F3A"/>
<path d="M87.0387 58.1813L87.8546 58.6519C88.1613 58.8293 88.652 58.8306 88.956 58.6533L91.968 56.9026C92.272 56.7266 92.2706 56.4413 91.9653 56.264L91.148 55.7933C90.844 55.6173 90.3507 55.6173 90.0467 55.7933L87.0333 57.544C86.7306 57.7213 86.7347 58.0053 87.0387 58.1813Z" fill="#2D2F3A"/>
<path d="M82.3147 60.9266L83.1307 61.3986C83.4373 61.5746 83.9293 61.5746 84.232 61.4L87.244 59.648C87.548 59.472 87.5467 59.1866 87.24 59.0106L86.424 58.5386C86.12 58.3626 85.6266 58.3626 85.3226 58.5386L82.3093 60.2906C82.008 60.4653 82.0107 60.7506 82.3147 60.9266Z" fill="#2D2F3A"/>
<path d="M77.5906 63.672L78.4067 64.144C78.712 64.32 79.2053 64.32 79.5067 64.1453L82.52 62.3933C82.824 62.2173 82.8226 61.932 82.5173 61.756L81.7 61.284C81.396 61.108 80.9027 61.108 80.5987 61.284L77.5853 63.036C77.284 63.2106 77.2853 63.496 77.5906 63.672Z" fill="#2D2F3A"/>
<path d="M72.8667 66.4173L73.684 66.8893C73.988 67.0653 74.4814 67.0653 74.7827 66.8906L77.796 65.1386C78.1 64.9626 78.0973 64.6773 77.7933 64.5013L76.976 64.0293C76.6707 63.8533 76.1787 63.8533 75.8747 64.0293L72.86 65.7813C72.56 65.956 72.5613 66.2413 72.8667 66.4173Z" fill="#2D2F3A"/>
<path d="M68.1413 69.1626L68.96 69.6346C69.264 69.8106 69.7573 69.8106 70.0586 69.636L73.0733 67.8827C73.3746 67.708 73.3733 67.4227 73.0693 67.2467L72.252 66.7747C71.9466 66.5987 71.4533 66.5987 71.152 66.7733L68.136 68.5266C67.836 68.7013 67.8373 68.9866 68.1413 69.1626Z" fill="#2D2F3A"/>
<path d="M63.4173 71.908L64.2347 72.38C64.54 72.556 65.0333 72.556 65.3347 72.3813L68.3507 70.628C68.6507 70.4533 68.6493 70.168 68.3453 69.992L67.5266 69.52C67.2226 69.344 66.7293 69.344 66.428 69.5186L63.412 71.272C63.112 71.4466 63.1133 71.732 63.4173 71.908Z" fill="#2D2F3A"/>
<path d="M58.6933 74.6533L59.5106 75.1253C59.816 75.3013 60.308 75.3013 60.6106 75.1266L63.6266 73.3733C63.9266 73.1987 63.9253 72.9133 63.62 72.7373L62.8027 72.2653C62.4987 72.0893 62.0053 72.0893 61.704 72.264L58.688 74.0173C58.388 74.192 58.3893 74.4773 58.6933 74.6533Z" fill="#2D2F3A"/>
<path d="M53.9693 77.4L54.7867 77.8706C55.0907 78.0466 55.584 78.0466 55.8867 77.872L58.9027 76.12C59.2027 75.944 59.2013 75.6587 58.896 75.4827L58.0787 75.0106C57.7747 74.8346 57.2813 74.8346 56.98 75.0106L53.964 76.7626C53.6627 76.9373 53.6653 77.2226 53.9693 77.4Z" fill="#2D2F3A"/>
<path d="M105.936 47.2L106.752 47.672C107.057 47.8467 107.549 47.848 107.852 47.672L111.597 45.496C111.899 45.3213 111.897 45.036 111.591 44.8587L110.775 44.388C110.469 44.2106 109.976 44.212 109.676 44.3866L105.931 46.5627C105.628 46.7387 105.631 47.024 105.936 47.2Z" fill="#2D2F3A"/>
<path d="M94.4533 42.8173L97.488 44.5693C97.792 44.7453 98.2853 44.7453 98.5853 44.5693L104.271 41.2653C104.572 41.092 104.571 40.8053 104.267 40.6307L101.232 38.8773C100.928 38.7027 100.435 38.7027 100.133 38.8773L94.4493 42.1813C94.148 42.3573 94.1493 42.6426 94.4533 42.8173Z" fill="#2D2F3A"/>
<path d="M87.304 41.4266L90.3386 43.1786C90.6426 43.3546 91.136 43.3546 91.4373 43.1786L99.484 38.5026C99.7866 38.328 99.784 38.0413 99.4786 37.8666L96.4453 36.1146C96.14 35.9386 95.6493 35.94 95.348 36.1146L87.3 40.7906C87 40.9666 87 41.2506 87.304 41.4266Z" fill="#2D2F3A"/>
<path d="M82.4853 38.6453L85.52 40.3973C85.824 40.572 86.3173 40.572 86.6186 40.3973L94.6653 35.7213C94.9667 35.5453 94.964 35.2599 94.6627 35.0853L91.6267 33.332C91.324 33.1573 90.8307 33.1573 90.528 33.332L82.4813 38.0093C82.1813 38.184 82.1826 38.4693 82.4853 38.6453Z" fill="#2D2F3A"/>
<path d="M34.9773 77.38L38.0147 79.1333C38.316 79.308 38.8093 79.308 39.1133 79.132L44.9107 75.7626C45.2133 75.5866 45.2107 75.3013 44.9067 75.1266L41.872 73.3733C41.5693 73.1986 41.0773 73.1986 40.7747 73.3733L34.976 76.7426C34.6733 76.92 34.676 77.2053 34.9773 77.38Z" fill="#494B55"/>
<path d="M30.192 74.6173L33.2253 76.368C33.5306 76.544 34.0226 76.544 34.3266 76.368L42.4867 71.6266C42.7907 71.4506 42.7866 71.1653 42.4813 70.9893L39.448 69.2373C39.1426 69.0626 38.6533 69.0626 38.3507 69.2373L30.1907 73.98C29.888 74.156 29.8866 74.4413 30.192 74.6173Z" fill="#494B55"/>
<path d="M27.676 67.556L28.4947 68.0293C28.7973 68.204 29.2893 68.2053 29.592 68.0293L32.6053 66.2773C32.908 66.1013 32.9053 65.8173 32.6013 65.6413L31.784 65.1693C31.4773 64.992 30.9893 64.992 30.6853 65.1693L27.672 66.92C27.368 67.096 27.3707 67.38 27.676 67.556Z" fill="#494B55"/>
<path d="M25.4613 66.2773L26.2773 66.7493C26.5827 66.9253 27.0733 66.9266 27.3773 66.7506L30.3907 64.9987C30.6934 64.8227 30.6893 64.5386 30.3853 64.3613L29.5693 63.8906C29.2627 63.7133 28.772 63.7133 28.468 63.8893L25.456 65.64C25.152 65.8173 25.156 66.1013 25.4613 66.2773Z" fill="#494B55"/>
<path d="M44.7893 66.1346L47.8213 67.8853C48.128 68.0626 48.6187 68.0626 48.9213 67.8866L51.9347 66.136C52.2387 65.9586 52.2347 65.6746 51.9293 65.4986L48.8973 63.748C48.5907 63.5707 48.1013 63.5707 47.7987 63.748L44.7853 65.4986C44.4813 65.6746 44.484 65.9573 44.7893 66.1346Z" fill="#494B55"/>
<path d="M40.0653 68.88L43.0973 70.6307C43.404 70.808 43.8947 70.808 44.1973 70.632L47.2107 68.8813C47.5147 68.7053 47.5107 68.42 47.2053 68.244L44.172 66.492C43.8667 66.3173 43.3773 66.3173 43.0733 66.4933L40.0613 68.244C39.7573 68.42 39.7587 68.704 40.0653 68.88Z" fill="#494B55"/>
<path d="M39.9693 63.352L43.0053 65.104C43.308 65.28 43.7987 65.2813 44.1027 65.104L47.116 63.3533C47.4187 63.1773 47.4147 62.8933 47.1133 62.7173L44.0773 60.9653C43.7747 60.7906 43.2827 60.7893 42.98 60.9653L39.9653 62.716C39.6627 62.8933 39.6667 63.1773 39.9693 63.352Z" fill="#494B55"/>
<path d="M35.2453 66.0973L38.2813 67.8493C38.584 68.0253 39.0746 68.0266 39.3786 67.8493L42.392 66.0986C42.6946 65.9226 42.6906 65.6386 42.388 65.4626L39.352 63.7106C39.0506 63.536 38.5586 63.5346 38.2546 63.7106L35.2413 65.4613C34.9386 65.6386 34.9426 65.9226 35.2453 66.0973Z" fill="#494B55"/>
<path d="M30.5213 68.8427L33.5573 70.596C33.8587 70.7706 34.3507 70.772 34.6547 70.596L37.668 68.844C37.9707 68.668 37.9667 68.3827 37.664 68.208L34.628 66.456C34.3253 66.2813 33.8347 66.28 33.5307 66.456L30.5173 68.2067C30.2147 68.384 30.2187 68.668 30.5213 68.8427Z" fill="#494B55"/>
<path d="M25.3733 71.8346L28.408 73.5879C28.712 73.7626 29.204 73.7626 29.508 73.5866L32.944 71.5893C33.2466 71.4133 33.2427 71.1279 32.94 70.9546L29.9053 69.2013C29.6013 69.0266 29.1107 69.0253 28.8067 69.2013L25.372 71.1986C25.0693 71.3733 25.0707 71.66 25.3733 71.8346Z" fill="#494B55"/>
<path d="M54.2373 60.644L57.2707 62.3946C57.5747 62.5706 58.068 62.572 58.3693 62.396L61.384 60.6453C61.6867 60.468 61.684 60.184 61.3773 60.008L58.3453 58.2573C58.04 58.08 57.5507 58.08 57.2467 58.2573L54.2347 60.008C53.9307 60.184 53.932 60.468 54.2373 60.644Z" fill="#494B55"/>
<path d="M49.5133 63.3893L52.5467 65.14C52.8507 65.3173 53.3427 65.3186 53.6453 65.1413L56.66 63.3906C56.9613 63.2133 56.96 62.9293 56.6533 62.7533L53.6213 61.0026C53.3147 60.8253 52.8267 60.8253 52.5227 61.0026L49.5093 62.7533C49.2067 62.9293 49.208 63.212 49.5133 63.3893Z" fill="#494B55"/>
<path d="M49.4173 57.8613L52.4533 59.6133C52.756 59.7893 53.248 59.7907 53.5507 59.6133L56.5653 57.8626C56.868 57.6866 56.864 57.4013 56.5613 57.2266L53.5253 55.4746C53.2227 55.2986 52.732 55.2973 52.428 55.4746L49.4147 57.2253C49.112 57.4013 49.1147 57.6866 49.4173 57.8613Z" fill="#494B55"/>
<path d="M44.6933 60.6066L47.7293 62.3586C48.032 62.5346 48.5226 62.536 48.8266 62.3586L51.8413 60.608C52.1427 60.432 52.14 60.148 51.8373 59.972L48.8013 58.2199C48.4987 58.0439 48.008 58.0426 47.704 58.2199L44.6893 59.9706C44.388 60.148 44.3906 60.432 44.6933 60.6066Z" fill="#494B55"/>
<path d="M63.684 55.1533L66.7173 56.9053C67.0213 57.0813 67.516 57.0813 67.8187 56.9053L70.832 55.1533C71.1347 54.9773 71.1307 54.6933 70.8267 54.5173L67.7933 52.7653C67.488 52.5893 66.9987 52.5893 66.6947 52.7653L63.6827 54.5173C63.3787 54.6933 63.3787 54.9773 63.684 55.1533Z" fill="#2D2F3A"/>
<path d="M58.96 57.9L61.992 59.6506C62.2973 59.8266 62.792 59.8266 63.0947 59.6506L66.108 57.9C66.4107 57.7226 66.4067 57.4386 66.1027 57.2626L63.0693 55.512C62.764 55.3347 62.2747 55.3347 61.9707 55.512L58.9587 57.2626C58.6547 57.4386 58.6547 57.7226 58.96 57.9Z" fill="#494B55"/>
<path d="M58.864 52.372L61.9 54.1239C62.2027 54.2986 62.696 54.2986 63 54.1239L66.0133 52.372C66.316 52.196 66.312 51.9106 66.0093 51.736L62.9733 49.9839C62.6707 49.8079 62.18 49.8079 61.876 49.9839L58.8627 51.7346C58.56 51.9106 58.5613 52.1973 58.864 52.372Z" fill="#494B55"/>
<path d="M54.14 55.1173L57.176 56.8693C57.4786 57.044 57.972 57.044 58.276 56.868L61.2893 55.1173C61.592 54.9413 61.588 54.656 61.2853 54.4813L58.2493 52.7293C57.9467 52.5533 57.456 52.5533 57.152 52.7293L54.1387 54.48C53.836 54.656 53.8373 54.9426 54.14 55.1173Z" fill="#494B55"/>
<path d="M73.1307 49.6626L76.1653 51.4147C76.4693 51.5907 76.9627 51.5907 77.2667 51.4147L80.2813 49.6626C80.5827 49.4866 80.58 49.2026 80.2747 49.0266L77.2413 47.2747C76.936 47.0987 76.448 47.0987 76.144 47.2747L73.1293 49.0266C72.8267 49.2026 72.8267 49.4866 73.1307 49.6626Z" fill="#2D2F3A"/>
<path d="M68.4066 52.408L71.4413 54.16C71.7453 54.336 72.24 54.336 72.5427 54.16L75.556 52.408C75.8586 52.232 75.8546 51.948 75.5506 51.772L72.5173 50.02C72.212 49.844 71.7226 49.844 71.42 50.02L68.4066 51.772C68.1026 51.948 68.1026 52.2333 68.4066 52.408Z" fill="#2D2F3A"/>
<path d="M68.312 46.8813L71.3494 48.6333C71.6507 48.808 72.144 48.808 72.448 48.632L75.4613 46.8813C75.764 46.7053 75.7613 46.42 75.4587 46.2453L72.4227 44.492C72.12 44.3186 71.628 44.3173 71.3253 44.492L68.3107 46.244C68.008 46.42 68.0107 46.7066 68.312 46.8813Z" fill="#2D2F3A"/>
<path d="M63.588 49.6266L66.624 51.3787C66.9267 51.5533 67.42 51.5533 67.724 51.3773L70.7373 49.6266C71.04 49.4506 71.036 49.1653 70.7347 48.9906L67.6973 47.2373C67.396 47.0627 66.904 47.0627 66.6013 47.2373L63.5867 48.9893C63.284 49.1653 63.2853 49.452 63.588 49.6266Z" fill="#494B55"/>
<path d="M82.58 44.172L85.6133 45.924C85.9187 46.1 86.412 46.1 86.7147 45.924L89.7293 44.172C90.0293 43.9973 90.028 43.712 89.724 43.536L86.6893 41.784C86.3853 41.608 85.8933 41.6093 85.592 41.784L82.5787 43.536C82.276 43.712 82.2747 43.996 82.58 44.172Z" fill="#2D2F3A"/>
<path d="M77.856 46.9173L80.8893 48.6693C81.1947 48.8453 81.6867 48.8453 81.9907 48.6693L85.0053 46.9173C85.308 46.7413 85.304 46.4573 84.9987 46.2813L81.9653 44.5293C81.66 44.3533 81.172 44.3533 80.868 44.5293L77.8547 46.2813C77.552 46.4573 77.5507 46.7413 77.856 46.9173Z" fill="#2D2F3A"/>
<path d="M77.7613 41.3906L80.796 43.1426C81.1 43.3173 81.5933 43.3173 81.896 43.1413L84.9093 41.3906C85.2106 41.2146 85.2093 40.9293 84.9066 40.7546L81.8706 39.0013C81.568 38.8266 81.0733 38.8266 80.7733 39.0013L77.76 40.7533C77.4573 40.9293 77.4586 41.2146 77.7613 41.3906Z" fill="#2D2F3A"/>
<path d="M73.0373 44.1359L76.0733 45.8879C76.376 46.0626 76.868 46.0626 77.172 45.8866L80.1853 44.1359C80.4893 43.9586 80.4854 43.6746 80.1827 43.4999L77.1467 41.7466C76.844 41.572 76.352 41.5706 76.0494 41.7466L73.0347 43.4986C72.7333 43.6746 72.7347 43.9599 73.0373 44.1359Z" fill="#2D2F3A"/>
<path d="M34.9066 60.7879L37.9413 62.54C38.2426 62.7133 38.7373 62.7133 39.04 62.5386L42.0533 60.7866C42.356 60.6106 42.3533 60.3253 42.0506 60.1506L39.0173 58.4C38.712 58.224 38.2213 58.2226 37.9173 58.3986L34.904 60.1493C34.6 60.3253 34.6026 60.6119 34.9066 60.7879Z" fill="#494B55"/>
<path d="M30.184 63.532L33.2187 65.284C33.5213 65.4573 34.0133 65.4586 34.316 65.284L37.3293 63.532C37.632 63.356 37.628 63.0706 37.3267 62.896L34.2933 61.1453C33.988 60.9693 33.496 60.968 33.192 61.144L30.18 62.8946C29.876 63.0706 29.88 63.356 30.184 63.532Z" fill="#494B55"/>
<path d="M20.62 69.0906L23.6533 70.8426C23.9573 71.0173 24.4507 71.0173 24.752 70.8413L27.7667 69.0893C28.068 68.9146 28.0667 68.628 27.7627 68.4533L24.7307 66.7026C24.424 66.5266 23.9307 66.5266 23.6293 66.7013L20.6173 68.4533C20.3133 68.628 20.3147 68.9146 20.62 69.0906Z" fill="#494B55"/>
<path d="M64.6773 38.6146L52.344 31.4946C51.6226 31.0773 50.456 31.0773 49.7386 31.4946L22.6453 47.2386C21.928 47.656 21.932 48.332 22.6533 48.7493L34.9866 55.8693C35.708 56.2866 36.876 56.2866 37.592 55.8693L64.6853 40.1239C65.4026 39.7079 65.3986 39.032 64.6773 38.6146Z" fill="#D2D3E0"/>
<mask id="mask1_5_2245" style="mask-type:luminance" maskUnits="userSpaceOnUse" x="48" y="0" width="94" height="90">
<path d="M141.297 2.5173L139.591 1.07733L139.583 1.07065L139.573 1.06398V1.06531C139.285 0.847982 138.665 0.962639 137.811 1.45597L71.3347 39.836C69.7947 40.724 68.084 42.504 67.5147 43.8093L48.56 87.0173C48.376 87.4386 48.38 87.7266 48.5333 87.8666L48.532 87.868L48.544 87.8773L48.5453 87.8787L50.2453 89.3133L56.0733 84.02L117.712 48.4333C118.881 47.7586 120.18 46.408 120.613 45.4173L138.207 5.32531L141.297 2.5173Z" fill="white"/>
</mask>
<g mask="url(#mask1_5_2245)">
<path d="M141.297 2.5173L139.591 1.07733L139.583 1.07065L139.573 1.06398V1.06531C139.285 0.847982 138.665 0.962639 137.811 1.45597L71.3347 39.836C69.7947 40.724 68.084 42.504 67.5147 43.8093L48.56 87.0173C48.376 87.4386 48.38 87.7266 48.5333 87.8666L48.532 87.868L48.544 87.8773L48.5453 87.8787L50.2453 89.3133L56.0733 84.02L117.712 48.4333C118.881 47.7586 120.18 46.408 120.613 45.4173L138.207 5.32531L141.297 2.5173Z" fill="url(#paint1_linear_5_2245)"/>
</g>
<path d="M139.533 2.90932L73.0573 41.2906C71.5173 42.1786 69.8067 43.9573 69.2373 45.2626L50.2827 88.4706C49.8493 89.4613 50.448 89.716 51.6173 89.0413L119.435 49.8866C120.604 49.212 121.903 47.8613 122.336 46.8706L141.289 3.66264C141.86 2.3573 141.073 2.01998 139.533 2.90932Z" fill="#BBC0D1"/>
<path d="M103.091 23.9493L83.164 35.4546L86.8333 68.7093L106.612 57.2906L103.091 23.9493Z" fill="#C5C9DE"/>
<path d="M22.6453 47.6253L49.7386 31.8813C50.456 31.464 51.6226 31.464 52.3453 31.8813L64.6773 39.0013C64.956 39.1626 65.1253 39.3613 65.188 39.5693C65.296 39.2346 65.1266 38.8746 64.6773 38.6146L52.3453 31.4946C51.6226 31.0786 50.456 31.0786 49.7386 31.4946L22.6453 47.2386C22.204 47.496 22.0387 47.8493 22.1413 48.1813C22.2067 47.9773 22.3746 47.7839 22.6453 47.6253Z" fill="#BBC0D1"/>
<defs>
<linearGradient id="paint0_linear_5_2245" x1="0.70932" y1="54.9013" x2="116.689" y2="54.9013" gradientUnits="userSpaceOnUse">
<stop stop-color="#939ABA"/>
<stop offset="0.0138473" stop-color="#939ABA"/>
<stop offset="0.382543" stop-color="#939ABA"/>
<stop offset="0.448694" stop-color="#7782AA"/>
<stop offset="1" stop-color="#7782AA"/>
</linearGradient>
<linearGradient id="paint1_linear_5_2245" x1="67.304" y1="83.556" x2="119.887" y2="6.99626" gradientUnits="userSpaceOnUse">
<stop stop-color="#939ABA"/>
<stop offset="0.0138473" stop-color="#939ABA"/>
<stop offset="0.357774" stop-color="#939ABA"/>
<stop offset="0.422007" stop-color="#E2E2ED"/>
<stop offset="1" stop-color="#E2E2ED"/>
</linearGradient>
</defs>
</svg>
