<svg width="480" height="480" viewBox="0 0 480 480" fill="none" xmlns="http://www.w3.org/2000/svg">
<path d="M148.602 316.946C164.351 354.379 185.645 383.608 212.485 404.634C239.76 425.489 265.989 430.957 291.172 421.037C328.947 406.157 353.697 379.856 365.421 342.134L384.13 343.793C379.748 369.594 369.235 391.29 352.591 408.881C336.381 426.301 311.776 441.51 278.777 454.509C261.844 461.179 244.404 465.29 226.457 466.842C208.339 467.96 189.025 466.039 168.512 461.078C148.263 455.512 128.699 443.407 109.819 424.762C91.3725 405.947 75.9922 380.908 63.6778 349.646C48.7978 311.871 49.4698 274.741 65.6937 238.257C82.1807 201.167 111.7 174.241 154.251 157.479C200.71 139.179 241.965 138.226 278.015 154.621C313.895 170.581 339.36 197.666 354.411 235.876L148.602 316.946ZM141.301 296.499L259.836 249.807C245.087 220.005 230.339 198.479 215.59 185.23C201.104 171.375 184.96 167.953 167.158 174.966C151.527 181.123 140.58 194.714 134.316 215.74C128.316 236.16 130.644 263.08 141.301 296.499Z" fill="#545454"/>
<path d="M197 260L231 247L232 448.5C232.333 455.167 234.5 468 240 471.5H197C199 470.833 203.5 466 205.5 452C207.5 438 206.667 334.5 206 284.5C205.833 279.167 203.8 266.8 197 260Z" fill="#FF914D"/>
<circle cx="211" cy="221" r="22" fill="#FF914D"/>
<path d="M143.234 117H110L143.234 113.5V117Z" fill="#FF914D"/>
<path d="M269 116.5H160V112.5L269 102.5V116.5Z" fill="#FF914D"/>
<path d="M287 116.5V101L369.5 93C445.5 270 378.5 402.5 328.5 477.5C391 340 398 205 340.5 116.5H287Z" fill="#FF914D"/>
<path d="M148 59.0448V131.545H155.5V59.0448C155.5 41.5448 171.5 7.54484 212.5 8.54484C253.5 9.54484 272 32.0443 274 54.0448C276 76.0454 274 131.545 274 131.545H282C282 131.545 284 73.0437 282 54.0448C280 35.046 262.5 -1.45528 212.5 0.0448501C162.5 1.54498 149.167 39.7115 148 59.0448Z" fill="#FF914D"/>
<circle cx="278.5" cy="135.5" r="7.5" fill="#FF914D"/>
<circle cx="152.5" cy="135.5" r="7.5" fill="#FF914D"/>
</svg>
