<svg width="161" height="100" viewBox="0 0 161 100" fill="none" xmlns="http://www.w3.org/2000/svg">
<path d="M61.5347 49.6027C61.5347 33.8347 68.9013 19.796 80.3693 10.7107C71.9133 4.01199 61.2293 -4.25943e-06 49.6027 -4.25943e-06C22.208 -4.25943e-06 0 22.208 0 49.6027C0 76.9973 22.208 99.2053 49.6027 99.2053C61.2293 99.2053 71.9133 95.1947 80.3693 88.4947C68.9013 79.4093 61.5347 65.3707 61.5347 49.6027Z" fill="#E42228"/>
<path d="M61.5347 49.6026C61.5347 65.3706 68.9013 79.4093 80.3693 88.4946C91.8387 79.4093 99.2053 65.3706 99.2053 49.6026C99.2053 33.8346 91.8387 19.796 80.3693 10.7106C68.9013 19.796 61.5347 33.8346 61.5347 49.6026Z" fill="#EB6521"/>
<path d="M160.413 76.7391V75.2418L159.928 76.5338H159.392L158.907 75.2458V76.7391H158.4V74.5818H159.125L159.661 75.9631L160.195 74.5818H160.919V76.7391H160.413ZM156.789 76.7391V75.0471H156.104V74.5818H157.979V75.0471H157.295V76.7391H156.789Z" fill="#F6A113"/>
<path d="M111.137 0.000351779C99.5104 0.000351779 88.8264 4.01101 80.3704 10.711C91.8384 19.7963 99.2051 33.835 99.2051 49.603C99.2051 65.371 91.8384 79.4097 80.3704 88.495C88.8264 95.1937 99.5104 99.2043 111.137 99.2043C138.532 99.2043 160.74 76.9977 160.74 49.603C160.74 22.2084 138.532 0.000351779 111.137 0.000351779Z" fill="#F6A113"/>
</svg>
