<svg width="312" height="312" viewBox="0 0 312 312" fill="none" xmlns="http://www.w3.org/2000/svg">
<g clip-path="url(#clip0_309_2)">
<path d="M155.91 311.82C242.017 311.82 311.82 242.017 311.82 155.91C311.82 69.8033 242.017 0 155.91 0C69.8033 0 0 69.8033 0 155.91C0 242.017 69.8033 311.82 155.91 311.82Z" fill="#E60000"/>
<path d="M157.13 242.31C114.56 242.45 70.26 206.12 70.07 147.77C69.95 109.18 90.76 72 117.37 50C143.37 28.51 178.88 14.72 211.13 14.61C215.28 14.61 219.62 14.94 222.28 15.84C194.08 21.69 171.64 47.93 171.74 77.7C171.737 78.5437 171.801 79.3862 171.93 80.22C219.11 91.71 240.53 120.22 240.66 159.57C240.79 198.92 209.69 242.13 157.13 242.31Z" fill="white"/>
</g>
<defs>
<clipPath id="clip0_309_2">
<rect width="311.81" height="311.81" fill="white"/>
</clipPath>
</defs>
</svg>
