<svg width="105" height="132" viewBox="0 0 105 132" fill="none" xmlns="http://www.w3.org/2000/svg">
<path d="M0.331726 115.477L0.364526 115.596C1.08599 118.26 3.05933 120.404 5.65359 121.343L32.7041 131.129V128.516L0.443726 111.137L0.331726 115.477Z" fill="#7D86AD"/>
<path d="M13.1026 93.576C13.1026 93.576 9.57023 91.6521 8.3917 91.6521C7.2145 91.6521 5.6521 91.736 5.6521 94.4478C5.6521 97.1588 7.99943 97.7349 7.99943 97.7349L13.8864 99.864C13.8864 99.864 17.4193 94.8136 13.1026 93.576Z" fill="#353C47"/>
<path d="M9.48438 92.3104C10.914 93.136 12.3906 94.5494 11.7917 94.8958C11.1926 95.2412 8.74478 94.388 7.31451 93.5625C5.88544 92.7374 6.48544 92.5224 7.08438 92.177C7.68331 91.8317 8.05304 91.4854 9.48438 92.3104Z" fill="#353C47"/>
<path d="M6.43597 92.7802V67.2052L11.9281 69.0984V94.6958L6.43597 92.7802Z" fill="#353C47"/>
<path d="M9.48438 66.7683C10.914 67.5932 12.3906 69.0068 11.7917 69.3521C11.1926 69.6973 8.74478 68.8453 7.31451 68.0197C5.88544 67.1948 6.48544 66.9802 7.08438 66.6344C7.68331 66.289 8.05304 65.9427 9.48438 66.7683Z" fill="#5F6670"/>
<path d="M9.20163 66.8666C10.2172 67.4521 11.4828 68.5812 11.0584 68.8265C10.6323 69.0718 8.67817 68.3412 7.66257 67.7546C6.64697 67.1693 7.07297 67.0161 7.49844 66.7708C7.92457 66.5254 8.18697 66.2802 9.20163 66.8666Z" fill="#353C47"/>
<path d="M7.03638 26.6172V67.164L11.1417 68.6838L10.1797 27.9958C10.1797 27.9958 7.43331 26.1254 7.03638 26.6172Z" fill="#353C47"/>
<path d="M9.23029 26.6521C10.264 27.4864 10.3708 28.253 9.94269 28.4478C9.51309 28.6412 8.71043 28.188 7.67549 27.3546C6.64176 26.5197 7.07296 26.4292 7.50269 26.236C7.93069 26.0426 8.19642 25.8188 9.23029 26.6521Z" fill="#5F6670"/>
<path d="M35.3552 80.7281C35.3552 80.7281 31.824 78.8026 30.6458 78.8026C29.4688 78.8026 27.9062 78.888 27.9062 81.6C27.9062 84.3104 30.2536 84.8864 30.2536 84.8864L36.1406 87.0161C36.1406 87.0161 39.6729 81.965 35.3552 80.7281Z" fill="#353C47"/>
<path d="M31.7369 79.4625C33.1667 80.288 34.6443 81.7016 34.0453 82.0469C33.4464 82.3932 30.9984 81.5401 29.5688 80.7145C28.1391 79.889 28.7396 79.6745 29.338 79.3292C29.9369 78.9838 30.3073 78.6374 31.7369 79.4625Z" fill="#353C47"/>
<path d="M28.6901 79.9317V54.3573L34.1817 56.2505V81.8478L28.6901 79.9317Z" fill="#353C47"/>
<path d="M31.7369 53.9197C33.1667 54.7453 34.6443 56.1588 34.0453 56.5041C33.4464 56.8494 30.9984 55.9973 29.5688 55.1718C28.1391 54.3453 28.7396 54.1317 29.338 53.7864C29.9369 53.4401 30.3073 53.0948 31.7369 53.9197Z" fill="#5F6670"/>
<path d="M31.4557 54.0172C32.4708 54.6041 33.7369 55.7333 33.3125 55.9787C32.8864 56.224 30.9307 55.4932 29.9167 54.9068C28.9011 54.3197 29.3265 54.1693 29.7527 53.9224C30.1765 53.6771 30.4401 53.4317 31.4557 54.0172Z" fill="#353C47"/>
<path d="M29.2901 13.7682V54.3161L33.3959 55.836L32.4317 15.1478C32.4317 15.1478 29.686 13.277 29.2901 13.7682Z" fill="#353C47"/>
<path d="M31.4844 13.8041C32.5183 14.6385 32.6251 15.4052 32.1964 15.5984C31.7667 15.7932 30.9636 15.3401 29.9297 14.5068C28.8959 13.6718 29.3265 13.5828 29.7563 13.388C30.1849 13.1948 30.4505 12.9708 31.4844 13.8041Z" fill="#5F6670"/>
<path d="M57.6093 67.8802C57.6093 67.8802 54.0765 65.9546 52.8995 65.9546C51.7224 65.9546 50.1599 66.0401 50.1599 68.7521C50.1599 71.4625 52.5079 72.0385 52.5079 72.0385L58.3942 74.1682C58.3942 74.1682 61.9265 69.1172 57.6093 67.8802Z" fill="#353C47"/>
<path d="M53.9907 66.6145C55.4203 67.4401 56.8984 68.853 56.2989 69.1983C55.7005 69.5437 53.2527 68.6921 51.8229 67.8666C50.3927 67.0401 50.9932 66.8265 51.5912 66.4812C52.1901 66.1344 52.5609 65.789 53.9907 66.6145Z" fill="#353C47"/>
<path d="M50.9437 67.0838V41.5093L56.436 43.4026V69L50.9437 67.0838Z" fill="#353C47"/>
<path d="M53.9907 41.0707C55.4203 41.8973 56.8984 43.3103 56.2989 43.6562C55.7005 44.0015 53.2527 43.1494 51.8229 42.3229C50.3927 41.4973 50.9932 41.2838 51.5912 40.9374C52.1901 40.5921 52.5609 40.2453 53.9907 41.0707Z" fill="#5F6670"/>
<path d="M53.7093 41.1693C54.7251 41.7557 55.9907 42.8838 55.5651 43.1291C55.1407 43.3745 53.1849 42.6453 52.1693 42.0587C51.1547 41.4718 51.5807 41.3197 52.0063 41.0745C52.4307 40.8292 52.6937 40.5838 53.7093 41.1693Z" fill="#353C47"/>
<path d="M51.5427 0.921298L51.5437 41.4666L55.6495 42.9864L54.686 2.29996C54.686 2.29996 51.9401 0.429298 51.5427 0.921298Z" fill="#353C47"/>
<path d="M9.19788 95.5136L4.94121 100.903L0.443748 111.137C0.377081 114.64 2.55735 117.792 5.85681 118.967L32.7041 128.516L32.0427 116.16L9.19788 95.5136Z" fill="#ACB1C8"/>
<path d="M89.8656 69.5864C85.8265 64.8265 79.9593 62.1469 73.8803 62.0932C72.2797 62.0802 70.6667 62.2385 69.0661 62.5984L67.2797 63C65.3593 63.4265 63.5193 64.1469 61.8265 65.1197L9.19894 95.5197L6.71974 99.1734C4.55934 102.373 5.98694 106.76 9.62601 108.08L32.0401 116.16L47.6667 113.879L95.0253 86.5333L97.3734 78.4401L89.8656 69.5864Z" fill="#E3E2E7"/>
<path d="M70.1459 63.9317L31.6536 111.747L32.0401 116.16L9.62601 108.08C5.98694 106.76 4.55934 102.373 6.71974 99.1734L9.19894 95.5197L61.8265 65.1197C63.5193 64.1469 65.3593 63.4265 67.2797 63L69.0661 62.5984C70.6667 62.2385 72.2797 62.0802 73.8803 62.0932C71.4401 62.8136 70.1459 63.9317 70.1459 63.9317Z" fill="#C6C6D3"/>
<path d="M10.3708 96.2136L10.8432 95.5161L62.6954 65.5786C64.3918 64.6 66.2276 63.8838 68.1391 63.4557C75.9558 61.7068 84.0896 64.5104 89.1677 70.7041L94.5467 77.265L93.1798 83.1188L46.8803 109.849L34.3979 111.671L31.6588 111.752L13.2719 105.121C9.63122 103.808 8.20162 99.4172 10.3708 96.2136Z" fill="#EFEDF0"/>
<path d="M89.1677 70.7041C86.9193 67.9598 84.0688 65.8854 80.914 64.5734C83.3552 65.8682 85.5651 67.6401 87.3787 69.853L92.7588 76.4145L91.3917 82.2682L45.0912 108.998L32.6093 110.82L29.8697 110.902L11.9307 104.431C12.3369 104.708 12.7823 104.944 13.2719 105.121L31.6588 111.752L34.3979 111.671L46.8803 109.849L93.1797 83.1188L94.5467 77.265L89.1677 70.7041Z" fill="#F4F3F5"/>
<path d="M104.64 90.0838L97.376 78.4401L95.0267 86.5374L47.6667 113.88L32.0427 116.16L32.7041 128.516L51.7812 126.457L102.308 97.2854L104.64 90.0838Z" fill="#D3D2E1"/>
<path d="M95.0267 86.5374L102.308 97.2854L51.7812 126.457L47.6667 113.88L95.0267 86.5374Z" fill="#E3E2E7"/>
<path d="M55.2407 111.321L89.6052 91.4812C91.0636 90.6385 92.9265 91.1026 93.8213 92.5306L94.3867 93.4349C96.008 96.0265 95.156 99.4453 92.5088 100.973L59.6068 119.971C57.2797 121.314 54.3084 120.175 53.4751 117.62L53.1765 116.705C52.5063 114.649 53.3672 112.403 55.2407 111.321Z" fill="#2F353F"/>
<path d="M104.64 92.6958V90.0838L102.308 97.2854L51.7812 126.457L32.7041 128.516V131.129L51.7812 129.071L102.308 99.8984L104.64 92.6958Z" fill="#949BBA"/>
<path d="M61.8041 111.609C61.7016 111.422 61.436 111.375 61.212 111.504L59.8369 112.298C59.613 112.428 59.514 112.685 59.6172 112.873L59.7005 113.024C59.803 113.21 60.0702 113.259 60.2926 113.129L61.6677 112.335C61.8917 112.207 61.9906 111.948 61.8874 111.761L61.8041 111.609Z" fill="#82CE45"/>
<path d="M66.9073 108.664C66.8041 108.477 66.5375 108.429 66.3151 108.557L64.9385 109.352C64.7156 109.481 64.6172 109.739 64.7198 109.927L64.8031 110.077C64.9047 110.264 65.1713 110.312 65.3959 110.183L66.7703 109.389C66.9948 109.26 67.0921 109.002 66.9907 108.815L66.9073 108.664Z" fill="#356329"/>
<path d="M72.0088 105.717C71.9073 105.531 71.6407 105.483 71.4167 105.612L70.0417 106.405C69.8177 106.535 69.7197 106.793 69.8213 106.98L69.9046 107.132C70.0078 107.319 70.2745 107.365 70.4973 107.237L71.8735 106.443C72.0964 106.314 72.1953 106.056 72.0921 105.868L72.0088 105.717Z" fill="#356329"/>
<path d="M77.112 102.771C77.0088 102.584 76.7421 102.537 76.5193 102.665L75.1443 103.46C74.9203 103.589 74.8213 103.847 74.9245 104.035L75.0079 104.185C75.1104 104.372 75.3771 104.42 75.6 104.291L76.9751 103.496C77.1989 103.368 77.2979 103.109 77.1953 102.922L77.112 102.771Z" fill="#FAE557"/>
<path d="M82.2145 99.8254C82.112 99.6385 81.8448 99.5906 81.6224 99.7197L80.2459 100.514C80.0235 100.643 79.9245 100.902 80.0271 101.088L80.1104 101.238C80.212 101.426 80.4792 101.473 80.7031 101.345L82.0781 100.55C82.3021 100.421 82.3995 100.162 82.2979 99.976L82.2145 99.8254Z" fill="#82CE45"/>
<path d="M87.3995 97.0306L87.3161 96.8786C87.2145 96.6921 86.9479 96.6453 86.724 96.7734L85.3484 97.5682C85.1251 97.6973 85.0271 97.9557 85.1287 98.1426L85.212 98.2932C85.3151 98.4802 85.5817 98.5281 85.8041 98.3984L87.1807 97.6041C87.4036 97.476 87.5027 97.2172 87.3995 97.0306Z" fill="#356329"/>
<path d="M9.19891 95.5197L10.8432 95.5161L62.6953 65.5787L61.8265 65.1197L9.19891 95.5197Z" fill="#2F353F"/>
<path d="M10.8432 95.5161L12.1573 95.9921C13.7812 96.5828 15.5817 96.424 17.0781 95.5614L63.4855 68.7828C64.5219 68.1838 64.5375 66.6906 63.5115 66.0718L62.6953 65.5786L10.8432 95.5161Z" fill="#3F4651"/>
</svg>
