<svg width="125" height="141" viewBox="0 0 125 141" fill="none" xmlns="http://www.w3.org/2000/svg">
<path d="M43.044 73.7573V140.497L10.6707 121.807V55.0667L43.044 73.7573Z" fill="#2F353F"/>
<path d="M43.044 73.7573V140.497L111.819 100.791V34.0505L43.044 73.7573Z" fill="#65606F"/>
<path d="M41.676 63.4412V134.956L8.99866 116.089V44.5745L41.676 63.4412Z" fill="#949BBA"/>
<path d="M38.3293 93.976V104.404L12.3453 89.4016V78.9734L38.3293 93.976Z" fill="#353C47"/>
<path d="M37.1973 96.6317V99.5224L13.216 85.677V82.2197L13.8827 82.5546L37.1973 96.6317Z" fill="#484E59"/>
<path d="M37.1973 96.0161V97.4224L15.148 84.6921L13.216 85.677V82.2197L13.8827 82.5546L37.1973 96.0161Z" fill="#252C36"/>
<path d="M41.676 63.4412V134.956L115.369 92.4078V20.8932L41.676 63.4412Z" fill="#E3E2E7"/>
<path d="M115.369 20.8932L41.676 63.4412L8.99866 44.5745L82.692 2.02795L115.369 20.8932Z" fill="#EDEDEF"/>
<path d="M38.3293 73.036V84.3254L12.3453 69.3229V58.0333L38.3293 73.036Z" fill="#353C47"/>
<path d="M38.3293 73.1026V76.0786L12.3453 61.076V58.1L38.3293 73.1026Z" fill="#515862"/>
<path d="M45.8213 100.222V116.732L112.137 78.4426V61.9349L46.2787 98.5734L45.8213 100.222Z" fill="#C6C6D3"/>
<path d="M46.2787 98.5734V115.081L47.0987 115.84L113.416 61.0426L112.595 60.2854L46.2787 98.5734Z" fill="#949BBA"/>
<path d="M47.0987 99.3317V115.84L113.416 77.5521V61.0426L47.0987 99.3317Z" fill="#E3E2E7"/>
<path d="M41.676 81.1958V97.7932L115.369 55.2453V38.6494L41.676 81.1958Z" fill="#C6C6D3"/>
<mask id="mask0_6_2249" style="mask-type:luminance" maskUnits="userSpaceOnUse" x="41" y="34" width="84" height="54">
<path d="M122.091 49.1562L55.5734 87.5614C54.8374 87.9864 54.0467 88.1026 53.1613 87.853C52.276 87.6052 41.676 81.776 41.676 81.776V73.1562L115.369 34.0505L124.575 41.8828C124.575 41.8828 124.545 44.6651 124.573 45.6224C124.605 46.7161 124.092 48.0016 122.091 49.1562Z" fill="white"/>
</mask>
<g mask="url(#mask0_6_2249)">
<path d="M122.091 49.1562L55.5734 87.5614C54.8374 87.9864 54.0467 88.1026 53.1613 87.853C52.276 87.6052 41.676 81.776 41.676 81.776V73.1562L115.369 34.0505L124.575 41.8828C124.575 41.8828 124.545 44.6651 124.573 45.6224C124.605 46.7161 124.092 48.0016 122.091 49.1562Z" fill="url(#paint0_linear_6_2249)"/>
</g>
<path d="M122.091 45.3854L55.5734 83.7906C54.1014 84.6401 52.4147 84.2557 50.1707 82.1812L41.676 73.1562L115.369 30.6078L123.864 39.6344C124.368 40.5958 125.843 43.2197 122.091 45.3854Z" fill="#C6C6D3"/>
<path d="M54.0586 83.0745C53.2386 83.0745 52.1986 82.5026 50.9693 81.3734L43.4866 73.4224L115.159 32.0426L122.929 40.3C123.472 41.3374 124.185 42.864 121.523 44.4016L55.004 82.8052C54.6893 82.9864 54.3813 83.0745 54.0586 83.0745Z" fill="#353C47"/>
<path d="M78.04 37.664L72.6267 40.789L41.408 58.8093L17.8467 45.2041L16.2667 44.2906L52.8933 23.1453L78.04 37.664Z" fill="#C6C6D3"/>
<path d="M107.529 20.277L80.176 36.0682L55.032 21.5494L107.529 14.7349V20.277Z" fill="#E3E2E7"/>
<path d="M107.529 14.7349L85.7693 27.2984L60.6226 12.7786L82.3826 0.215971L107.529 14.7349Z" fill="#F4F3F5"/>
<path d="M85.7693 27.2984L80.176 36.0682L55.032 21.5494L60.6226 12.7786L85.7693 27.2984Z" fill="#DAD9E0"/>
<path d="M56.24 22.2453L60.332 15.8254L83.064 28.9505L78.9693 35.3718L56.24 22.2453Z" fill="#C6C6D3"/>
<path d="M61.8053 19.7906L81.612 31.2281L83.064 28.9505L63.2573 17.5145L61.8053 19.7906Z" fill="#515862"/>
<path d="M72.6267 40.789L41.408 58.8093L17.8467 45.2041L52.8933 29.3958L72.6267 40.789Z" fill="#D5D4DE"/>
<path d="M74.6973 39.5932L46.6933 42.4864L21.548 27.9677V26.3812L78.04 37.664L74.6973 39.5932Z" fill="#C6C6D3"/>
<path d="M78.04 37.6614L46.6933 40.9L21.548 26.3812L52.8947 23.1437L78.04 37.6614Z" fill="#F4F3F5"/>
<path d="M38.3293 84.3255L25.3374 85.9771L0.190674 71.4588V69.8719L38.3293 82.7401V84.3255Z" fill="#353C47"/>
<path d="M38.3293 82.7385L25.3374 84.3906L0.190674 69.8718L13.184 68.2213L38.3293 82.7385Z" fill="#484E59"/>
<path d="M81.2467 60.9265L70.944 66.8745L68.1586 64.2068L78.4613 58.2588L81.2467 60.9265Z" fill="#65606F"/>
<path d="M47.0987 99.3317L46.2787 98.5734L112.595 60.2854L113.416 61.0426L47.0987 99.3317Z" fill="#EDEDEF"/>
<path d="M56.24 22.2453L61.8053 19.7906L63.2573 17.5145L60.332 15.8254L56.24 22.2453Z" fill="#949BBA"/>
<path d="M82.816 56.389L81.648 57.064L80.808 56.2598L81.9773 55.5854L82.816 56.389Z" fill="#696573"/>
<path d="M84.0533 57.5734L82.884 58.2478L82.0453 57.4453L83.2147 56.7693L84.0533 57.5734Z" fill="#696573"/>
<path d="M85.2906 58.7588L84.1213 59.4333L83.2827 58.6292L84.4506 57.9546L85.2906 58.7588Z" fill="#696573"/>
<path d="M86.5266 59.9427L85.3573 60.6172L84.5186 59.8136L85.6866 59.1385L86.5266 59.9427Z" fill="#696573"/>
<path d="M84.428 55.4588L83.2587 56.1333L82.42 55.3292L83.5893 54.6546L84.428 55.4588Z" fill="#696573"/>
<path d="M85.6653 56.6426L84.496 57.3188L83.6573 56.5136L84.8253 55.8401L85.6653 56.6426Z" fill="#696573"/>
<path d="M86.9027 57.8281L85.7333 58.5026L84.8947 57.6984L86.0627 57.024L86.9027 57.8281Z" fill="#696573"/>
<path d="M88.1386 59.012L86.9693 59.6864L86.1293 58.8828L87.2986 58.2078L88.1386 59.012Z" fill="#696573"/>
<path d="M86.04 54.5281L84.8707 55.2026L84.032 54.4L85.2 53.724L86.04 54.5281Z" fill="#696573"/>
<path d="M87.2773 55.712L86.108 56.388L85.2693 55.5838L86.4373 54.9078L87.2773 55.712Z" fill="#696573"/>
<path d="M88.5147 56.8973L87.3453 57.5718L86.5053 56.7682L87.6746 56.0932L88.5147 56.8973Z" fill="#696573"/>
<path d="M89.7506 58.0812L88.5813 58.7557L87.7413 57.9521L88.9107 57.277L89.7506 58.0812Z" fill="#696573"/>
<path d="M87.652 53.5973L86.4827 54.2719L85.644 53.4677L86.812 52.7932L87.652 53.5973Z" fill="#696573"/>
<path d="M88.8893 54.7812L87.72 55.4573L86.88 54.653L88.0493 53.9786L88.8893 54.7812Z" fill="#696573"/>
<path d="M90.1267 55.9666L88.9573 56.6412L88.1173 55.8374L89.2866 55.1625L90.1267 55.9666Z" fill="#696573"/>
<path d="M91.3626 57.1505L90.1933 57.8254L89.3533 57.0213L90.5226 56.3469L91.3626 57.1505Z" fill="#696573"/>
<defs>
<linearGradient id="paint0_linear_6_2249" x1="41.6747" y1="61.0173" x2="124.575" y2="61.0173" gradientUnits="userSpaceOnUse">
<stop stop-color="#939ABA"/>
<stop offset="0.0138473" stop-color="#939ABA"/>
<stop offset="0.137378" stop-color="#939ABA"/>
<stop offset="0.152593" stop-color="#BABFD2"/>
<stop offset="0.164137" stop-color="#E3E2E7"/>
<stop offset="1" stop-color="#E3E2E7"/>
</linearGradient>
</defs>
</svg>
