<svg width="125" height="76" viewBox="0 0 125 76" fill="none" xmlns="http://www.w3.org/2000/svg">
                    <mask id="mask0_3_2243" style="mask-type:luminance" maskUnits="userSpaceOnUse" x="0" y="3" width="125" height="73">
                    <path d="M124.611 24.5612L122.352 25.5239L86.875 5.04122C84.0563 3.41322 79.087 3.61988 75.8324 5.49988L2.88168 47.6159C2.73901 47.6985 2.60834 47.7852 2.47634 47.8719L0.188354 47.2012V51.2772L0.192358 51.2785C0.212358 52.2985 0.835021 53.2679 2.08835 53.9919L37.9217 74.6812C40.7417 76.3092 45.711 76.1025 48.967 74.2239L121.916 32.1052C123.67 31.0932 124.574 29.7945 124.602 28.5572H124.61L124.611 24.5612Z" fill="white"/>
                    </mask>
                    <g mask="url(#mask0_3_2243)">
                    <path d="M124.611 24.5612L122.352 25.5239L86.875 5.04122C84.0563 3.41322 79.087 3.61988 75.8324 5.49988L2.88168 47.6159C2.73901 47.6985 2.60834 47.7852 2.47634 47.8719L0.188354 47.2012V51.2772L0.192358 51.2785C0.212358 52.2985 0.835021 53.2679 2.08835 53.9919L37.9217 74.6812C40.7417 76.3092 45.711 76.1025 48.967 74.2239L121.916 32.1052C123.67 31.0932 124.574 29.7945 124.602 28.5572H124.61L124.611 24.5612Z" fill="url(#paint0_linear_3_2243)"/>
                    </g>
                    <mask id="mask1_3_2243" style="mask-type:luminance" maskUnits="userSpaceOnUse" x="0" y="0" width="125" height="72">
                    <path d="M37.9216 70.7385L2.08832 50.0492C-0.730349 48.4212 -0.373022 45.5532 2.88164 43.6732L75.8323 1.55588C79.087 -0.324115 84.0563 -0.529455 86.875 1.09854L122.708 21.7866C125.528 23.4146 125.171 26.2825 121.916 28.1625L48.967 70.2799C45.711 72.1599 40.7416 72.3652 37.9216 70.7385Z" fill="white"/>
                    </mask>
                    <g mask="url(#mask1_3_2243)">
                    <path d="M37.9216 70.7385L2.08832 50.0492C-0.730349 48.4212 -0.373022 45.5532 2.88164 43.6732L75.8323 1.55588C79.087 -0.324115 84.0563 -0.529455 86.875 1.09854L122.708 21.7866C125.528 23.4146 125.171 26.2825 121.916 28.1625L48.967 70.2799C45.711 72.1599 40.7416 72.3652 37.9216 70.7385Z" fill="url(#paint1_linear_3_2243)"/>
                    </g>
                    <path d="M120.514 27.6479L98.5457 40.3306L48.067 69.4692C45.3497 71.0452 41.191 71.2186 38.8324 69.8532L3.61767 49.5266C1.25901 48.1612 1.56167 45.7639 4.28434 44.1879L54.7563 15.0492L76.7324 2.36656C79.4484 0.790561 83.607 0.623894 85.967 1.98256L121.18 22.3092C123.538 23.6746 123.238 26.0719 120.514 27.6479Z" fill="#EBECF2"/>
                    <path d="M120.514 27.6479L101.788 38.4586C99.7817 39.6159 97.3097 39.6159 95.3044 38.4586L57.6123 16.6972C56.343 15.9652 56.343 14.1332 57.6123 13.4012L76.7324 2.36656C79.4484 0.790561 83.607 0.623894 85.967 1.98256L121.18 22.3092C123.538 23.6746 123.238 26.0719 120.514 27.6479Z" fill="#2F353F"/>
                    <path d="M80.2057 6.13056C81.119 6.65589 82.6003 6.65323 83.519 6.1239C84.435 5.59457 84.4403 4.73855 83.5297 4.21189C82.6177 3.68522 81.135 3.68789 80.2163 4.21856C79.3003 4.74789 79.295 5.60389 80.2057 6.13056Z" fill="#EBECF2"/>
                    <path d="M80.3603 6.04122C81.187 6.51989 82.5324 6.51722 83.3657 6.03588C84.199 5.55588 84.203 4.77855 83.375 4.29988C82.5483 3.82255 81.2017 3.82522 80.3684 4.30522C79.535 4.78655 79.531 5.56389 80.3603 6.04122Z" fill="#727678"/>
                    <path d="M80.6643 5.86521C81.3243 6.24654 82.399 6.2452 83.063 5.8612C83.727 5.4772 83.731 4.85722 83.071 4.47588C82.411 4.09455 81.3363 4.0972 80.6723 4.47987C80.0083 4.8652 80.0043 5.48387 80.6643 5.86521Z" fill="#ABA2D8"/>
                    <path d="M82.703 4.98655C82.2457 4.72255 81.499 4.72389 81.0364 4.99056C80.575 5.25589 80.5737 5.68789 81.031 5.95189C81.4897 6.21722 82.2364 6.21588 82.6977 5.94922C83.1604 5.68255 83.1617 5.25189 82.703 4.98655Z" fill="#D3CCEB"/>
                    <path d="M82.2537 5.24654C82.0417 5.12388 81.6977 5.12521 81.483 5.24788C81.2697 5.37055 81.2697 5.57056 81.4803 5.69322C81.6937 5.81456 82.0377 5.81456 82.2523 5.69189C82.4657 5.56789 82.467 5.36921 82.2537 5.24654Z" fill="#A49BD5"/>
                    <path d="M76.6776 8.16789C77.2616 8.50522 78.2123 8.50389 78.8017 8.16389C79.3883 7.82389 79.3923 7.27589 78.8083 6.93723C78.223 6.59989 77.2723 6.60256 76.6843 6.94123C76.095 7.28123 76.0923 7.83056 76.6776 8.16789Z" fill="#FAE557"/>
                    <path d="M76.6844 7.33188C77.2724 6.99322 78.223 6.99054 78.8084 7.32788C79.0124 7.44654 79.1404 7.59056 79.2004 7.74389C79.3137 7.46256 79.1857 7.15589 78.8084 6.93722C78.223 6.59989 77.2724 6.60256 76.6844 6.94122C76.3017 7.16256 76.171 7.47055 76.283 7.75322C76.3457 7.59855 76.475 7.45188 76.6844 7.33188Z" fill="#AD7F18"/>
                    <path d="M73.983 9.61455C74.1936 9.73588 74.5323 9.73455 74.743 9.61455C74.9536 9.49188 74.955 9.29589 74.7456 9.17456C74.5363 9.05456 74.1963 9.05456 73.9857 9.17589C73.775 9.29856 73.7736 9.49455 73.983 9.61455Z" fill="#0F151D"/>
                    <path d="M116.338 34.5386L111.1 37.5612C110.674 37.8092 110.324 37.5439 110.324 36.9746C110.324 36.4052 110.674 35.7372 111.1 35.4906L116.338 32.4666C116.764 32.2199 117.115 32.4839 117.115 33.0546C117.115 33.6239 116.764 34.2919 116.338 34.5386Z" fill="#EBECF2"/>
                    <path d="M116.734 34.7839L111.496 37.8079C111.07 38.0546 110.719 37.7906 110.719 37.2212C110.719 36.6506 111.07 35.9826 111.496 35.7359L116.734 32.7132C117.16 32.4665 117.51 32.7305 117.51 33.2999C117.51 33.8692 117.16 34.5372 116.734 34.7839Z" fill="#D8D9E5"/>
                    <path d="M83.0137 53.7639L77.7777 56.7865C77.351 57.0332 77.0004 56.7692 77.0004 56.1999C77.0004 55.6305 77.351 54.9625 77.7777 54.7159L83.0137 51.6919C83.4417 51.4452 83.791 51.7092 83.791 52.2799C83.791 52.8492 83.4417 53.5172 83.0137 53.7639Z" fill="#3D434C"/>
                    <path d="M83.4097 54.0092L78.1724 57.0332C77.7457 57.2799 77.3964 57.0159 77.3964 56.4465C77.3964 55.8759 77.7457 55.2079 78.1724 54.9612L83.4097 51.9386C83.8363 51.6919 84.187 51.9559 84.187 52.5252C84.187 53.0946 83.8363 53.7626 83.4097 54.0092Z" fill="#2F353F"/>
                    <path d="M17.5057 61.8092L22.0003 64.4039C22.3657 64.6159 22.667 64.3892 22.667 63.8999C22.667 63.4119 22.3657 62.8386 22.0003 62.6266L17.5057 60.0319C17.1404 59.8199 16.839 60.0466 16.839 60.5359C16.839 61.0252 17.1404 61.5986 17.5057 61.8092Z" fill="#949BBA"/>
                    <path d="M22.6217 63.5559L18.5657 61.2106C18.283 61.0506 18.039 60.6719 17.943 60.2879L22.0004 62.6266C22.2817 62.7866 22.5257 63.1706 22.6217 63.5559Z" fill="#141A22"/>
                    <path d="M62.603 33.2759C64.7457 34.5119 68.2297 34.5052 70.3857 33.2612C72.5403 32.0172 72.5523 30.0052 70.4097 28.7679C68.267 27.5319 64.783 27.5372 62.627 28.7812C60.4723 30.0266 60.4603 32.0386 62.603 33.2759Z" fill="#727678"/>
                    <path d="M62.603 33.2759C64.7457 34.5119 68.2297 34.5052 70.3857 33.2612C72.5403 32.0172 72.5523 30.0052 70.4097 28.7679C68.267 27.5319 64.783 27.5372 62.627 28.7812C60.4723 30.0266 60.4603 32.0386 62.603 33.2759Z" fill="#D2D3E0"/>
                    <path d="M62.627 29.9839C64.783 28.7399 68.267 28.7332 70.4097 29.9706C71.2097 30.4332 71.7097 31.0039 71.9097 31.6026C72.2403 30.6052 71.7417 29.5372 70.4097 28.7679C68.267 27.5319 64.783 27.5372 62.627 28.7812C61.2777 29.5612 60.7684 30.6412 61.103 31.6439C61.3044 31.0359 61.811 30.4559 62.627 29.9839Z" fill="#BABFD2"/>
                    <path d="M122.68 24.0212H70.2977L57.6123 16.6972C56.343 15.9652 56.3443 14.1332 57.6123 13.4012L60.9537 11.4732H102.411L121.18 22.3092C122 22.7772 122.494 23.3799 122.68 24.0212Z" fill="#353C47"/>
                    <path d="M116.464 29.9866L103.795 37.2986H93.2977L80.635 29.9866H116.464Z" fill="#353C47"/>
                    <defs>
                    <linearGradient id="paint0_linear_3_2243" x1="0.187021" y1="39.8612" x2="124.61" y2="39.8612" gradientUnits="userSpaceOnUse">
                    <stop stop-color="#BABFD2"/>
                    <stop offset="0.0138473" stop-color="#939ABA"/>
                    <stop offset="0.304522" stop-color="#939ABA"/>
                    <stop offset="0.371498" stop-color="#BABFD2"/>
                    <stop offset="1" stop-color="#BABFD2"/>
                    </linearGradient>
                    <linearGradient id="paint1_linear_3_2243" x1="60.6336" y1="78.4279" x2="62.8003" y2="26.2612" gradientUnits="userSpaceOnUse">
                    <stop stop-color="#BABDD2"/>
                    <stop offset="0.539063" stop-color="#D2D3E0"/>
                    <stop offset="1" stop-color="#DFE1EB"/>
                    </linearGradient>
                    </defs>
                    </svg>