<svg width="376" height="124" viewBox="0 0 376 124" fill="none" xmlns="http://www.w3.org/2000/svg">
<path d="M245.587 1.31104C215.681 1.31104 194.675 17.2097 194.489 39.943C194.3 56.7844 209.512 66.175 220.953 71.7724C232.757 77.4945 236.7 81.1717 236.661 86.291C236.544 94.1377 227.216 97.7126 218.548 97.7126C206.464 97.7126 200.021 95.948 190.119 91.5929L186.192 89.7266L181.963 115.928C189.033 119.189 202.09 122.014 215.663 122.161C247.398 122.161 268.046 106.445 268.291 82.1786C268.416 68.8213 260.341 58.712 242.883 50.3653C232.344 44.9385 225.827 41.3401 225.924 35.8413C225.932 30.9826 231.393 25.7754 243.246 25.7754C253.145 25.6088 260.264 27.881 265.87 30.2744L268.566 31.6196L272.679 6.23824C266.705 3.87864 257.279 1.3117 245.585 1.3117L245.587 1.31104ZM151.707 3.35304L132.792 120.43H163.012L181.937 3.3517H151.711L151.707 3.35304ZM107.433 3.46664L77.8413 83.2586L74.6867 67.0453C67.3173 47.164 51.364 26.3093 32.7853 17.8573L59.8547 120.319L91.8547 120.304L139.441 3.46752L107.433 3.46664ZM326.86 3.47421C319.619 3.47421 314.193 5.53807 310.997 13.1917L266.121 120.469H297.872C297.872 120.469 303.063 106.029 304.237 102.868C307.702 102.868 338.54 102.934 342.94 102.934C343.875 107.017 346.621 120.468 346.621 120.468H374.694L350.215 3.47428L326.86 3.47421ZM328.996 35.0382L331.011 45.1313C331.011 45.1313 336.82 73.0659 338.032 78.9166H312.936C315.446 72.1985 324.978 46.1913 324.978 46.1913C324.793 46.5094 327.458 39.4198 328.996 35.0382Z" fill="#0023A0"/>
<path d="M50.3973 3.4053H1.63999L1.35596 5.41996C39.264 15.1149 64.2733 38.9226 74.6866 67.076L64.0906 13.2666C62.2693 5.8665 56.964 3.66663 50.3973 3.4053Z" fill="#FFAB00"/>
</svg>
