<svg width="60" height="86" viewBox="0 0 60 86" fill="none" xmlns="http://www.w3.org/2000/svg">
<path d="M0.435976 57.3653C0.435976 57.3653 0.314511 61.676 3.67811 62.7693C7.04011 63.864 5.17651 57.9986 5.17651 57.9986L0.435976 57.3653Z" fill="#2D2F3A"/>
<path d="M3.17026 58.944L25.776 45.8933L24.4229 9.01998L3.88026 15.992L1.37866 24.096L3.17026 58.944Z" fill="#D84315"/>
<path d="M43.1458 70.9733L35.3708 66.4853C30.0921 63.4373 25.7979 56.0306 25.7979 49.9733V21.1373L28.5323 22.716V51.552C28.5323 55.8786 31.6 61.1693 35.3708 63.3466L43.1458 67.8346C46.915 70.012 49.9828 68.2626 49.9828 63.936V53.6306L52.7188 55.2106V65.5146C52.7188 71.572 48.4245 74.0213 43.1458 70.9733Z" fill="#FF5722"/>
<path d="M3.19269 34.188L25.7979 21.1373L27.8672 24.032L27.6027 52.3253C27.6027 52.3253 28.514 58.2986 31.9427 62.392C35.3708 66.4853 45.7588 69.352 45.7588 69.352L25.0869 83.316L13.5782 78.8746L6.87349 72.284L4.40629 64.86L3.19269 34.188Z" fill="#FF3D00"/>
<path d="M3.19269 34.188C3.19269 34.188 4.51509 25.02 15.6427 17.5106C26.336 10.2933 34.4454 13.624 34.4454 18.8146C34.4454 24.0053 18.6766 31.216 18.6766 31.216L5.92815 35.7666L3.19269 34.188Z" fill="#2D2F3A"/>
<path d="M5.9281 35.7666C5.9281 35.7666 7.25103 26.5986 18.377 19.0893C29.0702 11.8733 37.1806 15.204 37.1806 20.3946C37.1806 25.584 21.4125 32.7946 21.4125 32.7946L10.414 36.8453L5.9281 35.7666Z" fill="#FF3D00"/>
<path d="M27.7703 25.4973C27.3125 25.4973 26.8177 25.6426 26.3229 25.928L7.68333 36.6893C5.7484 37.8066 4.53853 40.6666 5.0964 42.8093C5.31613 43.6573 5.78227 44.2693 6.40733 44.5306C7.04373 44.796 7.824 44.696 8.6036 44.2453L27.2432 33.484C29.1781 32.3666 30.3875 29.508 29.8307 27.3653C29.6104 26.516 29.1443 25.904 28.5193 25.6426C28.2875 25.5453 28.0349 25.4973 27.7703 25.4973ZM7.14787 48.464C6.38747 48.464 5.64173 48.32 4.94373 48.028C3.226 47.3093 1.94533 45.7546 1.42653 43.7626C0.433335 39.94 2.3484 35.392 5.78747 33.4053L24.4265 22.644C26.2303 21.604 28.2563 21.4213 29.9844 22.1453C31.7005 22.864 32.9812 24.4186 33.5 26.4106C34.4932 30.2333 32.5781 34.7826 29.1391 36.768L10.4995 47.5293C9.42454 48.1493 8.27027 48.464 7.14787 48.464Z" fill="#2D2F3A"/>
<path d="M5.92814 42.2466C5.92814 42.2466 5.68174 33.9853 7.03854 32.2173C8.39694 30.4506 21.462 22.8946 21.462 22.8946C21.462 22.8946 27.4948 23.3066 26.5287 28.2946C25.5636 33.284 5.92814 42.2466 5.92814 42.2466Z" fill="#FF3D00"/>
<path d="M50.1016 71.54L27.0729 84.8306L29.3265 67.7213L51.4349 62.984C51.4349 62.984 52.026 66.6253 50.1016 71.54Z" fill="#FF5722"/>
<path d="M20.5402 84.024L12.7667 79.536C7.48695 76.488 3.19269 69.0813 3.19269 63.024V34.188L5.92815 35.7666V64.6026C5.92815 68.9293 8.99589 74.22 12.7667 76.3973L20.5402 80.8853C24.311 83.0626 27.3787 81.3146 27.3787 76.9866V66.6813L30.1146 68.2613V78.5666C30.1146 84.624 25.8188 87.072 20.5402 84.024Z" fill="#2D2F3A"/>
<path d="M21.0792 73.9066C21.0792 73.9066 19.6797 72.868 19.6797 57.9986C19.6797 43.1306 19.8645 40.4826 23.8432 37.5093C27.8213 34.536 24.476 51.1973 24.476 51.1973L21.0792 73.9066Z" fill="#BABFD2"/>
<path d="M21.5541 39.78C21.5541 39.78 22.0453 38.1066 27.2292 34.188C32.4125 30.268 47.4427 21.8533 51.7031 21.8746C47.0505 27.136 21.5541 39.78 21.5541 39.78Z" fill="#BABFD2"/>
<mask id="mask0_5_2248" style="mask-type:luminance" maskUnits="userSpaceOnUse" x="20" y="21" width="39" height="58">
<path d="M58.488 25.496C58.488 25.496 53.8109 21.9426 51.7041 21.872L51.7031 21.8746C51.0573 21.844 50.3203 22.04 49.5375 22.492L25.2969 36.488C22.7917 37.9333 20.7421 41.4693 20.7421 44.344V72.16C20.7421 73.1306 20.9792 73.9013 21.3855 74.448L21.3812 74.4533C21.3812 74.4533 22.8031 76.7813 28.1459 78.4826C28.6713 77.9146 30.6093 74.7173 33.2693 70.1533L49.5375 60.7613C52.0427 59.316 54.0921 55.78 54.0921 52.9053V33.384C56.7448 28.6346 58.488 25.496 58.488 25.496Z" fill="white"/>
</mask>
<g mask="url(#mask0_5_2248)">
<path d="M58.488 25.496C58.488 25.496 53.8109 21.9426 51.7041 21.872L51.7031 21.8746C51.0573 21.844 50.3203 22.04 49.5375 22.492L25.2969 36.488C22.7917 37.9333 20.7421 41.4693 20.7421 44.344V72.16C20.7421 73.1306 20.9792 73.9013 21.3855 74.448L21.3812 74.4533C21.3812 74.4533 22.8031 76.7813 28.1459 78.4826C28.6713 77.9146 30.6093 74.7173 33.2693 70.1533L49.5375 60.7613C52.0427 59.316 54.0921 55.78 54.0921 52.9053V33.384C56.7448 28.6346 58.488 25.496 58.488 25.496Z" fill="url(#paint0_linear_5_2248)"/>
</g>
<path d="M22.8552 61.7386C22.3125 61.4266 21.8672 60.576 21.8672 59.852V50.7746C21.8672 50.0506 22.3125 49.7146 22.8552 50.028C23.3979 50.3413 23.8432 51.1906 23.8432 51.9146V60.9933C23.8432 61.7173 23.3979 62.0533 22.8552 61.7386Z" fill="#EBECF2"/>
<path d="M22.4505 61.9986C21.9073 61.6853 21.462 60.836 21.462 60.112V51.0346C21.462 50.3106 21.9073 49.9746 22.4505 50.288C22.9932 50.6013 23.4369 51.4506 23.4369 52.1746V61.2533C23.4369 61.9773 22.9932 62.3133 22.4505 61.9986Z" fill="#BABFD2"/>
<path d="M23.4369 66.228C23.4369 66.444 23.2849 66.5306 23.0964 66.4226C22.9073 66.3133 22.7547 66.0493 22.7547 65.8333C22.7547 65.6173 22.9073 65.5293 23.0964 65.6386C23.2849 65.748 23.4369 66.012 23.4369 66.228Z" fill="#2F353F"/>
<path d="M23.4369 67.6786C23.4369 67.8946 23.2849 67.9813 23.0964 67.8733C22.9073 67.764 22.7547 67.5 22.7547 67.284C22.7547 67.068 22.9073 66.98 23.0964 67.0893C23.2849 67.1973 23.4369 67.4613 23.4369 67.6786Z" fill="#2F353F"/>
<path d="M23.4369 69.128C23.4369 69.3453 23.2849 69.432 23.0964 69.3226C22.9073 69.2133 22.7547 68.9506 22.7547 68.7346C22.7547 68.5173 22.9073 68.4306 23.0964 68.54C23.2849 68.648 23.4369 68.912 23.4369 69.128Z" fill="#2F353F"/>
<path d="M30.8188 39.676L55.0593 25.68C57.565 24.2346 59.6145 25.4026 59.6145 28.2773V56.0946C59.6145 58.968 57.565 62.504 55.0593 63.9506L30.8188 77.9453C28.3136 79.392 26.264 78.2226 26.264 75.348V47.532C26.264 44.6573 28.3136 41.1226 30.8188 39.676Z" fill="#EBECF2"/>
<path d="M30.9708 41.124L54.9073 27.304C56.7599 26.2346 58.2771 27.0986 58.2771 29.2253V56.692C58.2771 58.8186 56.7599 61.432 54.9073 62.5026L30.9708 76.3226C29.1183 77.392 27.6027 76.528 27.6027 74.4013V46.9346C27.6027 44.808 29.1183 42.1933 30.9708 41.124Z" fill="#2F353F"/>
<path d="M31.9697 41.7866L54.5844 28.7293C56.336 27.7186 57.7683 28.5346 57.7683 30.544V56.4946C57.7683 58.5026 56.336 60.9733 54.5844 61.984L31.9697 75.0413C30.2188 76.052 28.7864 75.2346 28.7864 73.2266V47.276C28.7864 45.2666 30.2188 42.796 31.9697 41.7866Z" fill="#2F353F"/>
<path d="M30.8656 42.6666L55.6885 28.336C56.4307 27.9067 57.0391 28.2533 57.0391 29.1053C57.0391 29.9587 56.4307 31.008 55.6885 31.436L30.8656 45.7666C30.1235 46.196 29.5151 45.8493 29.5151 44.9973C29.5151 44.144 30.1235 43.096 30.8656 42.6666Z" fill="#494F5A"/>
<mask id="mask1_5_2248" style="mask-type:luminance" maskUnits="userSpaceOnUse" x="3" y="0" width="50" height="38">
<path d="M52.7188 24.436C52.7188 18.3786 48.4245 10.972 43.1458 7.92398L32.613 1.84396C30.1573 0.425296 27.9281 0.221298 26.2328 0.995965H26.1614L25.838 1.1813L25.7546 1.23063L3.01398 14.3506L5.79371 14.596L25.6197 26.464L26.712 29.2293L30.1145 37.5093L52.7188 24.4573V24.436Z" fill="white"/>
</mask>
<g mask="url(#mask1_5_2248)">
<path d="M52.7188 24.436C52.7188 18.3786 48.4245 10.972 43.1458 7.92398L32.613 1.84396C30.1573 0.425296 27.9281 0.221298 26.2328 0.995965H26.1614L25.838 1.1813L25.7546 1.23063L3.01398 14.3506L5.79371 14.596L25.6197 26.464L26.712 29.2293L30.1145 37.5093L52.7188 24.4573V24.436Z" fill="url(#paint1_linear_5_2248)"/>
</g>
<path d="M46.8708 58.5213L48.6459 57.496C49.0375 57.2693 49.3579 57.4533 49.3579 57.9026V59.9386C49.3579 60.3893 49.0375 60.9413 48.6459 61.168L46.8708 62.192C46.4792 62.4186 46.1588 62.236 46.1588 61.7866V59.7493C46.1588 59.3 46.4792 58.7466 46.8708 58.5213Z" fill="#F9A8D8"/>
<path d="M48.9011 58.88C48.9011 58.448 48.5964 58.2733 48.2188 58.4906C48.0312 58.5986 47.862 58.7839 47.7396 58.9946C47.6156 58.9253 47.4464 58.9359 47.2588 59.0439C46.8812 59.2626 46.5765 59.7893 46.5765 60.2226L46.5807 60.2626L46.5765 60.34C46.5765 61.0253 47.7396 61.2746 47.7396 61.2746C47.7396 61.2746 48.9011 59.6826 48.9011 58.9973L48.8969 58.9253L48.9011 58.88Z" fill="#F03D4E"/>
<path d="M3.17024 58.944L0.435974 57.3653V20.352C0.435974 14.2946 4.73024 11.8466 10.0088 14.8946L20.5401 20.9746C25.8188 24.0226 30.1145 31.4293 30.1145 37.4866V37.5093L27.3786 35.9293V35.908C27.3786 31.5813 24.3109 26.2906 20.5401 24.1133L10.0088 18.0333C6.23798 15.856 3.17024 17.6053 3.17024 21.932V58.944Z" fill="#2D2F3A"/>
<path d="M54.9213 48.3093L52.0573 49.9626C51.4255 50.3266 50.9073 49.936 50.9073 49.0933V46.2346C50.9073 45.3906 51.4255 44.4026 52.0573 44.0373L54.9213 42.384C55.553 42.0186 56.0713 42.4106 56.0713 43.2533V46.112C56.0713 46.956 55.553 47.944 54.9213 48.3093Z" fill="#56C381"/>
<path d="M54.824 46.4227L54.4062 47.1426L53.9844 46.8813L54.3838 46.192L54.824 46.4227Z" fill="#B7BCCF"/>
<path d="M54.824 46.4226L54.4062 47.1426L55.0167 47.5653C55.1495 47.6466 55.3682 47.5226 55.5036 47.2906C55.6374 47.0573 55.6364 46.808 55.4984 46.7346L54.824 46.4226Z" fill="#F8A535"/>
<path d="M54.2511 43.9973C54.8724 44.3506 54.8724 45.5053 54.2511 46.5746C53.6312 47.6453 52.626 48.2253 52.0047 47.872C51.3855 47.5173 51.3855 46.364 52.0047 45.2933C52.626 44.224 53.6312 43.644 54.2511 43.9973Z" fill="#EDEFF3"/>
<path d="M54.0312 44.3786C54.5287 44.6626 54.5287 45.5893 54.0312 46.4493C53.5323 47.308 52.7251 47.7746 52.226 47.4906C51.7292 47.2066 51.7292 46.28 52.226 45.42C52.7251 44.5613 53.5323 44.0946 54.0312 44.3786Z" fill="#7FD5ED"/>
<path d="M53.2317 44.86C53.3203 45.0133 53.1781 45.3813 52.9167 45.6826C52.6536 45.984 52.3697 46.104 52.2812 45.9506C52.1927 45.7973 52.3344 45.4293 52.5964 45.128C52.8593 44.8266 53.1443 44.7066 53.2317 44.86Z" fill="#AFE5F1"/>
<path d="M43.9636 45.3813L41.164 46.9973C40.5469 47.3546 40.0401 46.972 40.0401 46.148V43.3533C40.0401 42.5293 40.5469 41.564 41.164 41.2066L43.9636 39.5906C44.5817 39.2333 45.0869 39.616 45.0869 40.44V43.2346C45.0869 44.0586 44.5817 45.024 43.9636 45.3813Z" fill="#7FD5ED"/>
<path d="M43.9265 40.1386L42.2771 43.316L42.8516 43.4066L43.9265 40.1386Z" fill="#EF3243"/>
<path d="M41.2005 46.5853L42.8516 43.4066L42.2771 43.316L41.2005 46.5853Z" fill="#EDEFF3"/>
<path d="M43.0098 42.9226C43.0661 43.1813 42.9046 43.5613 42.6521 43.7706C42.3984 43.9813 42.1484 43.9413 42.0921 43.6826C42.0374 43.424 42.1978 43.0426 42.4516 42.8333C42.7057 42.624 42.9557 42.664 43.0098 42.9226Z" fill="#EDEFF3"/>
<path d="M42.7875 43.108C42.8151 43.24 42.7328 43.436 42.6027 43.5426C42.4724 43.6506 42.3448 43.6306 42.3161 43.4973C42.2875 43.3653 42.3697 43.1693 42.5 43.0626C42.6303 42.9546 42.7588 42.9746 42.7875 43.108Z" fill="#EF3243"/>
<path d="M37.9984 63.9106L35.3604 65.4333C34.7787 65.7693 34.3021 65.4093 34.3021 64.6333V62C34.3021 61.224 34.7787 60.3133 35.3604 59.9773L37.9984 58.4546C38.5807 58.1186 39.0573 58.4786 39.0573 59.2546V61.888C39.0573 62.664 38.5807 63.5746 37.9984 63.9106Z" fill="#C96B32"/>
<path d="M37.8292 59.2893L37.9593 59.5173L38.0401 59.5386L38.3317 59.4186L38.3917 59.5946L38.1807 59.952L38.1495 60.0786L38.2005 60.3826L38.0437 60.6026L37.7839 60.596L37.6833 60.6533L37.4229 60.9613L37.2667 60.9226L37.3161 60.56L37.2849 60.4693L37.074 60.3546L37.1339 60.1106L37.4255 59.8933L37.5063 59.7786L37.6364 59.4013L37.8292 59.2893Z" fill="#F8E52F"/>
<path d="M36.4213 61.232L36.6573 61.644L36.8031 61.6813L37.3307 61.4653C37.4896 61.4 37.5531 61.588 37.4385 61.7826L37.0573 62.4293L37.0011 62.6586L37.0912 63.208C37.1183 63.3746 36.9516 63.6093 36.8093 63.6053L36.338 63.5933L36.1573 63.6973L35.6869 64.2546C35.5437 64.4226 35.3771 64.3786 35.4047 64.1813L35.4948 63.528L35.4401 63.3626L35.0584 63.156C34.9427 63.0946 35.0063 62.8333 35.1651 62.7146L35.6927 62.3226L35.838 62.1173L36.074 61.4333C36.1459 61.2266 36.3516 61.108 36.4213 61.232Z" fill="#F8E52F"/>
<path d="M31.9437 65.668L30.1849 66.684C29.7969 66.908 29.4792 66.668 29.4792 66.1506V64.3946C29.4792 63.876 29.7969 63.2693 30.1849 63.0453L31.9437 62.0306C32.3317 61.8066 32.6495 62.0466 32.6495 62.564V64.32C32.6495 64.8373 32.3317 65.444 31.9437 65.668Z" fill="#EDEFF3"/>
<path d="M32.3656 63.6053C32.3656 64.4306 31.7839 65.436 31.0636 65.852C30.3448 66.2666 29.7615 65.9346 29.7615 65.1093C29.7615 64.284 30.3448 63.2773 31.0636 62.8626C31.7839 62.448 32.3656 62.78 32.3656 63.6053Z" fill="#EF3243"/>
<path d="M31.7527 62.94L30.0792 65.16L30.7312 65.04L30.9401 64.9387L30.9333 65L31.5807 65.0707L31.7527 62.94Z" fill="#EDEFF3"/>
<path d="M31.3995 63.7586L30.7312 65.04L30.8484 65.52L31.0063 65.008L30.9437 65.0013L31.3995 63.7586Z" fill="#BABFD2"/>
<path d="M55.6563 54.0279L53.3855 55.3386C52.8855 55.628 52.4751 55.3186 52.4751 54.6506V52.384C52.4751 51.7146 52.8855 50.9319 53.3855 50.6426L55.6563 49.332C56.1573 49.0413 56.5677 49.352 56.5677 50.02V52.2866C56.5677 52.956 56.1573 53.7386 55.6563 54.0279Z" fill="#EF3243"/>
<path d="M55.5479 50.1973L53.9645 51.4426V53.684L54.1484 53.5786V51.9226L55.3917 50.912V52.6813L55.5479 52.5906V50.1973Z" fill="#EDEFF3"/>
<path d="M54.1156 53.44C54.2057 53.592 54.1 53.9253 53.8771 54.1826C53.6563 54.4413 53.4021 54.5266 53.3109 54.3746C53.2197 54.2226 53.3265 53.8906 53.5479 53.632C53.7703 53.3733 54.0245 53.288 54.1156 53.44Z" fill="#EDEFF3"/>
<path d="M55.5202 52.4493C55.6104 52.6013 55.5047 52.9333 55.2823 53.192C55.0609 53.4506 54.8073 53.536 54.7156 53.384C54.6251 53.232 54.7317 52.9 54.9541 52.6413C55.1755 52.3826 55.4297 52.2973 55.5202 52.4493Z" fill="#EDEFF3"/>
<path d="M47.3984 55.832L42.5636 58.624C41.4959 59.24 40.6224 58.58 40.6224 57.156V52.3293C40.6224 50.9053 41.4959 49.2373 42.5636 48.6213L47.3984 45.8293C48.4656 45.2133 49.3396 45.8733 49.3396 47.296V52.124C49.3396 53.5466 48.4656 55.216 47.3984 55.832Z" fill="#EF3243"/>
<path d="M48.5625 50.1586C48.5625 52.428 46.9584 55.1933 44.9817 56.336C43.0036 57.4773 41.4011 56.5626 41.4011 54.2933C41.4011 52.024 43.0036 49.26 44.9817 48.1173C46.9584 46.976 48.5625 47.8893 48.5625 50.1586Z" fill="#EDEFF3"/>
<path d="M45.7527 51.5826C45.8473 52.0306 45.5703 52.6866 45.1323 53.048C44.6937 53.4106 44.2615 53.3426 44.1667 52.8946C44.0713 52.448 44.3484 51.7906 44.7864 51.4293C45.224 51.0666 45.6563 51.136 45.7527 51.5826Z" fill="#D2BED4"/>
<path d="M45.0349 52.148L44.8943 52.3053L43.4896 49.684L43.6303 49.5266L45.0349 52.148Z" fill="#EF3243"/>
<path d="M44.8516 52.1773L45.0677 52.3L42.6729 56.4293L42.4584 56.3066L44.8516 52.1773Z" fill="#2C2D2E"/>
<path d="M45.0098 52.3346L44.9073 52.1426L47.6287 49.1093L47.7317 49.3013L45.0098 52.3346Z" fill="#2C2D2E"/>
<path d="M45.3656 51.9026C45.4151 52.132 45.2719 52.468 45.0479 52.6546C44.8229 52.84 44.6016 52.8053 44.5531 52.5746C44.5036 52.3453 44.6459 52.0093 44.8708 51.8226C45.0948 51.6373 45.3177 51.6733 45.3656 51.9026Z" fill="#565A5B"/>
<path d="M34.8907 71.2053L32.7693 72.4293C32.3005 72.7 31.9177 72.4106 31.9177 71.7866V69.6693C31.9177 69.0453 32.3005 68.3133 32.7693 68.0426L34.8907 66.8186C35.3579 66.548 35.7407 66.8386 35.7407 67.4626V69.5786C35.7407 70.204 35.3579 70.9346 34.8907 71.2053Z" fill="#EDEFF3"/>
<path d="M32.3979 69.1586V70.032C32.3979 70.3346 32.7172 70.3026 32.9036 69.98L33.664 68.668C33.8516 68.3453 33.7188 68.056 33.4541 68.208L32.6937 68.648C32.5297 68.7426 32.3979 68.9706 32.3979 69.1586Z" fill="#F47383"/>
<path d="M35.2421 70.1V69.228C35.2421 68.9253 34.9229 68.9573 34.7369 69.28L33.976 70.592C33.7891 70.9133 33.9213 71.204 34.1849 71.0506L34.9464 70.612C35.1093 70.5173 35.2421 70.2893 35.2421 70.1Z" fill="#F47383"/>
<path d="M32.3979 69.1586V70.032C32.3979 70.3346 32.7172 70.3026 32.9036 69.98L33.664 68.668C33.8516 68.3453 33.7188 68.056 33.4541 68.208L32.6937 68.648C32.5297 68.7426 32.3979 68.9706 32.3979 69.1586Z" fill="#F47383"/>
<path d="M35.2421 70.1V69.228C35.2421 68.9253 34.9229 68.9573 34.7369 69.28L33.976 70.592C33.7891 70.9133 33.9213 71.204 34.1849 71.0506L34.9464 70.612C35.1093 70.5173 35.2421 70.2893 35.2421 70.1Z" fill="#F47383"/>
<path d="M32.6937 71.912L33.4541 71.4733C33.7188 71.32 33.8516 70.8773 33.664 70.7706L32.9036 70.3373C32.7172 70.232 32.3979 70.568 32.3979 70.8706V71.7426C32.3979 71.9306 32.5297 72.0066 32.6937 71.912Z" fill="#FBC33B"/>
<path d="M34.9464 67.348L34.1849 67.7866C33.9213 67.9386 33.7891 68.3813 33.976 68.488L34.7369 68.9226C34.9229 69.028 35.2421 68.692 35.2421 68.3893V67.516C35.2421 67.3293 35.1093 67.2533 34.9464 67.348Z" fill="#FBC33B"/>
<path d="M38.2041 51.096V54.8453C38.2041 55.6733 37.6145 56.6906 36.8927 57.1066L33.6251 58.9933C32.9036 59.4093 32.3136 59.0733 32.3136 58.2453V54.4973C32.3136 53.6693 32.9036 52.652 33.6251 52.2346L36.8927 50.3493C37.4776 50.012 37.9751 50.1693 38.1443 50.6813C38.1797 50.7906 38.1989 50.9146 38.2031 51.0546L38.2041 51.096Z" fill="#7FD5ED"/>
<path d="M36.2328 55.5773L35.3473 57.9986L33.6251 58.9933C32.9036 59.4093 32.3136 59.0733 32.3136 58.2453V57.736L36.2328 55.5773Z" fill="#EDEFF3"/>
<path d="M36.0932 52.38L35.9656 55.58L32.3136 57.6893V54.4973C32.3136 53.6693 32.9036 52.652 33.6251 52.2346L36.8927 50.3493C37.4776 50.012 37.9751 50.1693 38.1443 50.6813C38.1797 50.7906 36.0912 52.24 36.0932 52.38Z" fill="#70C951"/>
<path d="M38.2041 51.096V53.092L36.1145 54.2986V50.7986L36.8927 50.3493C37.4776 50.012 37.9751 50.1693 38.1443 50.6813C38.1797 50.7906 38.1989 50.9147 38.2031 51.0547L38.2041 51.096Z" fill="#70C951"/>
<path d="M32.3136 57.4226L36.0932 55.24V56.0733L32.3136 58.256V57.4226Z" fill="#F8A535"/>
<path d="M33.8109 52.3426C33.1588 52.7186 32.6302 53.6306 32.6302 54.38C32.6302 55.3986 33.8109 56.5586 33.8109 56.5586C33.8109 56.5586 34.9921 54.0346 34.9921 53.016C34.9921 52.2666 34.4636 51.9653 33.8109 52.3426Z" fill="#F03D4E"/>
<path d="M34.4959 53.3026C34.4959 53.736 34.1885 54.264 33.8109 54.484C33.4333 54.7013 33.126 54.5266 33.126 54.0933C33.126 53.6586 33.4333 53.1306 33.8109 52.912C34.1885 52.6946 34.4959 52.8693 34.4959 53.3026Z" fill="white"/>
<path d="M36.2328 50.7306L35.3473 51.2413V57.9986L36.2328 57.488V50.7306Z" fill="#F8E52F"/>
<path d="M33.0297 49.2346L31.0374 50.3853C30.5984 50.64 30.238 50.368 30.238 49.7813V47.792C30.238 47.2066 30.5984 46.5186 31.0374 46.264L33.0297 45.1146C33.4697 44.8613 33.8292 45.132 33.8292 45.7186V47.708C33.8292 48.2933 33.4697 48.9813 33.0297 49.2346Z" fill="#CED1E2"/>
<path d="M33.7156 46.78C33.7156 47.8453 32.962 49.144 32.0339 49.6786C31.1052 50.216 30.3527 49.7866 30.3527 48.7213C30.3527 47.6546 31.1052 46.3573 32.0339 45.82C32.962 45.2853 33.7156 45.7133 33.7156 46.78Z" fill="#72B2E5"/>
<path d="M33.5973 46.8466C33.5973 47.8386 32.8979 49.0453 32.0339 49.544C31.1703 50.0426 30.4697 49.644 30.4697 48.6533C30.4697 47.6613 31.1703 46.4546 32.0339 45.956C32.8979 45.4573 33.5973 45.856 33.5973 46.8466Z" fill="#7FD5ED"/>
<path d="M33.462 46.9266C33.462 47.8306 32.8229 48.9333 32.0339 49.388C31.2459 49.844 30.6068 49.4786 30.6068 48.5746C30.6068 47.6693 31.2459 46.568 32.0339 46.112C32.8229 45.656 33.462 46.0213 33.462 46.9266Z" fill="#ACE4F6"/>
<path d="M32.8839 47.0146C32.8839 47.0146 32.9427 47.1426 33.0349 47.352C33.126 47.5626 33.1224 47.712 33.2666 47.5106L33.4202 47.336L33.4593 46.9813L33.3412 46.9946L33.4401 46.788L33.4541 46.7733C33.4114 46.2786 33.1573 45.9786 32.7926 45.9266L32.7787 45.9426L32.6901 46.048L32.5505 46.0946L32.5046 45.9493L32.4557 46.1666L32.1702 46.4853L32.1901 46.672C32.1625 46.6813 32.0636 46.612 32.0235 46.7813C31.9828 46.9506 31.9202 47.012 31.9812 47.0613L32.0437 47.112C32.0437 47.112 32.0218 47.308 31.8188 47.4906C31.6156 47.6746 31.6068 48.044 31.6131 48.2026C31.6197 48.36 31.7016 48.48 31.8724 48.376C32.0437 48.2733 32.1833 48.116 32.1729 48.4413C32.1625 48.7666 32.2745 48.752 32.1677 49.024C32.0754 49.2613 32.0948 49.304 32.1625 49.3066C32.4073 49.14 32.6338 48.9133 32.8281 48.652L32.8432 48.6106C32.914 48.3733 32.962 48.26 33.0688 48.112C33.1745 47.964 33.3317 47.604 33.2937 47.6066L33.0754 47.7106C33.0114 47.7293 33.0729 47.6973 32.9958 47.512C32.9177 47.3266 32.7421 47.2546 32.7369 47.1173C32.7328 46.9813 32.8344 46.9293 32.8344 46.9293H32.6224C32.5063 47.0386 32.514 47.06 32.4297 46.9266C32.3432 46.792 32.5984 46.576 32.7369 46.6613C32.8734 46.7466 33.0193 46.6293 33.0193 46.6293C33.0193 46.6293 33.0688 46.656 32.9869 46.7986C32.9062 46.9426 32.8839 47.0146 32.8839 47.0146Z" fill="#70C951"/>
<path d="M30.6479 48.1653L30.6547 48.1973L30.7719 48.1293L30.8031 48.4613L30.8943 48.1853C30.8979 48.0826 30.7812 48.1253 30.8943 47.9093C31.0088 47.6933 31.0765 47.5826 31.0765 47.5826L31.1599 47.376L31.276 47.3533L31.2005 47.5386L31.3979 47.256L31.4568 47.0706C31.3724 47.0733 31.3464 47.1653 31.2136 47.252C31.0807 47.3386 31.1781 47.196 31.1781 47.196L31.4036 47.0506C31.4036 47.0506 31.5312 46.932 31.5541 46.8066C31.5765 46.68 31.4427 46.6986 31.4427 46.6986L31.476 46.564C31.0645 47.0013 30.7547 47.596 30.6479 48.1653Z" fill="#62C447"/>
<path d="M31.3891 49.4306L31.4385 49.184L31.3432 48.972L31.2615 48.932V48.78L31.2312 48.6253V48.3826L31.0364 48.328C31.0364 48.328 30.9412 48.3533 30.8568 48.5C30.7703 48.6466 30.776 48.7986 30.7094 48.7946L30.6588 48.916L30.6927 49.0586L30.6937 49.084C30.8281 49.4293 31.1104 49.6106 31.4698 49.58C31.4792 49.436 31.3891 49.4306 31.3891 49.4306Z" fill="#62C447"/>
<path d="M54.3484 60.7986L52.1677 62.0586C51.686 62.3373 51.2917 62.0386 51.2917 61.3973V59.2186C51.2917 58.5759 51.686 57.8239 52.1677 57.5453L54.3484 56.2866C54.8306 56.008 55.2251 56.3053 55.2251 56.9479V59.1253C55.2251 59.7679 54.8306 60.5213 54.3484 60.7986Z" fill="#70C951"/>
<path d="M54.7771 57.3506V58.9853C54.7771 59.2893 54.5609 59.66 54.2969 59.8133L52.9776 60.5733L52.2005 61.7426L52.4297 60.996L52.4688 60.868L52.686 60.16L52.2693 60.9826L52.2188 61.012C51.9541 61.1653 51.7396 61.0413 51.7396 60.7373V59.104C51.7396 58.7986 51.9541 58.4293 52.2188 58.276L54.2969 57.0773C54.5609 56.924 54.7771 57.0453 54.7771 57.3506Z" fill="#EDEFF3"/>
<path d="M35.6303 45.776L37.4948 44.7C37.9063 44.4613 38.2421 44.6533 38.2421 45.1266V47.2653C38.2421 47.7386 37.9063 48.3186 37.4948 48.5573L35.6303 49.6333C35.2188 49.8706 34.8812 49.6786 34.8812 49.2066V47.068C34.8812 46.5946 35.2188 46.0133 35.6303 45.776Z" fill="#C96B32"/>
<path d="M35.75 45.7066L37.4948 44.7C37.9063 44.4613 38.2421 44.6533 38.2421 45.1266V47.2653C38.2421 47.7386 37.9063 48.3186 37.4948 48.5573L35.75 49.564V45.7066Z" fill="#FAE557"/>
<path d="M36.4812 45.2853V46.5946L36.8473 46.12L37.1885 46.168V44.876L36.4812 45.2853Z" fill="#F03D4E"/>
<path d="M53.126 41.412L49.9541 43.244C49.2536 43.6493 48.6807 43.2146 48.6807 42.2813V39.1133C48.6807 38.18 49.2536 37.0853 49.9541 36.68L53.126 34.848C53.8265 34.444 54.3995 34.8773 54.3995 35.812V38.9786C54.3995 39.9133 53.8265 41.008 53.126 41.412Z" fill="#EDEFF3"/>
<path d="M54.0323 35.832V37.2786C54.0323 37.944 53.5584 38.7626 52.9776 39.0973L52.338 39.4666V39.3373C52.338 38.672 51.8645 38.4013 51.2849 38.736L50.1443 39.3946V38.076C50.1443 37.4106 50.6197 36.592 51.2005 36.2573L52.9776 35.2306C53.5584 34.896 54.0323 35.1666 54.0323 35.832Z" fill="#7FD5ED"/>
<path d="M52.4921 37.1493L52.6183 36.9933L52.7771 37.2013L52.6443 37.3626L52.4921 37.1493ZM52.4489 37.7986L52.5755 37.6453L52.7448 37.8626L52.6104 38.0227L52.4489 37.7986ZM52.3839 37.092L52.3464 37.5773L52.8927 37.2626C52.8984 37.1106 52.9011 36.9547 52.9063 36.7907L52.3839 37.092ZM52.8891 37.4253L52.336 37.744L52.2979 38.24L52.8735 37.908C52.8787 37.7573 52.8839 37.596 52.8891 37.4253ZM52 37.7773L52.1849 37.6707L52.2292 37.056L52.1068 37.312L51.9984 37.224C52.1495 36.9467 52.2693 36.648 52.3568 36.3293L52.5167 36.2693L52.4307 36.54L53.1912 36.1V36.26L52.3568 36.7413L52.2484 37.0093L53.0781 36.5306C53.0703 36.7666 53.0651 36.9786 53.0584 37.1666L53.2355 37.0653V37.2253L53.0541 37.3293C53.0469 37.516 53.0417 37.6786 53.0364 37.8133L53.2041 37.716V37.876L53.0297 37.9773C53.0235 38.232 52.9281 38.4106 52.7448 38.5173C52.6027 38.5986 52.5 38.6586 52.4369 38.692L52.4073 38.512L52.7093 38.3547C52.8073 38.2987 52.8593 38.2053 52.8672 38.0707L52.1364 38.4933V38.348L52.1713 37.8387L52 37.9373V37.7773ZM51.8136 36.7146L52.1068 36.8186L51.9907 37.0253L51.7172 36.8986L51.8136 36.7146ZM51.8604 38.0253L52.0219 38.008C51.9568 38.3467 51.8917 38.704 51.8255 39.0773L51.6521 39.1106C51.7355 38.7453 51.8041 38.384 51.8604 38.0253ZM51.7317 37.392L52.0479 37.5L51.9307 37.7227L51.6312 37.5853L51.7317 37.392ZM51.488 37.2747L51.2969 37.3853V38.7786L51.488 38.668V37.2747ZM51.1547 37.3013L51.6287 37.0266V38.7533L51.2969 38.9453V39.1333L51.1547 39.2146V37.3013Z" fill="white"/>
<path d="M52.338 39.3373V39.4666L51.2005 40.124C50.6197 40.46 50.1443 40.188 50.1443 39.5226V39.3946L51.2849 38.736C51.8645 38.4013 52.338 38.672 52.338 39.3373Z" fill="#2D2D2D"/>
<path d="M52.338 39.4666V40.1906C52.338 40.8546 51.8645 41.6733 51.2849 42.008L50.1036 42.6906C49.5234 43.0253 49.0479 42.7546 49.0479 42.0906V41.236C49.0479 40.5706 49.5234 39.7533 50.1036 39.4173L50.1442 39.3946V39.5226C50.1442 40.188 50.6197 40.46 51.2005 40.124L52.338 39.4666Z" fill="#F03D4E"/>
<path d="M49.8536 41.5066L50.0098 41.416L49.9317 41.2653L49.8536 41.5066ZM49.5287 42.0053L49.8855 40.9133L49.976 40.8613L50.3369 41.5386L50.1364 41.6546L50.088 41.5666L49.776 41.7466L49.7292 41.8893L49.5287 42.0053Z" fill="white"/>
<path d="M50.7787 41.092L50.8448 40.9773L50.7787 40.9386L50.6427 41.016V41.1706L50.7787 41.092ZM50.7421 40.7653L50.8073 40.652L50.7421 40.612L50.6427 40.6693V40.8226L50.7421 40.7653ZM50.4427 41.4773V40.592L50.7812 40.3973C50.9047 40.3253 51.0079 40.388 51.0079 40.5293L50.9593 40.7173L51.0469 40.8706C51.0469 41.0093 50.9427 41.1893 50.8203 41.26L50.4427 41.4773Z" fill="white"/>
<path d="M51.6469 40.1893L51.5183 40.2067L51.338 40.5173C51.338 40.6386 51.414 40.6827 51.5183 40.6227L51.6469 40.488L51.7891 40.568C51.7208 40.6893 51.6251 40.7947 51.5183 40.8573C51.3073 40.9787 51.1355 40.88 51.1355 40.6347C51.1355 40.392 51.3073 40.0933 51.5183 39.972L51.7875 39.944L51.6469 40.1893Z" fill="white"/>
<path d="M43.751 66.6413L40.6869 68.4106C40.0098 68.8013 39.4568 68.3826 39.4568 67.4813V64.4226C39.4568 63.52 40.0098 62.4626 40.6869 62.072L43.751 60.3026C44.4281 59.912 44.9817 60.3306 44.9817 61.2333V64.292C44.9817 65.1933 44.4281 66.252 43.751 66.6413Z" fill="#CACFDB"/>
<path d="M42.7188 64.9573L42.6765 64.7693L42.8875 64.2253L42.6271 64L42.2208 64.3773L42.0505 64.3813L41.8943 64.0173L41.4751 64.26L41.3188 64.804L41.1484 64.996L40.7432 65.088L40.4817 65.6146L40.6927 65.9146L40.6511 66.152L40.3005 66.6293L40.3927 67.044L40.8136 66.8746L40.9317 66.9773L40.9011 67.4813L41.2787 67.472L41.5896 66.96L41.7797 66.8506L42.0912 67.0013L42.4688 66.5746L42.4385 66.1066L42.5557 65.8693L42.976 65.5533L43.0688 65.0306L42.7188 64.9573Z" fill="#D84315"/>
<path d="M43.8125 61.724L43.9115 61.348L43.6052 61.1946L43.3333 61.4826L43.0271 61.576L42.836 61.4293L42.4333 61.8L42.3969 62.156C42.3823 62.2973 42.2953 62.4546 42.1807 62.544L41.8917 62.7733L41.7937 63.2986L42.0297 63.3666C42.1224 63.3933 42.1588 63.512 42.1197 63.6613L42.0219 64.036L42.3265 64.1906L42.5984 63.9026L42.9047 63.8093L43.0964 63.956L43.4984 63.584L43.5349 63.228C43.5489 63.088 43.6364 62.9306 43.7511 62.84L44.0417 62.612L44.1375 62.0866L43.9036 62.0173C43.8093 61.9906 43.7735 61.872 43.8125 61.724Z" fill="#D84315"/>
<path d="M42.2188 65.3786C42.2188 65.7173 41.9803 66.1306 41.6849 66.3013C41.3907 66.4706 41.1511 66.3346 41.1511 65.996C41.1511 65.6573 41.3907 65.2453 41.6849 65.0746C41.9803 64.904 42.2188 65.04 42.2188 65.3786Z" fill="#CACFDB"/>
<path d="M43.4098 62.436C43.4098 62.7173 43.212 63.06 42.9656 63.2026C42.7208 63.344 42.5219 63.2306 42.5219 62.9493C42.5219 62.668 42.7208 62.324 42.9656 62.1826C43.212 62.0413 43.4098 62.1546 43.4098 62.436Z" fill="#CACFDB"/>
<defs>
<linearGradient id="paint0_linear_5_2248" x1="21.9171" y1="75.4706" x2="52.8317" y2="21.9249" gradientUnits="userSpaceOnUse">
<stop stop-color="#B4B7CB"/>
<stop offset="0.0407563" stop-color="#939ABA"/>
<stop offset="0.437664" stop-color="#939ABA"/>
<stop offset="0.527441" stop-color="#C5C6D3"/>
<stop offset="0.566816" stop-color="#C5C6D3"/>
<stop offset="0.598317" stop-color="#BABFD2"/>
<stop offset="0.927498" stop-color="#BABFD2"/>
<stop offset="1" stop-color="#A7ACC4"/>
</linearGradient>
<linearGradient id="paint1_linear_5_2248" x1="37.2514" y1="33.388" x2="20.449" y2="4.2853" gradientUnits="userSpaceOnUse">
<stop stop-color="#D84315"/>
<stop offset="0.273225" stop-color="#FF3D00"/>
<stop offset="0.356771" stop-color="#FF5722"/>
<stop offset="0.414063" stop-color="#FF5722" stop-opacity="0.96"/>
<stop offset="0.532264" stop-color="#FF8660"/>
<stop offset="1" stop-color="#FF8A65"/>
</linearGradient>
</defs>
</svg>
